<ttFont>
    <TTGlyph name="A" xMin="58" yMin="0" xMax="778" yMax="720">
      <contour>
        <pt x="188" y="720" on="1"/>
        <pt x="648" y="720" on="1"/>
        <pt x="702" y="720" on="0"/>
        <pt x="778" y="644" on="0"/>
        <pt x="778" y="590" on="1"/>
        <pt x="778" y="0" on="1"/>
        <pt x="670" y="0" on="1"/>
        <pt x="670" y="252" on="1"/>
        <pt x="166" y="252" on="1"/>
        <pt x="166" y="0" on="1"/>
        <pt x="58" y="0" on="1"/>
        <pt x="58" y="590" on="1"/>
        <pt x="58" y="644" on="0"/>
        <pt x="134" y="720" on="0"/>
      </contour>
      <contour>
        <pt x="166" y="360" on="1"/>
        <pt x="670" y="360" on="1"/>
        <pt x="670" y="590" on="1"/>
        <pt x="670" y="599" on="0"/>
        <pt x="657" y="612" on="0"/>
        <pt x="648" y="612" on="1"/>
        <pt x="188" y="612" on="1"/>
        <pt x="179" y="612" on="0"/>
        <pt x="166" y="599" on="0"/>
        <pt x="166" y="590" on="1"/>
      </contour>
    </TTGlyph>
    <TTGlyph name="A.alt" xMin="0" yMin="0" xMax="720" yMax="720">
      <contour>
        <pt x="0" y="0" on="1"/>
        <pt x="0" y="15" on="1"/>
        <pt x="592" y="720" on="1"/>
        <pt x="720" y="720" on="1"/>
        <pt x="720" y="0" on="1"/>
        <pt x="612" y="0" on="1"/>
        <pt x="612" y="192" on="1"/>
        <pt x="289" y="192" on="1"/>
        <pt x="128" y="0" on="1"/>
      </contour>
      <contour>
        <pt x="612" y="576" on="1"/>
        <pt x="380" y="300" on="1"/>
        <pt x="612" y="300" on="1"/>
      </contour>
    </TTGlyph>
    <TTGlyph name="A.alt2" xMin="54" yMin="0" xMax="774" yMax="720">
      <contour>
        <pt x="54" y="720" on="1"/>
        <pt x="182" y="720" on="1"/>
        <pt x="774" y="15" on="1"/>
        <pt x="774" y="0" on="1"/>
        <pt x="646" y="0" on="1"/>
        <pt x="484" y="192" on="1"/>
        <pt x="162" y="192" on="1"/>
        <pt x="162" y="0" on="1"/>
        <pt x="54" y="0" on="1"/>
      </contour>
      <contour>
        <pt x="162" y="576" on="1"/>
        <pt x="162" y="300" on="1"/>
        <pt x="394" y="300" on="1"/>
      </contour>
    </TTGlyph>
    <TTGlyph name="A.alt3" xMin="-28" yMin="0" xMax="851" yMax="720">
      <contour>
        <pt x="851" y="0" on="1"/>
        <pt x="727" y="0" on="1"/>
        <pt x="625" y="175" on="1"/>
        <pt x="198" y="175" on="1"/>
        <pt x="97" y="0" on="1"/>
        <pt x="-28" y="0" on="1"/>
        <pt x="358" y="720" on="1"/>
        <pt x="466" y="720" on="1"/>
      </contour>
      <contour>
        <pt x="412" y="597" on="1"/>
        <pt x="260" y="283" on="1"/>
        <pt x="563" y="283" on="1"/>
      </contour>
    </TTGlyph>
    <TTGlyph name="AE" xMin="54" yMin="0" xMax="1326" yMax="720">
      <contour>
        <pt x="774" y="612" on="1"/>
        <pt x="774" y="414" on="1"/>
        <pt x="1218" y="414" on="1"/>
        <pt x="1218" y="306" on="1"/>
        <pt x="774" y="306" on="1"/>
        <pt x="774" y="108" on="1"/>
        <pt x="1326" y="108" on="1"/>
        <pt x="1326" y="0" on="1"/>
        <pt x="666" y="0" on="1"/>
        <pt x="666" y="252" on="1"/>
        <pt x="162" y="252" on="1"/>
        <pt x="162" y="0" on="1"/>
        <pt x="54" y="0" on="1"/>
        <pt x="54" y="590" on="1"/>
        <pt x="54" y="644" on="0"/>
        <pt x="130" y="720" on="0"/>
        <pt x="184" y="720" on="1"/>
        <pt x="1326" y="720" on="1"/>
        <pt x="1326" y="612" on="1"/>
      </contour>
      <contour>
        <pt x="666" y="360" on="1"/>
        <pt x="666" y="590" on="1"/>
        <pt x="666" y="599" on="0"/>
        <pt x="653" y="612" on="0"/>
        <pt x="644" y="612" on="1"/>
        <pt x="184" y="612" on="1"/>
        <pt x="175" y="612" on="0"/>
        <pt x="162" y="599" on="0"/>
        <pt x="162" y="590" on="1"/>
        <pt x="162" y="360" on="1"/>
      </contour>
    </TTGlyph>
    <TTGlyph name="Aacute" xMin="58" yMin="0" xMax="778" yMax="981">
      <contour>
        <pt x="188" y="720" on="1"/>
        <pt x="648" y="720" on="1"/>
        <pt x="702" y="720" on="0"/>
        <pt x="778" y="644" on="0"/>
        <pt x="778" y="590" on="1"/>
        <pt x="778" y="0" on="1"/>
        <pt x="670" y="0" on="1"/>
        <pt x="670" y="252" on="1"/>
        <pt x="166" y="252" on="1"/>
        <pt x="166" y="0" on="1"/>
        <pt x="58" y="0" on="1"/>
        <pt x="58" y="590" on="1"/>
        <pt x="58" y="644" on="0"/>
        <pt x="134" y="720" on="0"/>
      </contour>
      <contour>
        <pt x="166" y="360" on="1"/>
        <pt x="670" y="360" on="1"/>
        <pt x="670" y="590" on="1"/>
        <pt x="670" y="599" on="0"/>
        <pt x="657" y="612" on="0"/>
        <pt x="648" y="612" on="1"/>
        <pt x="188" y="612" on="1"/>
        <pt x="179" y="612" on="0"/>
        <pt x="166" y="599" on="0"/>
        <pt x="166" y="590" on="1"/>
      </contour>
      <contour>
        <pt x="344" y="819" on="1"/>
        <pt x="384" y="981" on="1"/>
        <pt x="492" y="981" on="1"/>
        <pt x="452" y="819" on="1"/>
      </contour>
    </TTGlyph>
    <TTGlyph name="Acircumflex" xMin="58" yMin="0" xMax="778" yMax="960">
      <contour>
        <pt x="188" y="720" on="1"/>
        <pt x="648" y="720" on="1"/>
        <pt x="702" y="720" on="0"/>
        <pt x="778" y="644" on="0"/>
        <pt x="778" y="590" on="1"/>
        <pt x="778" y="0" on="1"/>
        <pt x="670" y="0" on="1"/>
        <pt x="670" y="252" on="1"/>
        <pt x="166" y="252" on="1"/>
        <pt x="166" y="0" on="1"/>
        <pt x="58" y="0" on="1"/>
        <pt x="58" y="590" on="1"/>
        <pt x="58" y="644" on="0"/>
        <pt x="134" y="720" on="0"/>
      </contour>
      <contour>
        <pt x="166" y="360" on="1"/>
        <pt x="670" y="360" on="1"/>
        <pt x="670" y="590" on="1"/>
        <pt x="670" y="599" on="0"/>
        <pt x="657" y="612" on="0"/>
        <pt x="648" y="612" on="1"/>
        <pt x="188" y="612" on="1"/>
        <pt x="179" y="612" on="0"/>
        <pt x="166" y="599" on="0"/>
        <pt x="166" y="590" on="1"/>
      </contour>
      <contour>
        <pt x="370" y="819" on="1"/>
        <pt x="296" y="819" on="1"/>
        <pt x="381" y="960" on="1"/>
        <pt x="455" y="960" on="1"/>
        <pt x="540" y="819" on="1"/>
        <pt x="465" y="819" on="1"/>
        <pt x="418" y="895" on="1"/>
      </contour>
    </TTGlyph>
    <TTGlyph name="Adieresis" xMin="58" yMin="0" xMax="778" yMax="918">
      <contour>
        <pt x="188" y="720" on="1"/>
        <pt x="648" y="720" on="1"/>
        <pt x="702" y="720" on="0"/>
        <pt x="778" y="644" on="0"/>
        <pt x="778" y="590" on="1"/>
        <pt x="778" y="0" on="1"/>
        <pt x="670" y="0" on="1"/>
        <pt x="670" y="252" on="1"/>
        <pt x="166" y="252" on="1"/>
        <pt x="166" y="0" on="1"/>
        <pt x="58" y="0" on="1"/>
        <pt x="58" y="590" on="1"/>
        <pt x="58" y="644" on="0"/>
        <pt x="134" y="720" on="0"/>
      </contour>
      <contour>
        <pt x="166" y="360" on="1"/>
        <pt x="670" y="360" on="1"/>
        <pt x="670" y="590" on="1"/>
        <pt x="670" y="599" on="0"/>
        <pt x="657" y="612" on="0"/>
        <pt x="648" y="612" on="1"/>
        <pt x="188" y="612" on="1"/>
        <pt x="179" y="612" on="0"/>
        <pt x="166" y="599" on="0"/>
        <pt x="166" y="590" on="1"/>
      </contour>
      <contour>
        <pt x="557" y="918" on="1"/>
        <pt x="557" y="810" on="1"/>
        <pt x="449" y="810" on="1"/>
        <pt x="449" y="918" on="1"/>
      </contour>
      <contour>
        <pt x="387" y="918" on="1"/>
        <pt x="387" y="810" on="1"/>
        <pt x="279" y="810" on="1"/>
        <pt x="279" y="918" on="1"/>
      </contour>
    </TTGlyph>
    <TTGlyph name="Agrave" xMin="58" yMin="0" xMax="778" yMax="982">
      <contour>
        <pt x="188" y="720" on="1"/>
        <pt x="648" y="720" on="1"/>
        <pt x="702" y="720" on="0"/>
        <pt x="778" y="644" on="0"/>
        <pt x="778" y="590" on="1"/>
        <pt x="778" y="0" on="1"/>
        <pt x="670" y="0" on="1"/>
        <pt x="670" y="252" on="1"/>
        <pt x="166" y="252" on="1"/>
        <pt x="166" y="0" on="1"/>
        <pt x="58" y="0" on="1"/>
        <pt x="58" y="590" on="1"/>
        <pt x="58" y="644" on="0"/>
        <pt x="134" y="720" on="0"/>
      </contour>
      <contour>
        <pt x="166" y="360" on="1"/>
        <pt x="670" y="360" on="1"/>
        <pt x="670" y="590" on="1"/>
        <pt x="670" y="599" on="0"/>
        <pt x="657" y="612" on="0"/>
        <pt x="648" y="612" on="1"/>
        <pt x="188" y="612" on="1"/>
        <pt x="179" y="612" on="0"/>
        <pt x="166" y="599" on="0"/>
        <pt x="166" y="590" on="1"/>
      </contour>
      <contour>
        <pt x="452" y="982" on="1"/>
        <pt x="492" y="820" on="1"/>
        <pt x="384" y="820" on="1"/>
        <pt x="344" y="982" on="1"/>
      </contour>
    </TTGlyph>
    <TTGlyph name="Aring" xMin="58" yMin="0" xMax="778" yMax="981">
      <contour>
        <pt x="188" y="720" on="1"/>
        <pt x="648" y="720" on="1"/>
        <pt x="702" y="720" on="0"/>
        <pt x="778" y="644" on="0"/>
        <pt x="778" y="590" on="1"/>
        <pt x="778" y="0" on="1"/>
        <pt x="670" y="0" on="1"/>
        <pt x="670" y="252" on="1"/>
        <pt x="166" y="252" on="1"/>
        <pt x="166" y="0" on="1"/>
        <pt x="58" y="0" on="1"/>
        <pt x="58" y="590" on="1"/>
        <pt x="58" y="644" on="0"/>
        <pt x="134" y="720" on="0"/>
      </contour>
      <contour>
        <pt x="166" y="360" on="1"/>
        <pt x="670" y="360" on="1"/>
        <pt x="670" y="590" on="1"/>
        <pt x="670" y="599" on="0"/>
        <pt x="657" y="612" on="0"/>
        <pt x="648" y="612" on="1"/>
        <pt x="188" y="612" on="1"/>
        <pt x="179" y="612" on="0"/>
        <pt x="166" y="599" on="0"/>
        <pt x="166" y="590" on="1"/>
      </contour>
      <contour>
        <pt x="390" y="981" on="1"/>
        <pt x="446" y="981" on="1"/>
        <pt x="468" y="981" on="0"/>
        <pt x="500" y="950" on="0"/>
        <pt x="500" y="928" on="1"/>
        <pt x="500" y="874" on="1"/>
        <pt x="500" y="852" on="0"/>
        <pt x="468" y="821" on="0"/>
        <pt x="446" y="821" on="1"/>
        <pt x="390" y="821" on="1"/>
        <pt x="368" y="821" on="0"/>
        <pt x="336" y="852" on="0"/>
        <pt x="336" y="874" on="1"/>
        <pt x="336" y="928" on="1"/>
        <pt x="336" y="950" on="0"/>
        <pt x="368" y="981" on="0"/>
      </contour>
      <contour>
        <pt x="385" y="861" on="1"/>
        <pt x="451" y="861" on="1"/>
        <pt x="460" y="861" on="0"/>
        <pt x="460" y="871" on="1"/>
        <pt x="460" y="931" on="1"/>
        <pt x="460" y="941" on="0"/>
        <pt x="451" y="941" on="1"/>
        <pt x="385" y="941" on="1"/>
        <pt x="376" y="941" on="0"/>
        <pt x="376" y="931" on="1"/>
        <pt x="376" y="871" on="1"/>
        <pt x="376" y="861" on="0"/>
      </contour>
    </TTGlyph>
    <TTGlyph name="Atilde" xMin="58" yMin="0" xMax="778" yMax="958">
      <contour>
        <pt x="188" y="720" on="1"/>
        <pt x="648" y="720" on="1"/>
        <pt x="702" y="720" on="0"/>
        <pt x="778" y="644" on="0"/>
        <pt x="778" y="590" on="1"/>
        <pt x="778" y="0" on="1"/>
        <pt x="670" y="0" on="1"/>
        <pt x="670" y="252" on="1"/>
        <pt x="166" y="252" on="1"/>
        <pt x="166" y="0" on="1"/>
        <pt x="58" y="0" on="1"/>
        <pt x="58" y="590" on="1"/>
        <pt x="58" y="644" on="0"/>
        <pt x="134" y="720" on="0"/>
      </contour>
      <contour>
        <pt x="166" y="360" on="1"/>
        <pt x="670" y="360" on="1"/>
        <pt x="670" y="590" on="1"/>
        <pt x="670" y="599" on="0"/>
        <pt x="657" y="612" on="0"/>
        <pt x="648" y="612" on="1"/>
        <pt x="188" y="612" on="1"/>
        <pt x="179" y="612" on="0"/>
        <pt x="166" y="599" on="0"/>
        <pt x="166" y="590" on="1"/>
      </contour>
      <contour>
        <pt x="516" y="890" on="1"/>
        <pt x="555" y="890" on="0"/>
        <pt x="594" y="916" on="1"/>
        <pt x="594" y="842" on="1"/>
        <pt x="552" y="824" on="0"/>
        <pt x="516" y="824" on="1"/>
        <pt x="481" y="824" on="0"/>
        <pt x="355" y="892" on="0"/>
        <pt x="316" y="892" on="1"/>
        <pt x="256" y="892" on="0"/>
        <pt x="242" y="869" on="1"/>
        <pt x="242" y="944" on="1"/>
        <pt x="275" y="958" on="0"/>
        <pt x="316" y="958" on="1"/>
        <pt x="355" y="958" on="0"/>
        <pt x="482" y="894" on="0"/>
      </contour>
    </TTGlyph>
    <TTGlyph name="B" xMin="59" yMin="0" xMax="779" yMax="720">
      <contour>
        <pt x="736" y="387" on="1"/>
        <pt x="779" y="349" on="0"/>
        <pt x="779" y="291" on="1"/>
        <pt x="779" y="130" on="1"/>
        <pt x="779" y="76" on="0"/>
        <pt x="703" y="0" on="0"/>
        <pt x="649" y="0" on="1"/>
        <pt x="59" y="0" on="1"/>
        <pt x="59" y="720" on="1"/>
        <pt x="619" y="720" on="1"/>
        <pt x="673" y="720" on="0"/>
        <pt x="749" y="644" on="0"/>
        <pt x="749" y="590" on="1"/>
        <pt x="749" y="443" on="1"/>
        <pt x="749" y="415" on="0"/>
      </contour>
      <contour>
        <pt x="619" y="612" on="1"/>
        <pt x="189" y="612" on="1"/>
        <pt x="180" y="612" on="0"/>
        <pt x="167" y="599" on="0"/>
        <pt x="167" y="590" on="1"/>
        <pt x="167" y="443" on="1"/>
        <pt x="167" y="434" on="0"/>
        <pt x="180" y="421" on="0"/>
        <pt x="189" y="421" on="1"/>
        <pt x="619" y="421" on="1"/>
        <pt x="628" y="421" on="0"/>
        <pt x="641" y="434" on="0"/>
        <pt x="641" y="443" on="1"/>
        <pt x="641" y="590" on="1"/>
        <pt x="641" y="599" on="0"/>
        <pt x="628" y="612" on="0"/>
      </contour>
      <contour>
        <pt x="671" y="130" on="1"/>
        <pt x="671" y="291" on="1"/>
        <pt x="671" y="300" on="0"/>
        <pt x="658" y="313" on="0"/>
        <pt x="649" y="313" on="1"/>
        <pt x="189" y="313" on="1"/>
        <pt x="180" y="313" on="0"/>
        <pt x="167" y="300" on="0"/>
        <pt x="167" y="291" on="1"/>
        <pt x="167" y="130" on="1"/>
        <pt x="167" y="121" on="0"/>
        <pt x="180" y="108" on="0"/>
        <pt x="189" y="108" on="1"/>
        <pt x="649" y="108" on="1"/>
        <pt x="658" y="108" on="0"/>
        <pt x="671" y="121" on="0"/>
      </contour>
    </TTGlyph>
    <TTGlyph name="C" xMin="56" yMin="0" xMax="774" yMax="720">
      <contour>
        <pt x="774" y="612" on="1"/>
        <pt x="186" y="612" on="1"/>
        <pt x="177" y="612" on="0"/>
        <pt x="164" y="599" on="0"/>
        <pt x="164" y="590" on="1"/>
        <pt x="164" y="130" on="1"/>
        <pt x="164" y="121" on="0"/>
        <pt x="177" y="108" on="0"/>
        <pt x="186" y="108" on="1"/>
        <pt x="774" y="108" on="1"/>
        <pt x="774" y="0" on="1"/>
        <pt x="186" y="0" on="1"/>
        <pt x="132" y="0" on="0"/>
        <pt x="56" y="76" on="0"/>
        <pt x="56" y="130" on="1"/>
        <pt x="56" y="590" on="1"/>
        <pt x="56" y="644" on="0"/>
        <pt x="132" y="720" on="0"/>
        <pt x="186" y="720" on="1"/>
        <pt x="774" y="720" on="1"/>
      </contour>
    </TTGlyph>
    <TTGlyph name="C.alt" xMin="52" yMin="0" xMax="773" yMax="720">
      <contour>
        <pt x="773" y="612" on="1"/>
        <pt x="773" y="504" on="1"/>
        <pt x="665" y="504" on="1"/>
        <pt x="665" y="612" on="1"/>
        <pt x="182" y="612" on="1"/>
        <pt x="173" y="612" on="0"/>
        <pt x="160" y="599" on="0"/>
        <pt x="160" y="590" on="1"/>
        <pt x="160" y="130" on="1"/>
        <pt x="160" y="121" on="0"/>
        <pt x="173" y="108" on="0"/>
        <pt x="182" y="108" on="1"/>
        <pt x="665" y="108" on="1"/>
        <pt x="665" y="216" on="1"/>
        <pt x="770" y="216" on="1"/>
        <pt x="770" y="108" on="1"/>
        <pt x="762" y="62" on="0"/>
        <pt x="690" y="0" on="0"/>
        <pt x="642" y="0" on="1"/>
        <pt x="182" y="0" on="1"/>
        <pt x="128" y="0" on="0"/>
        <pt x="52" y="76" on="0"/>
        <pt x="52" y="130" on="1"/>
        <pt x="52" y="590" on="1"/>
        <pt x="52" y="644" on="0"/>
        <pt x="128" y="720" on="0"/>
        <pt x="182" y="720" on="1"/>
        <pt x="642" y="720" on="1"/>
        <pt x="690" y="720" on="0"/>
        <pt x="762" y="658" on="0"/>
        <pt x="770" y="612" on="1"/>
      </contour>
    </TTGlyph>
    <TTGlyph name="Ccedilla" xMin="56" yMin="-162" xMax="774" yMax="720">
      <contour>
        <pt x="774" y="612" on="1"/>
        <pt x="186" y="612" on="1"/>
        <pt x="177" y="612" on="0"/>
        <pt x="164" y="599" on="0"/>
        <pt x="164" y="590" on="1"/>
        <pt x="164" y="130" on="1"/>
        <pt x="164" y="121" on="0"/>
        <pt x="177" y="108" on="0"/>
        <pt x="186" y="108" on="1"/>
        <pt x="774" y="108" on="1"/>
        <pt x="774" y="0" on="1"/>
        <pt x="485" y="0" on="1"/>
        <pt x="445" y="-162" on="1"/>
        <pt x="337" y="-162" on="1"/>
        <pt x="377" y="0" on="1"/>
        <pt x="186" y="0" on="1"/>
        <pt x="132" y="0" on="0"/>
        <pt x="56" y="76" on="0"/>
        <pt x="56" y="130" on="1"/>
        <pt x="56" y="590" on="1"/>
        <pt x="56" y="644" on="0"/>
        <pt x="132" y="720" on="0"/>
        <pt x="186" y="720" on="1"/>
        <pt x="774" y="720" on="1"/>
      </contour>
    </TTGlyph>
    <TTGlyph name="D" xMin="58" yMin="0" xMax="778" yMax="720">
      <contour>
        <pt x="58" y="720" on="1"/>
        <pt x="648" y="720" on="1"/>
        <pt x="702" y="720" on="0"/>
        <pt x="778" y="644" on="0"/>
        <pt x="778" y="590" on="1"/>
        <pt x="778" y="130" on="1"/>
        <pt x="778" y="76" on="0"/>
        <pt x="702" y="0" on="0"/>
        <pt x="648" y="0" on="1"/>
        <pt x="58" y="0" on="1"/>
      </contour>
      <contour>
        <pt x="670" y="130" on="1"/>
        <pt x="670" y="590" on="1"/>
        <pt x="670" y="599" on="0"/>
        <pt x="657" y="612" on="0"/>
        <pt x="648" y="612" on="1"/>
        <pt x="188" y="612" on="1"/>
        <pt x="179" y="612" on="0"/>
        <pt x="166" y="599" on="0"/>
        <pt x="166" y="590" on="1"/>
        <pt x="166" y="130" on="1"/>
        <pt x="166" y="121" on="0"/>
        <pt x="179" y="108" on="0"/>
        <pt x="188" y="108" on="1"/>
        <pt x="648" y="108" on="1"/>
        <pt x="657" y="108" on="0"/>
        <pt x="670" y="121" on="0"/>
      </contour>
    </TTGlyph>
    <TTGlyph name="E" xMin="58" yMin="0" xMax="718" yMax="720">
      <contour>
        <pt x="718" y="720" on="1"/>
        <pt x="718" y="612" on="1"/>
        <pt x="166" y="612" on="1"/>
        <pt x="166" y="414" on="1"/>
        <pt x="610" y="414" on="1"/>
        <pt x="610" y="306" on="1"/>
        <pt x="166" y="306" on="1"/>
        <pt x="166" y="108" on="1"/>
        <pt x="718" y="108" on="1"/>
        <pt x="718" y="0" on="1"/>
        <pt x="58" y="0" on="1"/>
        <pt x="58" y="720" on="1"/>
      </contour>
    </TTGlyph>
    <TTGlyph name="Eacute" xMin="58" yMin="0" xMax="718" yMax="982">
      <contour>
        <pt x="718" y="720" on="1"/>
        <pt x="718" y="612" on="1"/>
        <pt x="166" y="612" on="1"/>
        <pt x="166" y="414" on="1"/>
        <pt x="610" y="414" on="1"/>
        <pt x="610" y="306" on="1"/>
        <pt x="166" y="306" on="1"/>
        <pt x="166" y="108" on="1"/>
        <pt x="718" y="108" on="1"/>
        <pt x="718" y="0" on="1"/>
        <pt x="58" y="0" on="1"/>
        <pt x="58" y="720" on="1"/>
      </contour>
      <contour>
        <pt x="309" y="820" on="1"/>
        <pt x="349" y="982" on="1"/>
        <pt x="457" y="982" on="1"/>
        <pt x="417" y="820" on="1"/>
      </contour>
    </TTGlyph>
    <TTGlyph name="Ecircumflex" xMin="58" yMin="0" xMax="718" yMax="960">
      <contour>
        <pt x="718" y="720" on="1"/>
        <pt x="718" y="612" on="1"/>
        <pt x="166" y="612" on="1"/>
        <pt x="166" y="414" on="1"/>
        <pt x="610" y="414" on="1"/>
        <pt x="610" y="306" on="1"/>
        <pt x="166" y="306" on="1"/>
        <pt x="166" y="108" on="1"/>
        <pt x="718" y="108" on="1"/>
        <pt x="718" y="0" on="1"/>
        <pt x="58" y="0" on="1"/>
        <pt x="58" y="720" on="1"/>
      </contour>
      <contour>
        <pt x="335" y="819" on="1"/>
        <pt x="261" y="819" on="1"/>
        <pt x="346" y="960" on="1"/>
        <pt x="420" y="960" on="1"/>
        <pt x="505" y="819" on="1"/>
        <pt x="430" y="819" on="1"/>
        <pt x="383" y="895" on="1"/>
      </contour>
    </TTGlyph>
    <TTGlyph name="Edieresis" xMin="58" yMin="0" xMax="718" yMax="928">
      <contour>
        <pt x="718" y="720" on="1"/>
        <pt x="718" y="612" on="1"/>
        <pt x="166" y="612" on="1"/>
        <pt x="166" y="414" on="1"/>
        <pt x="610" y="414" on="1"/>
        <pt x="610" y="306" on="1"/>
        <pt x="166" y="306" on="1"/>
        <pt x="166" y="108" on="1"/>
        <pt x="718" y="108" on="1"/>
        <pt x="718" y="0" on="1"/>
        <pt x="58" y="0" on="1"/>
        <pt x="58" y="720" on="1"/>
      </contour>
      <contour>
        <pt x="522" y="928" on="1"/>
        <pt x="522" y="820" on="1"/>
        <pt x="414" y="820" on="1"/>
        <pt x="414" y="928" on="1"/>
      </contour>
      <contour>
        <pt x="352" y="928" on="1"/>
        <pt x="352" y="820" on="1"/>
        <pt x="244" y="820" on="1"/>
        <pt x="244" y="928" on="1"/>
      </contour>
    </TTGlyph>
    <TTGlyph name="Egrave" xMin="58" yMin="0" xMax="718" yMax="982">
      <contour>
        <pt x="718" y="720" on="1"/>
        <pt x="718" y="612" on="1"/>
        <pt x="166" y="612" on="1"/>
        <pt x="166" y="414" on="1"/>
        <pt x="610" y="414" on="1"/>
        <pt x="610" y="306" on="1"/>
        <pt x="166" y="306" on="1"/>
        <pt x="166" y="108" on="1"/>
        <pt x="718" y="108" on="1"/>
        <pt x="718" y="0" on="1"/>
        <pt x="58" y="0" on="1"/>
        <pt x="58" y="720" on="1"/>
      </contour>
      <contour>
        <pt x="417" y="982" on="1"/>
        <pt x="457" y="820" on="1"/>
        <pt x="349" y="820" on="1"/>
        <pt x="309" y="982" on="1"/>
      </contour>
    </TTGlyph>
    <TTGlyph name="Euro" xMin="35" yMin="0" xMax="753" yMax="720">
      <contour>
        <pt x="265" y="108" on="1"/>
        <pt x="753" y="108" on="1"/>
        <pt x="753" y="0" on="1"/>
        <pt x="265" y="0" on="1"/>
        <pt x="211" y="0" on="0"/>
        <pt x="135" y="76" on="0"/>
        <pt x="135" y="130" on="1"/>
        <pt x="135" y="218" on="1"/>
        <pt x="35" y="218" on="1"/>
        <pt x="35" y="326" on="1"/>
        <pt x="135" y="326" on="1"/>
        <pt x="135" y="394" on="1"/>
        <pt x="35" y="394" on="1"/>
        <pt x="35" y="502" on="1"/>
        <pt x="135" y="502" on="1"/>
        <pt x="135" y="590" on="1"/>
        <pt x="135" y="644" on="0"/>
        <pt x="211" y="720" on="0"/>
        <pt x="265" y="720" on="1"/>
        <pt x="753" y="720" on="1"/>
        <pt x="753" y="612" on="1"/>
        <pt x="265" y="612" on="1"/>
        <pt x="256" y="612" on="0"/>
        <pt x="243" y="599" on="0"/>
        <pt x="243" y="590" on="1"/>
        <pt x="243" y="502" on="1"/>
        <pt x="645" y="502" on="1"/>
        <pt x="645" y="394" on="1"/>
        <pt x="243" y="394" on="1"/>
        <pt x="243" y="326" on="1"/>
        <pt x="645" y="326" on="1"/>
        <pt x="645" y="218" on="1"/>
        <pt x="243" y="218" on="1"/>
        <pt x="243" y="130" on="1"/>
        <pt x="243" y="121" on="0"/>
        <pt x="256" y="108" on="0"/>
      </contour>
    </TTGlyph>
    <TTGlyph name="F" xMin="58" yMin="0" xMax="718" yMax="720">
      <contour>
        <pt x="58" y="720" on="1"/>
        <pt x="718" y="720" on="1"/>
        <pt x="718" y="612" on="1"/>
        <pt x="166" y="612" on="1"/>
        <pt x="166" y="414" on="1"/>
        <pt x="610" y="414" on="1"/>
        <pt x="610" y="306" on="1"/>
        <pt x="166" y="306" on="1"/>
        <pt x="166" y="0" on="1"/>
        <pt x="58" y="0" on="1"/>
      </contour>
    </TTGlyph>
    <TTGlyph name="G" xMin="56" yMin="0" xMax="776" yMax="720">
      <contour>
        <pt x="776" y="590" on="1"/>
        <pt x="776" y="547" on="1"/>
        <pt x="668" y="547" on="1"/>
        <pt x="668" y="590" on="1"/>
        <pt x="668" y="599" on="0"/>
        <pt x="655" y="612" on="0"/>
        <pt x="646" y="612" on="1"/>
        <pt x="186" y="612" on="1"/>
        <pt x="177" y="612" on="0"/>
        <pt x="164" y="599" on="0"/>
        <pt x="164" y="590" on="1"/>
        <pt x="164" y="130" on="1"/>
        <pt x="164" y="121" on="0"/>
        <pt x="177" y="108" on="0"/>
        <pt x="186" y="108" on="1"/>
        <pt x="646" y="108" on="1"/>
        <pt x="655" y="108" on="0"/>
        <pt x="668" y="121" on="0"/>
        <pt x="668" y="130" on="1"/>
        <pt x="668" y="286" on="1"/>
        <pt x="498" y="286" on="1"/>
        <pt x="498" y="394" on="1"/>
        <pt x="776" y="394" on="1"/>
        <pt x="776" y="130" on="1"/>
        <pt x="776" y="76" on="0"/>
        <pt x="700" y="0" on="0"/>
        <pt x="646" y="0" on="1"/>
        <pt x="186" y="0" on="1"/>
        <pt x="132" y="0" on="0"/>
        <pt x="56" y="76" on="0"/>
        <pt x="56" y="130" on="1"/>
        <pt x="56" y="590" on="1"/>
        <pt x="56" y="644" on="0"/>
        <pt x="132" y="720" on="0"/>
        <pt x="186" y="720" on="1"/>
        <pt x="646" y="720" on="1"/>
        <pt x="700" y="720" on="0"/>
        <pt x="776" y="644" on="0"/>
      </contour>
    </TTGlyph>
    <TTGlyph name="H" xMin="57" yMin="0" xMax="794" yMax="720">
      <contour>
        <pt x="686" y="720" on="1"/>
        <pt x="794" y="720" on="1"/>
        <pt x="794" y="0" on="1"/>
        <pt x="686" y="0" on="1"/>
        <pt x="686" y="306" on="1"/>
        <pt x="165" y="306" on="1"/>
        <pt x="165" y="0" on="1"/>
        <pt x="57" y="0" on="1"/>
        <pt x="57" y="720" on="1"/>
        <pt x="165" y="720" on="1"/>
        <pt x="165" y="414" on="1"/>
        <pt x="686" y="414" on="1"/>
      </contour>
    </TTGlyph>
    <TTGlyph name="I" xMin="57" yMin="0" xMax="165" yMax="720">
      <contour>
        <pt x="57" y="0" on="1"/>
        <pt x="57" y="720" on="1"/>
        <pt x="165" y="720" on="1"/>
        <pt x="165" y="0" on="1"/>
      </contour>
    </TTGlyph>
    <TTGlyph name="I.alt" xMin="49" yMin="0" xMax="769" yMax="720">
      <contour>
        <pt x="769" y="720" on="1"/>
        <pt x="769" y="612" on="1"/>
        <pt x="463" y="612" on="1"/>
        <pt x="463" y="108" on="1"/>
        <pt x="769" y="108" on="1"/>
        <pt x="769" y="0" on="1"/>
        <pt x="49" y="0" on="1"/>
        <pt x="49" y="108" on="1"/>
        <pt x="355" y="108" on="1"/>
        <pt x="355" y="612" on="1"/>
        <pt x="49" y="612" on="1"/>
        <pt x="49" y="720" on="1"/>
      </contour>
    </TTGlyph>
    <TTGlyph name="Iacute" xMin="36" yMin="0" xMax="184" yMax="982">
      <contour>
        <pt x="57" y="0" on="1"/>
        <pt x="57" y="720" on="1"/>
        <pt x="165" y="720" on="1"/>
        <pt x="165" y="0" on="1"/>
      </contour>
      <contour>
        <pt x="36" y="820" on="1"/>
        <pt x="76" y="982" on="1"/>
        <pt x="184" y="982" on="1"/>
        <pt x="144" y="820" on="1"/>
      </contour>
    </TTGlyph>
    <TTGlyph name="Icircumflex" xMin="-12" yMin="0" xMax="232" yMax="960">
      <contour>
        <pt x="57" y="0" on="1"/>
        <pt x="57" y="720" on="1"/>
        <pt x="165" y="720" on="1"/>
        <pt x="165" y="0" on="1"/>
      </contour>
      <contour>
        <pt x="62" y="819" on="1"/>
        <pt x="-12" y="819" on="1"/>
        <pt x="73" y="960" on="1"/>
        <pt x="147" y="960" on="1"/>
        <pt x="232" y="819" on="1"/>
        <pt x="157" y="819" on="1"/>
        <pt x="110" y="895" on="1"/>
      </contour>
    </TTGlyph>
    <TTGlyph name="Idieresis" xMin="-29" yMin="0" xMax="249" yMax="928">
      <contour>
        <pt x="57" y="0" on="1"/>
        <pt x="57" y="720" on="1"/>
        <pt x="165" y="720" on="1"/>
        <pt x="165" y="0" on="1"/>
      </contour>
      <contour>
        <pt x="249" y="928" on="1"/>
        <pt x="249" y="820" on="1"/>
        <pt x="141" y="820" on="1"/>
        <pt x="141" y="928" on="1"/>
      </contour>
      <contour>
        <pt x="79" y="928" on="1"/>
        <pt x="79" y="820" on="1"/>
        <pt x="-29" y="820" on="1"/>
        <pt x="-29" y="928" on="1"/>
      </contour>
    </TTGlyph>
    <TTGlyph name="Igrave" xMin="36" yMin="0" xMax="184" yMax="982">
      <contour>
        <pt x="57" y="0" on="1"/>
        <pt x="57" y="720" on="1"/>
        <pt x="165" y="720" on="1"/>
        <pt x="165" y="0" on="1"/>
      </contour>
      <contour>
        <pt x="144" y="982" on="1"/>
        <pt x="184" y="820" on="1"/>
        <pt x="76" y="820" on="1"/>
        <pt x="36" y="982" on="1"/>
      </contour>
    </TTGlyph>
    <TTGlyph name="J" xMin="4" yMin="0" xMax="724" yMax="720">
      <contour>
        <pt x="616" y="130" on="1"/>
        <pt x="616" y="720" on="1"/>
        <pt x="724" y="720" on="1"/>
        <pt x="724" y="130" on="1"/>
        <pt x="724" y="76" on="0"/>
        <pt x="648" y="0" on="0"/>
        <pt x="594" y="0" on="1"/>
        <pt x="134" y="0" on="1"/>
        <pt x="80" y="0" on="0"/>
        <pt x="4" y="76" on="0"/>
        <pt x="4" y="130" on="1"/>
        <pt x="4" y="200" on="1"/>
        <pt x="112" y="200" on="1"/>
        <pt x="112" y="130" on="1"/>
        <pt x="112" y="121" on="0"/>
        <pt x="125" y="108" on="0"/>
        <pt x="134" y="108" on="1"/>
        <pt x="594" y="108" on="1"/>
        <pt x="603" y="108" on="0"/>
        <pt x="616" y="121" on="0"/>
      </contour>
    </TTGlyph>
    <TTGlyph name="J.alt" xMin="3" yMin="0" xMax="593" yMax="720">
      <contour>
        <pt x="485" y="130" on="1"/>
        <pt x="485" y="720" on="1"/>
        <pt x="593" y="720" on="1"/>
        <pt x="593" y="130" on="1"/>
        <pt x="593" y="76" on="0"/>
        <pt x="517" y="0" on="0"/>
        <pt x="463" y="0" on="1"/>
        <pt x="3" y="0" on="1"/>
        <pt x="3" y="108" on="1"/>
        <pt x="463" y="108" on="1"/>
        <pt x="472" y="108" on="0"/>
        <pt x="485" y="121" on="0"/>
      </contour>
    </TTGlyph>
    <TTGlyph name="K" xMin="57" yMin="0" xMax="750" yMax="720">
      <contour>
        <pt x="622" y="720" on="1"/>
        <pt x="750" y="720" on="1"/>
        <pt x="750" y="705" on="1"/>
        <pt x="461" y="360" on="1"/>
        <pt x="750" y="15" on="1"/>
        <pt x="750" y="0" on="1"/>
        <pt x="622" y="0" on="1"/>
        <pt x="365" y="306" on="1"/>
        <pt x="165" y="306" on="1"/>
        <pt x="165" y="0" on="1"/>
        <pt x="57" y="0" on="1"/>
        <pt x="57" y="720" on="1"/>
        <pt x="165" y="720" on="1"/>
        <pt x="165" y="414" on="1"/>
        <pt x="365" y="414" on="1"/>
      </contour>
    </TTGlyph>
    <TTGlyph name="K.alt" xMin="54" yMin="0" xMax="775" yMax="720">
      <contour>
        <pt x="667" y="433" on="1"/>
        <pt x="667" y="720" on="1"/>
        <pt x="775" y="720" on="1"/>
        <pt x="775" y="453" on="1"/>
        <pt x="775" y="416" on="0"/>
        <pt x="690" y="357" on="0"/>
        <pt x="627" y="357" on="1"/>
        <pt x="690" y="357" on="0"/>
        <pt x="774" y="299" on="0"/>
        <pt x="774" y="261" on="1"/>
        <pt x="774" y="0" on="1"/>
        <pt x="666" y="0" on="1"/>
        <pt x="666" y="281" on="1"/>
        <pt x="666" y="290" on="0"/>
        <pt x="653" y="303" on="0"/>
        <pt x="644" y="303" on="1"/>
        <pt x="184" y="303" on="1"/>
        <pt x="175" y="303" on="0"/>
        <pt x="162" y="290" on="0"/>
        <pt x="162" y="281" on="1"/>
        <pt x="162" y="0" on="1"/>
        <pt x="54" y="0" on="1"/>
        <pt x="54" y="720" on="1"/>
        <pt x="162" y="720" on="1"/>
        <pt x="162" y="433" on="1"/>
        <pt x="162" y="424" on="0"/>
        <pt x="175" y="411" on="0"/>
        <pt x="184" y="411" on="1"/>
        <pt x="645" y="411" on="1"/>
        <pt x="654" y="411" on="0"/>
        <pt x="667" y="424" on="0"/>
      </contour>
    </TTGlyph>
    <TTGlyph name="L" xMin="57" yMin="0" xMax="777" yMax="721">
      <contour>
        <pt x="57" y="0" on="1"/>
        <pt x="57" y="721" on="1"/>
        <pt x="165" y="721" on="1"/>
        <pt x="165" y="108" on="1"/>
        <pt x="777" y="108" on="1"/>
        <pt x="777" y="0" on="1"/>
      </contour>
    </TTGlyph>
    <TTGlyph name="M" xMin="56" yMin="0" xMax="872" yMax="720">
      <contour>
        <pt x="464" y="387" on="1"/>
        <pt x="743" y="720" on="1"/>
        <pt x="872" y="720" on="1"/>
        <pt x="872" y="0" on="1"/>
        <pt x="764" y="0" on="1"/>
        <pt x="764" y="576" on="1"/>
        <pt x="464" y="219" on="1"/>
        <pt x="164" y="576" on="1"/>
        <pt x="164" y="0" on="1"/>
        <pt x="56" y="0" on="1"/>
        <pt x="56" y="720" on="1"/>
        <pt x="184" y="720" on="1"/>
      </contour>
    </TTGlyph>
    <TTGlyph name="M.alt" xMin="54" yMin="0" xMax="1102" yMax="720">
      <contour>
        <pt x="972" y="720" on="1"/>
        <pt x="1026" y="720" on="0"/>
        <pt x="1102" y="644" on="0"/>
        <pt x="1102" y="590" on="1"/>
        <pt x="1102" y="0" on="1"/>
        <pt x="994" y="0" on="1"/>
        <pt x="994" y="590" on="1"/>
        <pt x="994" y="599" on="0"/>
        <pt x="981" y="612" on="0"/>
        <pt x="972" y="612" on="1"/>
        <pt x="620" y="612" on="1"/>
        <pt x="620" y="0" on="1"/>
        <pt x="512" y="0" on="1"/>
        <pt x="512" y="590" on="1"/>
        <pt x="512" y="599" on="0"/>
        <pt x="499" y="612" on="0"/>
        <pt x="490" y="612" on="1"/>
        <pt x="162" y="612" on="1"/>
        <pt x="162" y="0" on="1"/>
        <pt x="54" y="0" on="1"/>
        <pt x="54" y="720" on="1"/>
      </contour>
    </TTGlyph>
    <TTGlyph name="N" xMin="56" yMin="0" xMax="776" yMax="720">
      <contour>
        <pt x="668" y="144" on="1"/>
        <pt x="668" y="720" on="1"/>
        <pt x="776" y="720" on="1"/>
        <pt x="776" y="0" on="1"/>
        <pt x="648" y="0" on="1"/>
        <pt x="164" y="576" on="1"/>
        <pt x="164" y="0" on="1"/>
        <pt x="56" y="0" on="1"/>
        <pt x="56" y="720" on="1"/>
        <pt x="184" y="720" on="1"/>
      </contour>
    </TTGlyph>
    <TTGlyph name="N.alt" xMin="54" yMin="0" xMax="774" yMax="720">
      <contour>
        <pt x="162" y="0" on="1"/>
        <pt x="54" y="0" on="1"/>
        <pt x="54" y="720" on="1"/>
        <pt x="644" y="720" on="1"/>
        <pt x="698" y="720" on="0"/>
        <pt x="774" y="644" on="0"/>
        <pt x="774" y="590" on="1"/>
        <pt x="774" y="0" on="1"/>
        <pt x="666" y="0" on="1"/>
        <pt x="666" y="590" on="1"/>
        <pt x="666" y="599" on="0"/>
        <pt x="653" y="612" on="0"/>
        <pt x="644" y="612" on="1"/>
        <pt x="162" y="612" on="1"/>
      </contour>
    </TTGlyph>
    <TTGlyph name="Ntilde" xMin="56" yMin="0" xMax="776" yMax="958">
      <contour>
        <pt x="668" y="144" on="1"/>
        <pt x="668" y="720" on="1"/>
        <pt x="776" y="720" on="1"/>
        <pt x="776" y="0" on="1"/>
        <pt x="648" y="0" on="1"/>
        <pt x="164" y="576" on="1"/>
        <pt x="164" y="0" on="1"/>
        <pt x="56" y="0" on="1"/>
        <pt x="56" y="720" on="1"/>
        <pt x="184" y="720" on="1"/>
      </contour>
      <contour>
        <pt x="514" y="890" on="1"/>
        <pt x="553" y="890" on="0"/>
        <pt x="592" y="916" on="1"/>
        <pt x="592" y="842" on="1"/>
        <pt x="550" y="824" on="0"/>
        <pt x="514" y="824" on="1"/>
        <pt x="479" y="824" on="0"/>
        <pt x="353" y="892" on="0"/>
        <pt x="314" y="892" on="1"/>
        <pt x="254" y="892" on="0"/>
        <pt x="240" y="869" on="1"/>
        <pt x="240" y="944" on="1"/>
        <pt x="273" y="958" on="0"/>
        <pt x="314" y="958" on="1"/>
        <pt x="353" y="958" on="0"/>
        <pt x="480" y="894" on="0"/>
      </contour>
    </TTGlyph>
    <TTGlyph name="O" xMin="54" yMin="0" xMax="774" yMax="720">
      <contour>
        <pt x="184" y="720" on="1"/>
        <pt x="644" y="720" on="1"/>
        <pt x="698" y="720" on="0"/>
        <pt x="774" y="644" on="0"/>
        <pt x="774" y="590" on="1"/>
        <pt x="774" y="130" on="1"/>
        <pt x="774" y="76" on="0"/>
        <pt x="698" y="0" on="0"/>
        <pt x="644" y="0" on="1"/>
        <pt x="184" y="0" on="1"/>
        <pt x="130" y="0" on="0"/>
        <pt x="54" y="76" on="0"/>
        <pt x="54" y="130" on="1"/>
        <pt x="54" y="590" on="1"/>
        <pt x="54" y="644" on="0"/>
        <pt x="130" y="720" on="0"/>
      </contour>
      <contour>
        <pt x="184" y="108" on="1"/>
        <pt x="644" y="108" on="1"/>
        <pt x="653" y="108" on="0"/>
        <pt x="666" y="121" on="0"/>
        <pt x="666" y="130" on="1"/>
        <pt x="666" y="590" on="1"/>
        <pt x="666" y="599" on="0"/>
        <pt x="653" y="612" on="0"/>
        <pt x="644" y="612" on="1"/>
        <pt x="184" y="612" on="1"/>
        <pt x="175" y="612" on="0"/>
        <pt x="162" y="599" on="0"/>
        <pt x="162" y="590" on="1"/>
        <pt x="162" y="130" on="1"/>
        <pt x="162" y="121" on="0"/>
        <pt x="175" y="108" on="0"/>
      </contour>
    </TTGlyph>
    <TTGlyph name="O.alt" xMin="52" yMin="0" xMax="772" yMax="720">
      <contour>
        <pt x="182" y="720" on="1"/>
        <pt x="642" y="720" on="1"/>
        <pt x="696" y="720" on="0"/>
        <pt x="772" y="644" on="0"/>
        <pt x="772" y="590" on="1"/>
        <pt x="772" y="130" on="1"/>
        <pt x="772" y="76" on="0"/>
        <pt x="696" y="0" on="0"/>
        <pt x="642" y="0" on="1"/>
        <pt x="182" y="0" on="1"/>
        <pt x="128" y="0" on="0"/>
        <pt x="52" y="76" on="0"/>
        <pt x="52" y="130" on="1"/>
        <pt x="52" y="590" on="1"/>
        <pt x="52" y="644" on="0"/>
        <pt x="128" y="720" on="0"/>
      </contour>
      <contour>
        <pt x="664" y="130" on="1"/>
        <pt x="664" y="590" on="1"/>
        <pt x="664" y="599" on="0"/>
        <pt x="651" y="612" on="0"/>
        <pt x="642" y="612" on="1"/>
        <pt x="182" y="612" on="1"/>
        <pt x="173" y="612" on="0"/>
        <pt x="160" y="599" on="0"/>
        <pt x="160" y="590" on="1"/>
        <pt x="160" y="130" on="1"/>
        <pt x="160" y="121" on="0"/>
        <pt x="173" y="108" on="0"/>
        <pt x="182" y="108" on="1"/>
        <pt x="642" y="108" on="1"/>
        <pt x="651" y="108" on="0"/>
        <pt x="664" y="121" on="0"/>
      </contour>
      <contour>
        <pt x="466" y="306" on="1"/>
        <pt x="358" y="306" on="1"/>
        <pt x="358" y="414" on="1"/>
        <pt x="466" y="414" on="1"/>
      </contour>
    </TTGlyph>
    <TTGlyph name="OE" xMin="53" yMin="0" xMax="1325" yMax="720">
      <contour>
        <pt x="773" y="612" on="1"/>
        <pt x="773" y="414" on="1"/>
        <pt x="1217" y="414" on="1"/>
        <pt x="1217" y="306" on="1"/>
        <pt x="773" y="306" on="1"/>
        <pt x="773" y="108" on="1"/>
        <pt x="1325" y="108" on="1"/>
        <pt x="1325" y="0" on="1"/>
        <pt x="183" y="0" on="1"/>
        <pt x="129" y="0" on="0"/>
        <pt x="53" y="76" on="0"/>
        <pt x="53" y="130" on="1"/>
        <pt x="53" y="590" on="1"/>
        <pt x="53" y="644" on="0"/>
        <pt x="129" y="720" on="0"/>
        <pt x="183" y="720" on="1"/>
        <pt x="1325" y="720" on="1"/>
        <pt x="1325" y="612" on="1"/>
      </contour>
      <contour>
        <pt x="643" y="108" on="1"/>
        <pt x="652" y="108" on="0"/>
        <pt x="665" y="121" on="0"/>
        <pt x="665" y="130" on="1"/>
        <pt x="665" y="590" on="1"/>
        <pt x="665" y="599" on="0"/>
        <pt x="652" y="612" on="0"/>
        <pt x="643" y="612" on="1"/>
        <pt x="183" y="612" on="1"/>
        <pt x="174" y="612" on="0"/>
        <pt x="161" y="599" on="0"/>
        <pt x="161" y="590" on="1"/>
        <pt x="161" y="130" on="1"/>
        <pt x="161" y="121" on="0"/>
        <pt x="174" y="108" on="0"/>
        <pt x="183" y="108" on="1"/>
      </contour>
    </TTGlyph>
    <TTGlyph name="Oacute" xMin="54" yMin="0" xMax="774" yMax="982">
      <contour>
        <pt x="184" y="720" on="1"/>
        <pt x="644" y="720" on="1"/>
        <pt x="698" y="720" on="0"/>
        <pt x="774" y="644" on="0"/>
        <pt x="774" y="590" on="1"/>
        <pt x="774" y="130" on="1"/>
        <pt x="774" y="76" on="0"/>
        <pt x="698" y="0" on="0"/>
        <pt x="644" y="0" on="1"/>
        <pt x="184" y="0" on="1"/>
        <pt x="130" y="0" on="0"/>
        <pt x="54" y="76" on="0"/>
        <pt x="54" y="130" on="1"/>
        <pt x="54" y="590" on="1"/>
        <pt x="54" y="644" on="0"/>
        <pt x="130" y="720" on="0"/>
      </contour>
      <contour>
        <pt x="184" y="108" on="1"/>
        <pt x="644" y="108" on="1"/>
        <pt x="653" y="108" on="0"/>
        <pt x="666" y="121" on="0"/>
        <pt x="666" y="130" on="1"/>
        <pt x="666" y="590" on="1"/>
        <pt x="666" y="599" on="0"/>
        <pt x="653" y="612" on="0"/>
        <pt x="644" y="612" on="1"/>
        <pt x="184" y="612" on="1"/>
        <pt x="175" y="612" on="0"/>
        <pt x="162" y="599" on="0"/>
        <pt x="162" y="590" on="1"/>
        <pt x="162" y="130" on="1"/>
        <pt x="162" y="121" on="0"/>
        <pt x="175" y="108" on="0"/>
      </contour>
      <contour>
        <pt x="340" y="820" on="1"/>
        <pt x="380" y="982" on="1"/>
        <pt x="488" y="982" on="1"/>
        <pt x="448" y="820" on="1"/>
      </contour>
    </TTGlyph>
    <TTGlyph name="Ocircumflex" xMin="54" yMin="0" xMax="774" yMax="960">
      <contour>
        <pt x="184" y="720" on="1"/>
        <pt x="644" y="720" on="1"/>
        <pt x="698" y="720" on="0"/>
        <pt x="774" y="644" on="0"/>
        <pt x="774" y="590" on="1"/>
        <pt x="774" y="130" on="1"/>
        <pt x="774" y="76" on="0"/>
        <pt x="698" y="0" on="0"/>
        <pt x="644" y="0" on="1"/>
        <pt x="184" y="0" on="1"/>
        <pt x="130" y="0" on="0"/>
        <pt x="54" y="76" on="0"/>
        <pt x="54" y="130" on="1"/>
        <pt x="54" y="590" on="1"/>
        <pt x="54" y="644" on="0"/>
        <pt x="130" y="720" on="0"/>
      </contour>
      <contour>
        <pt x="184" y="108" on="1"/>
        <pt x="644" y="108" on="1"/>
        <pt x="653" y="108" on="0"/>
        <pt x="666" y="121" on="0"/>
        <pt x="666" y="130" on="1"/>
        <pt x="666" y="590" on="1"/>
        <pt x="666" y="599" on="0"/>
        <pt x="653" y="612" on="0"/>
        <pt x="644" y="612" on="1"/>
        <pt x="184" y="612" on="1"/>
        <pt x="175" y="612" on="0"/>
        <pt x="162" y="599" on="0"/>
        <pt x="162" y="590" on="1"/>
        <pt x="162" y="130" on="1"/>
        <pt x="162" y="121" on="0"/>
        <pt x="175" y="108" on="0"/>
      </contour>
      <contour>
        <pt x="366" y="819" on="1"/>
        <pt x="292" y="819" on="1"/>
        <pt x="377" y="960" on="1"/>
        <pt x="451" y="960" on="1"/>
        <pt x="536" y="819" on="1"/>
        <pt x="461" y="819" on="1"/>
        <pt x="414" y="895" on="1"/>
      </contour>
    </TTGlyph>
    <TTGlyph name="Odieresis" xMin="54" yMin="0" xMax="774" yMax="928">
      <contour>
        <pt x="184" y="720" on="1"/>
        <pt x="644" y="720" on="1"/>
        <pt x="698" y="720" on="0"/>
        <pt x="774" y="644" on="0"/>
        <pt x="774" y="590" on="1"/>
        <pt x="774" y="130" on="1"/>
        <pt x="774" y="76" on="0"/>
        <pt x="698" y="0" on="0"/>
        <pt x="644" y="0" on="1"/>
        <pt x="184" y="0" on="1"/>
        <pt x="130" y="0" on="0"/>
        <pt x="54" y="76" on="0"/>
        <pt x="54" y="130" on="1"/>
        <pt x="54" y="590" on="1"/>
        <pt x="54" y="644" on="0"/>
        <pt x="130" y="720" on="0"/>
      </contour>
      <contour>
        <pt x="184" y="108" on="1"/>
        <pt x="644" y="108" on="1"/>
        <pt x="653" y="108" on="0"/>
        <pt x="666" y="121" on="0"/>
        <pt x="666" y="130" on="1"/>
        <pt x="666" y="590" on="1"/>
        <pt x="666" y="599" on="0"/>
        <pt x="653" y="612" on="0"/>
        <pt x="644" y="612" on="1"/>
        <pt x="184" y="612" on="1"/>
        <pt x="175" y="612" on="0"/>
        <pt x="162" y="599" on="0"/>
        <pt x="162" y="590" on="1"/>
        <pt x="162" y="130" on="1"/>
        <pt x="162" y="121" on="0"/>
        <pt x="175" y="108" on="0"/>
      </contour>
      <contour>
        <pt x="553" y="928" on="1"/>
        <pt x="553" y="820" on="1"/>
        <pt x="445" y="820" on="1"/>
        <pt x="445" y="928" on="1"/>
      </contour>
      <contour>
        <pt x="383" y="928" on="1"/>
        <pt x="383" y="820" on="1"/>
        <pt x="275" y="820" on="1"/>
        <pt x="275" y="928" on="1"/>
      </contour>
    </TTGlyph>
    <TTGlyph name="Ograve" xMin="54" yMin="0" xMax="774" yMax="982">
      <contour>
        <pt x="184" y="720" on="1"/>
        <pt x="644" y="720" on="1"/>
        <pt x="698" y="720" on="0"/>
        <pt x="774" y="644" on="0"/>
        <pt x="774" y="590" on="1"/>
        <pt x="774" y="130" on="1"/>
        <pt x="774" y="76" on="0"/>
        <pt x="698" y="0" on="0"/>
        <pt x="644" y="0" on="1"/>
        <pt x="184" y="0" on="1"/>
        <pt x="130" y="0" on="0"/>
        <pt x="54" y="76" on="0"/>
        <pt x="54" y="130" on="1"/>
        <pt x="54" y="590" on="1"/>
        <pt x="54" y="644" on="0"/>
        <pt x="130" y="720" on="0"/>
      </contour>
      <contour>
        <pt x="184" y="108" on="1"/>
        <pt x="644" y="108" on="1"/>
        <pt x="653" y="108" on="0"/>
        <pt x="666" y="121" on="0"/>
        <pt x="666" y="130" on="1"/>
        <pt x="666" y="590" on="1"/>
        <pt x="666" y="599" on="0"/>
        <pt x="653" y="612" on="0"/>
        <pt x="644" y="612" on="1"/>
        <pt x="184" y="612" on="1"/>
        <pt x="175" y="612" on="0"/>
        <pt x="162" y="599" on="0"/>
        <pt x="162" y="590" on="1"/>
        <pt x="162" y="130" on="1"/>
        <pt x="162" y="121" on="0"/>
        <pt x="175" y="108" on="0"/>
      </contour>
      <contour>
        <pt x="448" y="982" on="1"/>
        <pt x="488" y="820" on="1"/>
        <pt x="380" y="820" on="1"/>
        <pt x="340" y="982" on="1"/>
      </contour>
    </TTGlyph>
    <TTGlyph name="Otilde" xMin="54" yMin="0" xMax="774" yMax="958">
      <contour>
        <pt x="184" y="720" on="1"/>
        <pt x="644" y="720" on="1"/>
        <pt x="698" y="720" on="0"/>
        <pt x="774" y="644" on="0"/>
        <pt x="774" y="590" on="1"/>
        <pt x="774" y="130" on="1"/>
        <pt x="774" y="76" on="0"/>
        <pt x="698" y="0" on="0"/>
        <pt x="644" y="0" on="1"/>
        <pt x="184" y="0" on="1"/>
        <pt x="130" y="0" on="0"/>
        <pt x="54" y="76" on="0"/>
        <pt x="54" y="130" on="1"/>
        <pt x="54" y="590" on="1"/>
        <pt x="54" y="644" on="0"/>
        <pt x="130" y="720" on="0"/>
      </contour>
      <contour>
        <pt x="184" y="108" on="1"/>
        <pt x="644" y="108" on="1"/>
        <pt x="653" y="108" on="0"/>
        <pt x="666" y="121" on="0"/>
        <pt x="666" y="130" on="1"/>
        <pt x="666" y="590" on="1"/>
        <pt x="666" y="599" on="0"/>
        <pt x="653" y="612" on="0"/>
        <pt x="644" y="612" on="1"/>
        <pt x="184" y="612" on="1"/>
        <pt x="175" y="612" on="0"/>
        <pt x="162" y="599" on="0"/>
        <pt x="162" y="590" on="1"/>
        <pt x="162" y="130" on="1"/>
        <pt x="162" y="121" on="0"/>
        <pt x="175" y="108" on="0"/>
      </contour>
      <contour>
        <pt x="512" y="890" on="1"/>
        <pt x="551" y="890" on="0"/>
        <pt x="590" y="916" on="1"/>
        <pt x="590" y="842" on="1"/>
        <pt x="548" y="824" on="0"/>
        <pt x="512" y="824" on="1"/>
        <pt x="477" y="824" on="0"/>
        <pt x="351" y="892" on="0"/>
        <pt x="312" y="892" on="1"/>
        <pt x="252" y="892" on="0"/>
        <pt x="238" y="869" on="1"/>
        <pt x="238" y="944" on="1"/>
        <pt x="271" y="958" on="0"/>
        <pt x="312" y="958" on="1"/>
        <pt x="351" y="958" on="0"/>
        <pt x="478" y="894" on="0"/>
      </contour>
    </TTGlyph>
    <TTGlyph name="P" xMin="56" yMin="0" xMax="776" yMax="719">
      <contour>
        <pt x="56" y="719" on="1"/>
        <pt x="646" y="719" on="1"/>
        <pt x="700" y="719" on="0"/>
        <pt x="776" y="642" on="0"/>
        <pt x="776" y="589" on="1"/>
        <pt x="776" y="387" on="1"/>
        <pt x="776" y="334" on="0"/>
        <pt x="700" y="257" on="0"/>
        <pt x="646" y="257" on="1"/>
        <pt x="186" y="257" on="1"/>
        <pt x="178" y="257" on="0"/>
        <pt x="164" y="259" on="1"/>
        <pt x="164" y="0" on="1"/>
        <pt x="56" y="0" on="1"/>
      </contour>
      <contour>
        <pt x="668" y="387" on="1"/>
        <pt x="668" y="589" on="1"/>
        <pt x="668" y="598" on="0"/>
        <pt x="655" y="611" on="0"/>
        <pt x="646" y="611" on="1"/>
        <pt x="186" y="611" on="1"/>
        <pt x="177" y="611" on="0"/>
        <pt x="164" y="598" on="0"/>
        <pt x="164" y="589" on="1"/>
        <pt x="164" y="387" on="1"/>
        <pt x="164" y="378" on="0"/>
        <pt x="177" y="365" on="0"/>
        <pt x="186" y="365" on="1"/>
        <pt x="646" y="365" on="1"/>
        <pt x="655" y="365" on="0"/>
        <pt x="668" y="378" on="0"/>
      </contour>
    </TTGlyph>
    <TTGlyph name="Q" xMin="54" yMin="0" xMax="864" yMax="720">
      <contour>
        <pt x="772" y="108" on="1"/>
        <pt x="864" y="108" on="1"/>
        <pt x="864" y="0" on="1"/>
        <pt x="184" y="0" on="1"/>
        <pt x="130" y="0" on="0"/>
        <pt x="54" y="76" on="0"/>
        <pt x="54" y="130" on="1"/>
        <pt x="54" y="590" on="1"/>
        <pt x="54" y="644" on="0"/>
        <pt x="130" y="720" on="0"/>
        <pt x="184" y="720" on="1"/>
        <pt x="644" y="720" on="1"/>
        <pt x="698" y="720" on="0"/>
        <pt x="774" y="644" on="0"/>
        <pt x="774" y="590" on="1"/>
        <pt x="774" y="130" on="1"/>
        <pt x="774" y="122" on="0"/>
      </contour>
      <contour>
        <pt x="184" y="108" on="1"/>
        <pt x="644" y="108" on="1"/>
        <pt x="653" y="108" on="0"/>
        <pt x="666" y="121" on="0"/>
        <pt x="666" y="130" on="1"/>
        <pt x="666" y="590" on="1"/>
        <pt x="666" y="599" on="0"/>
        <pt x="653" y="612" on="0"/>
        <pt x="644" y="612" on="1"/>
        <pt x="184" y="612" on="1"/>
        <pt x="175" y="612" on="0"/>
        <pt x="162" y="599" on="0"/>
        <pt x="162" y="590" on="1"/>
        <pt x="162" y="130" on="1"/>
        <pt x="162" y="121" on="0"/>
        <pt x="175" y="108" on="0"/>
      </contour>
    </TTGlyph>
    <TTGlyph name="Q.alt" xMin="54" yMin="-108" xMax="774" yMax="720">
      <contour>
        <pt x="644" y="720" on="1"/>
        <pt x="698" y="720" on="0"/>
        <pt x="774" y="644" on="0"/>
        <pt x="774" y="590" on="1"/>
        <pt x="774" y="130" on="1"/>
        <pt x="774" y="76" on="0"/>
        <pt x="698" y="0" on="0"/>
        <pt x="644" y="0" on="1"/>
        <pt x="468" y="0" on="1"/>
        <pt x="468" y="-108" on="1"/>
        <pt x="360" y="-108" on="1"/>
        <pt x="360" y="0" on="1"/>
        <pt x="184" y="0" on="1"/>
        <pt x="130" y="0" on="0"/>
        <pt x="54" y="76" on="0"/>
        <pt x="54" y="130" on="1"/>
        <pt x="54" y="590" on="1"/>
        <pt x="54" y="644" on="0"/>
        <pt x="130" y="720" on="0"/>
        <pt x="184" y="720" on="1"/>
      </contour>
      <contour>
        <pt x="666" y="130" on="1"/>
        <pt x="666" y="590" on="1"/>
        <pt x="666" y="599" on="0"/>
        <pt x="653" y="612" on="0"/>
        <pt x="644" y="612" on="1"/>
        <pt x="184" y="612" on="1"/>
        <pt x="175" y="612" on="0"/>
        <pt x="162" y="599" on="0"/>
        <pt x="162" y="590" on="1"/>
        <pt x="162" y="130" on="1"/>
        <pt x="162" y="121" on="0"/>
        <pt x="175" y="108" on="0"/>
        <pt x="184" y="108" on="1"/>
        <pt x="644" y="108" on="1"/>
        <pt x="653" y="108" on="0"/>
        <pt x="666" y="121" on="0"/>
      </contour>
    </TTGlyph>
    <TTGlyph name="R" xMin="55" yMin="0" xMax="775" yMax="719">
      <contour>
        <pt x="775" y="589" on="1"/>
        <pt x="775" y="387" on="1"/>
        <pt x="775" y="334" on="0"/>
        <pt x="699" y="257" on="0"/>
        <pt x="645" y="257" on="1"/>
        <pt x="572" y="257" on="1"/>
        <pt x="775" y="15" on="1"/>
        <pt x="775" y="0" on="1"/>
        <pt x="647" y="0" on="1"/>
        <pt x="431" y="257" on="1"/>
        <pt x="185" y="257" on="1"/>
        <pt x="177" y="257" on="0"/>
        <pt x="163" y="259" on="1"/>
        <pt x="163" y="0" on="1"/>
        <pt x="55" y="0" on="1"/>
        <pt x="55" y="719" on="1"/>
        <pt x="645" y="719" on="1"/>
        <pt x="699" y="719" on="0"/>
        <pt x="775" y="642" on="0"/>
      </contour>
      <contour>
        <pt x="185" y="365" on="1"/>
        <pt x="645" y="365" on="1"/>
        <pt x="654" y="365" on="0"/>
        <pt x="667" y="378" on="0"/>
        <pt x="667" y="387" on="1"/>
        <pt x="667" y="589" on="1"/>
        <pt x="667" y="598" on="0"/>
        <pt x="654" y="611" on="0"/>
        <pt x="645" y="611" on="1"/>
        <pt x="185" y="611" on="1"/>
        <pt x="176" y="611" on="0"/>
        <pt x="163" y="598" on="0"/>
        <pt x="163" y="589" on="1"/>
        <pt x="163" y="387" on="1"/>
        <pt x="163" y="378" on="0"/>
        <pt x="176" y="365" on="0"/>
      </contour>
    </TTGlyph>
    <TTGlyph name="R.alt" xMin="54" yMin="0" xMax="774" yMax="720">
      <contour>
        <pt x="774" y="589" on="1"/>
        <pt x="774" y="387" on="1"/>
        <pt x="774" y="363" on="0"/>
        <pt x="747" y="330" on="0"/>
        <pt x="705" y="316" on="0"/>
        <pt x="672" y="311" on="0"/>
        <pt x="656" y="311" on="1"/>
        <pt x="672" y="311" on="0"/>
        <pt x="705" y="306" on="0"/>
        <pt x="748" y="292" on="0"/>
        <pt x="774" y="259" on="0"/>
        <pt x="774" y="235" on="1"/>
        <pt x="774" y="0" on="1"/>
        <pt x="666" y="0" on="1"/>
        <pt x="666" y="235" on="1"/>
        <pt x="666" y="244" on="0"/>
        <pt x="653" y="257" on="0"/>
        <pt x="644" y="257" on="1"/>
        <pt x="184" y="257" on="1"/>
        <pt x="175" y="257" on="0"/>
        <pt x="162" y="244" on="0"/>
        <pt x="162" y="235" on="1"/>
        <pt x="162" y="0" on="1"/>
        <pt x="54" y="0" on="1"/>
        <pt x="54" y="720" on="1"/>
        <pt x="644" y="719" on="1"/>
        <pt x="698" y="719" on="0"/>
        <pt x="774" y="642" on="0"/>
      </contour>
      <contour>
        <pt x="644" y="611" on="1"/>
        <pt x="184" y="611" on="1"/>
        <pt x="175" y="611" on="0"/>
        <pt x="162" y="598" on="0"/>
        <pt x="162" y="589" on="1"/>
        <pt x="162" y="387" on="1"/>
        <pt x="162" y="378" on="0"/>
        <pt x="175" y="365" on="0"/>
        <pt x="184" y="365" on="1"/>
        <pt x="644" y="365" on="1"/>
        <pt x="653" y="365" on="0"/>
        <pt x="666" y="378" on="0"/>
        <pt x="666" y="387" on="1"/>
        <pt x="666" y="589" on="1"/>
        <pt x="666" y="598" on="0"/>
        <pt x="653" y="611" on="0"/>
      </contour>
    </TTGlyph>
    <TTGlyph name="S" xMin="51" yMin="0" xMax="771" yMax="720">
      <contour>
        <pt x="771" y="590" on="1"/>
        <pt x="771" y="548" on="1"/>
        <pt x="663" y="548" on="1"/>
        <pt x="663" y="590" on="1"/>
        <pt x="663" y="599" on="0"/>
        <pt x="650" y="612" on="0"/>
        <pt x="641" y="612" on="1"/>
        <pt x="181" y="612" on="1"/>
        <pt x="172" y="612" on="0"/>
        <pt x="159" y="599" on="0"/>
        <pt x="159" y="590" on="1"/>
        <pt x="159" y="436" on="1"/>
        <pt x="159" y="427" on="0"/>
        <pt x="172" y="414" on="0"/>
        <pt x="181" y="414" on="1"/>
        <pt x="641" y="414" on="1"/>
        <pt x="695" y="414" on="0"/>
        <pt x="771" y="338" on="0"/>
        <pt x="771" y="284" on="1"/>
        <pt x="771" y="130" on="1"/>
        <pt x="771" y="76" on="0"/>
        <pt x="695" y="0" on="0"/>
        <pt x="641" y="0" on="1"/>
        <pt x="181" y="0" on="1"/>
        <pt x="127" y="0" on="0"/>
        <pt x="51" y="76" on="0"/>
        <pt x="51" y="130" on="1"/>
        <pt x="51" y="172" on="1"/>
        <pt x="159" y="172" on="1"/>
        <pt x="159" y="130" on="1"/>
        <pt x="159" y="121" on="0"/>
        <pt x="172" y="108" on="0"/>
        <pt x="181" y="108" on="1"/>
        <pt x="641" y="108" on="1"/>
        <pt x="650" y="108" on="0"/>
        <pt x="663" y="121" on="0"/>
        <pt x="663" y="130" on="1"/>
        <pt x="663" y="284" on="1"/>
        <pt x="663" y="293" on="0"/>
        <pt x="650" y="306" on="0"/>
        <pt x="641" y="306" on="1"/>
        <pt x="181" y="306" on="1"/>
        <pt x="127" y="306" on="0"/>
        <pt x="51" y="382" on="0"/>
        <pt x="51" y="436" on="1"/>
        <pt x="51" y="590" on="1"/>
        <pt x="51" y="644" on="0"/>
        <pt x="127" y="720" on="0"/>
        <pt x="181" y="720" on="1"/>
        <pt x="641" y="720" on="1"/>
        <pt x="695" y="720" on="0"/>
        <pt x="771" y="644" on="0"/>
      </contour>
    </TTGlyph>
    <TTGlyph name="S.alt" xMin="46" yMin="0" xMax="766" yMax="720">
      <contour>
        <pt x="516" y="414" on="1"/>
        <pt x="636" y="414" on="1"/>
        <pt x="690" y="414" on="0"/>
        <pt x="766" y="338" on="0"/>
        <pt x="766" y="284" on="1"/>
        <pt x="766" y="130" on="1"/>
        <pt x="766" y="76" on="0"/>
        <pt x="690" y="0" on="0"/>
        <pt x="636" y="0" on="1"/>
        <pt x="46" y="0" on="1"/>
        <pt x="46" y="108" on="1"/>
        <pt x="636" y="108" on="1"/>
        <pt x="645" y="108" on="0"/>
        <pt x="658" y="121" on="0"/>
        <pt x="658" y="130" on="1"/>
        <pt x="658" y="284" on="1"/>
        <pt x="658" y="293" on="0"/>
        <pt x="645" y="306" on="0"/>
        <pt x="636" y="306" on="1"/>
        <pt x="176" y="306" on="1"/>
        <pt x="122" y="306" on="0"/>
        <pt x="46" y="382" on="0"/>
        <pt x="46" y="436" on="1"/>
        <pt x="46" y="590" on="1"/>
        <pt x="46" y="644" on="0"/>
        <pt x="122" y="720" on="0"/>
        <pt x="176" y="720" on="1"/>
        <pt x="766" y="720" on="1"/>
        <pt x="766" y="612" on="1"/>
        <pt x="176" y="612" on="1"/>
        <pt x="167" y="612" on="0"/>
        <pt x="154" y="599" on="0"/>
        <pt x="154" y="590" on="1"/>
        <pt x="154" y="436" on="1"/>
        <pt x="154" y="427" on="0"/>
        <pt x="167" y="414" on="0"/>
        <pt x="176" y="414" on="1"/>
      </contour>
    </TTGlyph>
    <TTGlyph name="Scaron" xMin="51" yMin="0" xMax="771" yMax="960">
      <contour>
        <pt x="771" y="590" on="1"/>
        <pt x="771" y="548" on="1"/>
        <pt x="663" y="548" on="1"/>
        <pt x="663" y="590" on="1"/>
        <pt x="663" y="599" on="0"/>
        <pt x="650" y="612" on="0"/>
        <pt x="641" y="612" on="1"/>
        <pt x="181" y="612" on="1"/>
        <pt x="172" y="612" on="0"/>
        <pt x="159" y="599" on="0"/>
        <pt x="159" y="590" on="1"/>
        <pt x="159" y="436" on="1"/>
        <pt x="159" y="427" on="0"/>
        <pt x="172" y="414" on="0"/>
        <pt x="181" y="414" on="1"/>
        <pt x="641" y="414" on="1"/>
        <pt x="695" y="414" on="0"/>
        <pt x="771" y="338" on="0"/>
        <pt x="771" y="284" on="1"/>
        <pt x="771" y="130" on="1"/>
        <pt x="771" y="76" on="0"/>
        <pt x="695" y="0" on="0"/>
        <pt x="641" y="0" on="1"/>
        <pt x="181" y="0" on="1"/>
        <pt x="127" y="0" on="0"/>
        <pt x="51" y="76" on="0"/>
        <pt x="51" y="130" on="1"/>
        <pt x="51" y="172" on="1"/>
        <pt x="159" y="172" on="1"/>
        <pt x="159" y="130" on="1"/>
        <pt x="159" y="121" on="0"/>
        <pt x="172" y="108" on="0"/>
        <pt x="181" y="108" on="1"/>
        <pt x="641" y="108" on="1"/>
        <pt x="650" y="108" on="0"/>
        <pt x="663" y="121" on="0"/>
        <pt x="663" y="130" on="1"/>
        <pt x="663" y="284" on="1"/>
        <pt x="663" y="293" on="0"/>
        <pt x="650" y="306" on="0"/>
        <pt x="641" y="306" on="1"/>
        <pt x="181" y="306" on="1"/>
        <pt x="127" y="306" on="0"/>
        <pt x="51" y="382" on="0"/>
        <pt x="51" y="436" on="1"/>
        <pt x="51" y="590" on="1"/>
        <pt x="51" y="644" on="0"/>
        <pt x="127" y="720" on="0"/>
        <pt x="181" y="720" on="1"/>
        <pt x="641" y="720" on="1"/>
        <pt x="695" y="720" on="0"/>
        <pt x="771" y="644" on="0"/>
      </contour>
      <contour>
        <pt x="289" y="960" on="1"/>
        <pt x="363" y="960" on="1"/>
        <pt x="411" y="884" on="1"/>
        <pt x="458" y="960" on="1"/>
        <pt x="533" y="960" on="1"/>
        <pt x="448" y="819" on="1"/>
        <pt x="374" y="819" on="1"/>
      </contour>
    </TTGlyph>
    <TTGlyph name="T" xMin="20" yMin="0" xMax="740" yMax="720">
      <contour>
        <pt x="20" y="720" on="1"/>
        <pt x="740" y="720" on="1"/>
        <pt x="740" y="612" on="1"/>
        <pt x="434" y="612" on="1"/>
        <pt x="434" y="0" on="1"/>
        <pt x="326" y="0" on="1"/>
        <pt x="326" y="612" on="1"/>
        <pt x="20" y="612" on="1"/>
      </contour>
    </TTGlyph>
    <TTGlyph name="U" xMin="54" yMin="0" xMax="774" yMax="720">
      <contour>
        <pt x="666" y="130" on="1"/>
        <pt x="666" y="720" on="1"/>
        <pt x="774" y="720" on="1"/>
        <pt x="774" y="130" on="1"/>
        <pt x="774" y="76" on="0"/>
        <pt x="698" y="0" on="0"/>
        <pt x="644" y="0" on="1"/>
        <pt x="184" y="0" on="1"/>
        <pt x="130" y="0" on="0"/>
        <pt x="54" y="76" on="0"/>
        <pt x="54" y="130" on="1"/>
        <pt x="54" y="720" on="1"/>
        <pt x="162" y="720" on="1"/>
        <pt x="162" y="130" on="1"/>
        <pt x="162" y="121" on="0"/>
        <pt x="175" y="108" on="0"/>
        <pt x="184" y="108" on="1"/>
        <pt x="644" y="108" on="1"/>
        <pt x="653" y="108" on="0"/>
        <pt x="666" y="121" on="0"/>
      </contour>
    </TTGlyph>
    <TTGlyph name="Uacute" xMin="54" yMin="0" xMax="774" yMax="982">
      <contour>
        <pt x="666" y="130" on="1"/>
        <pt x="666" y="720" on="1"/>
        <pt x="774" y="720" on="1"/>
        <pt x="774" y="130" on="1"/>
        <pt x="774" y="76" on="0"/>
        <pt x="698" y="0" on="0"/>
        <pt x="644" y="0" on="1"/>
        <pt x="184" y="0" on="1"/>
        <pt x="130" y="0" on="0"/>
        <pt x="54" y="76" on="0"/>
        <pt x="54" y="130" on="1"/>
        <pt x="54" y="720" on="1"/>
        <pt x="162" y="720" on="1"/>
        <pt x="162" y="130" on="1"/>
        <pt x="162" y="121" on="0"/>
        <pt x="175" y="108" on="0"/>
        <pt x="184" y="108" on="1"/>
        <pt x="644" y="108" on="1"/>
        <pt x="653" y="108" on="0"/>
        <pt x="666" y="121" on="0"/>
      </contour>
      <contour>
        <pt x="340" y="820" on="1"/>
        <pt x="380" y="982" on="1"/>
        <pt x="488" y="982" on="1"/>
        <pt x="448" y="820" on="1"/>
      </contour>
    </TTGlyph>
    <TTGlyph name="Ucircumflex" xMin="54" yMin="0" xMax="774" yMax="960">
      <contour>
        <pt x="666" y="130" on="1"/>
        <pt x="666" y="720" on="1"/>
        <pt x="774" y="720" on="1"/>
        <pt x="774" y="130" on="1"/>
        <pt x="774" y="76" on="0"/>
        <pt x="698" y="0" on="0"/>
        <pt x="644" y="0" on="1"/>
        <pt x="184" y="0" on="1"/>
        <pt x="130" y="0" on="0"/>
        <pt x="54" y="76" on="0"/>
        <pt x="54" y="130" on="1"/>
        <pt x="54" y="720" on="1"/>
        <pt x="162" y="720" on="1"/>
        <pt x="162" y="130" on="1"/>
        <pt x="162" y="121" on="0"/>
        <pt x="175" y="108" on="0"/>
        <pt x="184" y="108" on="1"/>
        <pt x="644" y="108" on="1"/>
        <pt x="653" y="108" on="0"/>
        <pt x="666" y="121" on="0"/>
      </contour>
      <contour>
        <pt x="366" y="819" on="1"/>
        <pt x="292" y="819" on="1"/>
        <pt x="377" y="960" on="1"/>
        <pt x="451" y="960" on="1"/>
        <pt x="536" y="819" on="1"/>
        <pt x="461" y="819" on="1"/>
        <pt x="414" y="895" on="1"/>
      </contour>
    </TTGlyph>
    <TTGlyph name="Udieresis" xMin="54" yMin="0" xMax="774" yMax="928">
      <contour>
        <pt x="666" y="130" on="1"/>
        <pt x="666" y="720" on="1"/>
        <pt x="774" y="720" on="1"/>
        <pt x="774" y="130" on="1"/>
        <pt x="774" y="76" on="0"/>
        <pt x="698" y="0" on="0"/>
        <pt x="644" y="0" on="1"/>
        <pt x="184" y="0" on="1"/>
        <pt x="130" y="0" on="0"/>
        <pt x="54" y="76" on="0"/>
        <pt x="54" y="130" on="1"/>
        <pt x="54" y="720" on="1"/>
        <pt x="162" y="720" on="1"/>
        <pt x="162" y="130" on="1"/>
        <pt x="162" y="121" on="0"/>
        <pt x="175" y="108" on="0"/>
        <pt x="184" y="108" on="1"/>
        <pt x="644" y="108" on="1"/>
        <pt x="653" y="108" on="0"/>
        <pt x="666" y="121" on="0"/>
      </contour>
      <contour>
        <pt x="553" y="928" on="1"/>
        <pt x="553" y="820" on="1"/>
        <pt x="445" y="820" on="1"/>
        <pt x="445" y="928" on="1"/>
      </contour>
      <contour>
        <pt x="383" y="928" on="1"/>
        <pt x="383" y="820" on="1"/>
        <pt x="275" y="820" on="1"/>
        <pt x="275" y="928" on="1"/>
      </contour>
    </TTGlyph>
    <TTGlyph name="Ugrave" xMin="54" yMin="0" xMax="774" yMax="982">
      <contour>
        <pt x="666" y="130" on="1"/>
        <pt x="666" y="720" on="1"/>
        <pt x="774" y="720" on="1"/>
        <pt x="774" y="130" on="1"/>
        <pt x="774" y="76" on="0"/>
        <pt x="698" y="0" on="0"/>
        <pt x="644" y="0" on="1"/>
        <pt x="184" y="0" on="1"/>
        <pt x="130" y="0" on="0"/>
        <pt x="54" y="76" on="0"/>
        <pt x="54" y="130" on="1"/>
        <pt x="54" y="720" on="1"/>
        <pt x="162" y="720" on="1"/>
        <pt x="162" y="130" on="1"/>
        <pt x="162" y="121" on="0"/>
        <pt x="175" y="108" on="0"/>
        <pt x="184" y="108" on="1"/>
        <pt x="644" y="108" on="1"/>
        <pt x="653" y="108" on="0"/>
        <pt x="666" y="121" on="0"/>
      </contour>
      <contour>
        <pt x="448" y="982" on="1"/>
        <pt x="488" y="820" on="1"/>
        <pt x="380" y="820" on="1"/>
        <pt x="340" y="982" on="1"/>
      </contour>
    </TTGlyph>
    <TTGlyph name="V" xMin="35" yMin="0" xMax="974" yMax="720">
      <contour>
        <pt x="505" y="122" on="1"/>
        <pt x="850" y="720" on="1"/>
        <pt x="974" y="720" on="1"/>
        <pt x="559" y="0" on="1"/>
        <pt x="451" y="0" on="1"/>
        <pt x="35" y="720" on="1"/>
        <pt x="160" y="720" on="1"/>
      </contour>
    </TTGlyph>
    <TTGlyph name="V.alt" xMin="54" yMin="0" xMax="774" yMax="720">
      <contour>
        <pt x="54" y="720" on="1"/>
        <pt x="162" y="720" on="1"/>
        <pt x="162" y="144" on="1"/>
        <pt x="646" y="720" on="1"/>
        <pt x="774" y="720" on="1"/>
        <pt x="774" y="705" on="1"/>
        <pt x="182" y="0" on="1"/>
        <pt x="54" y="0" on="1"/>
      </contour>
    </TTGlyph>
    <TTGlyph name="V.alt2" xMin="0" yMin="0" xMax="720" yMax="720">
      <contour>
        <pt x="612" y="144" on="1"/>
        <pt x="612" y="720" on="1"/>
        <pt x="720" y="720" on="1"/>
        <pt x="720" y="0" on="1"/>
        <pt x="592" y="0" on="1"/>
        <pt x="0" y="705" on="1"/>
        <pt x="0" y="720" on="1"/>
        <pt x="128" y="720" on="1"/>
      </contour>
    </TTGlyph>
    <TTGlyph name="V.alt3" xMin="53" yMin="0" xMax="773" yMax="720">
      <contour>
        <pt x="665" y="720" on="1"/>
        <pt x="773" y="720" on="1"/>
        <pt x="773" y="0" on="1"/>
        <pt x="183" y="0" on="1"/>
        <pt x="129" y="0" on="0"/>
        <pt x="53" y="76" on="0"/>
        <pt x="53" y="130" on="1"/>
        <pt x="53" y="720" on="1"/>
        <pt x="161" y="720" on="1"/>
        <pt x="161" y="130" on="1"/>
        <pt x="161" y="121" on="0"/>
        <pt x="174" y="108" on="0"/>
        <pt x="183" y="108" on="1"/>
        <pt x="665" y="108" on="1"/>
      </contour>
    </TTGlyph>
    <TTGlyph name="W" xMin="35" yMin="0" xMax="1144" yMax="720">
      <contour>
        <pt x="1029" y="720" on="1"/>
        <pt x="1144" y="720" on="1"/>
        <pt x="882" y="0" on="1"/>
        <pt x="794" y="0" on="1"/>
        <pt x="589" y="561" on="1"/>
        <pt x="385" y="0" on="1"/>
        <pt x="383" y="1" on="1"/>
        <pt x="384" y="0" on="1"/>
        <pt x="297" y="0" on="1"/>
        <pt x="35" y="720" on="1"/>
        <pt x="150" y="720" on="1"/>
        <pt x="341" y="195" on="1"/>
        <pt x="532" y="720" on="1"/>
        <pt x="647" y="720" on="1"/>
        <pt x="838" y="195" on="1"/>
      </contour>
    </TTGlyph>
    <TTGlyph name="W.alt" xMin="47" yMin="0" xMax="1146" yMax="720">
      <contour>
        <pt x="1018" y="720" on="1"/>
        <pt x="1146" y="720" on="1"/>
        <pt x="1146" y="705" on="1"/>
        <pt x="554" y="0" on="1"/>
        <pt x="426" y="0" on="1"/>
        <pt x="426" y="299" on="1"/>
        <pt x="175" y="0" on="1"/>
        <pt x="47" y="0" on="1"/>
        <pt x="47" y="720" on="1"/>
        <pt x="155" y="720" on="1"/>
        <pt x="155" y="144" on="1"/>
        <pt x="639" y="720" on="1"/>
        <pt x="767" y="720" on="1"/>
        <pt x="767" y="705" on="1"/>
        <pt x="534" y="428" on="1"/>
        <pt x="534" y="144" on="1"/>
      </contour>
    </TTGlyph>
    <TTGlyph name="W.alt2" xMin="0" yMin="0" xMax="1099" yMax="720">
      <contour>
        <pt x="0" y="720" on="1"/>
        <pt x="128" y="720" on="1"/>
        <pt x="612" y="144" on="1"/>
        <pt x="612" y="428" on="1"/>
        <pt x="379" y="705" on="1"/>
        <pt x="379" y="720" on="1"/>
        <pt x="507" y="720" on="1"/>
        <pt x="991" y="144" on="1"/>
        <pt x="991" y="720" on="1"/>
        <pt x="1099" y="720" on="1"/>
        <pt x="1099" y="0" on="1"/>
        <pt x="971" y="0" on="1"/>
        <pt x="720" y="299" on="1"/>
        <pt x="720" y="0" on="1"/>
        <pt x="592" y="0" on="1"/>
        <pt x="0" y="705" on="1"/>
      </contour>
    </TTGlyph>
    <TTGlyph name="W.alt3" xMin="54" yMin="0" xMax="974" yMax="720">
      <contour>
        <pt x="514" y="395" on="1"/>
        <pt x="182" y="0" on="1"/>
        <pt x="54" y="0" on="1"/>
        <pt x="54" y="720" on="1"/>
        <pt x="162" y="720" on="1"/>
        <pt x="162" y="144" on="1"/>
        <pt x="514" y="563" on="1"/>
        <pt x="866" y="144" on="1"/>
        <pt x="866" y="720" on="1"/>
        <pt x="974" y="720" on="1"/>
        <pt x="974" y="0" on="1"/>
        <pt x="846" y="0" on="1"/>
      </contour>
    </TTGlyph>
    <TTGlyph name="W.alt4" xMin="53" yMin="0" xMax="1101" yMax="720">
      <contour>
        <pt x="183" y="0" on="1"/>
        <pt x="129" y="0" on="0"/>
        <pt x="53" y="76" on="0"/>
        <pt x="53" y="130" on="1"/>
        <pt x="53" y="720" on="1"/>
        <pt x="161" y="720" on="1"/>
        <pt x="161" y="130" on="1"/>
        <pt x="161" y="121" on="0"/>
        <pt x="174" y="108" on="0"/>
        <pt x="183" y="108" on="1"/>
        <pt x="535" y="108" on="1"/>
        <pt x="535" y="720" on="1"/>
        <pt x="643" y="720" on="1"/>
        <pt x="643" y="130" on="1"/>
        <pt x="643" y="121" on="0"/>
        <pt x="656" y="108" on="0"/>
        <pt x="665" y="108" on="1"/>
        <pt x="993" y="108" on="1"/>
        <pt x="993" y="720" on="1"/>
        <pt x="1101" y="720" on="1"/>
        <pt x="1101" y="0" on="1"/>
      </contour>
    </TTGlyph>
    <TTGlyph name="X" xMin="46" yMin="0" xMax="766" yMax="720">
      <contour>
        <pt x="638" y="720" on="1"/>
        <pt x="766" y="720" on="1"/>
        <pt x="766" y="705" on="1"/>
        <pt x="476" y="360" on="1"/>
        <pt x="766" y="15" on="1"/>
        <pt x="766" y="0" on="1"/>
        <pt x="638" y="0" on="1"/>
        <pt x="406" y="276" on="1"/>
        <pt x="174" y="0" on="1"/>
        <pt x="46" y="0" on="1"/>
        <pt x="46" y="15" on="1"/>
        <pt x="335" y="360" on="1"/>
        <pt x="46" y="705" on="1"/>
        <pt x="46" y="720" on="1"/>
        <pt x="174" y="720" on="1"/>
        <pt x="406" y="444" on="1"/>
      </contour>
    </TTGlyph>
    <TTGlyph name="X.alt" xMin="54" yMin="0" xMax="775" yMax="720">
      <contour>
        <pt x="667" y="720" on="1"/>
        <pt x="775" y="720" on="1"/>
        <pt x="775" y="453" on="1"/>
        <pt x="775" y="411" on="0"/>
        <pt x="687" y="357" on="0"/>
        <pt x="627" y="357" on="1"/>
        <pt x="687" y="357" on="0"/>
        <pt x="774" y="303" on="0"/>
        <pt x="774" y="261" on="1"/>
        <pt x="774" y="0" on="1"/>
        <pt x="666" y="0" on="1"/>
        <pt x="666" y="281" on="1"/>
        <pt x="666" y="290" on="0"/>
        <pt x="653" y="303" on="0"/>
        <pt x="644" y="303" on="1"/>
        <pt x="185" y="303" on="1"/>
        <pt x="176" y="303" on="0"/>
        <pt x="163" y="290" on="0"/>
        <pt x="163" y="281" on="1"/>
        <pt x="163" y="0" on="1"/>
        <pt x="55" y="0" on="1"/>
        <pt x="55" y="261" on="1"/>
        <pt x="55" y="303" on="0"/>
        <pt x="142" y="357" on="0"/>
        <pt x="202" y="357" on="1"/>
        <pt x="141" y="357" on="0"/>
        <pt x="54" y="411" on="0"/>
        <pt x="54" y="453" on="1"/>
        <pt x="54" y="720" on="1"/>
        <pt x="162" y="720" on="1"/>
        <pt x="162" y="433" on="1"/>
        <pt x="162" y="424" on="0"/>
        <pt x="175" y="411" on="0"/>
        <pt x="184" y="411" on="1"/>
        <pt x="645" y="411" on="1"/>
        <pt x="654" y="411" on="0"/>
        <pt x="667" y="424" on="0"/>
        <pt x="667" y="433" on="1"/>
      </contour>
    </TTGlyph>
    <TTGlyph name="Y" xMin="17" yMin="0" xMax="789" yMax="720">
      <contour>
        <pt x="661" y="720" on="1"/>
        <pt x="789" y="720" on="1"/>
        <pt x="457" y="270" on="1"/>
        <pt x="457" y="0" on="1"/>
        <pt x="349" y="0" on="1"/>
        <pt x="349" y="270" on="1"/>
        <pt x="17" y="720" on="1"/>
        <pt x="144" y="720" on="1"/>
        <pt x="403" y="392" on="1"/>
      </contour>
    </TTGlyph>
    <TTGlyph name="Y.alt" xMin="51" yMin="0" xMax="771" yMax="720">
      <contour>
        <pt x="663" y="720" on="1"/>
        <pt x="771" y="720" on="1"/>
        <pt x="771" y="130" on="1"/>
        <pt x="771" y="76" on="0"/>
        <pt x="695" y="0" on="0"/>
        <pt x="641" y="0" on="1"/>
        <pt x="51" y="0" on="1"/>
        <pt x="51" y="108" on="1"/>
        <pt x="641" y="108" on="1"/>
        <pt x="650" y="108" on="0"/>
        <pt x="663" y="121" on="0"/>
        <pt x="663" y="130" on="1"/>
        <pt x="663" y="284" on="1"/>
        <pt x="663" y="293" on="0"/>
        <pt x="650" y="306" on="0"/>
        <pt x="641" y="306" on="1"/>
        <pt x="181" y="306" on="1"/>
        <pt x="127" y="306" on="0"/>
        <pt x="51" y="382" on="0"/>
        <pt x="51" y="436" on="1"/>
        <pt x="51" y="720" on="1"/>
        <pt x="159" y="720" on="1"/>
        <pt x="159" y="436" on="1"/>
        <pt x="159" y="427" on="0"/>
        <pt x="172" y="414" on="0"/>
        <pt x="181" y="414" on="1"/>
        <pt x="663" y="414" on="1"/>
      </contour>
    </TTGlyph>
    <TTGlyph name="Yacute" xMin="17" yMin="0" xMax="789" yMax="982">
      <contour>
        <pt x="661" y="720" on="1"/>
        <pt x="789" y="720" on="1"/>
        <pt x="457" y="270" on="1"/>
        <pt x="457" y="0" on="1"/>
        <pt x="349" y="0" on="1"/>
        <pt x="349" y="270" on="1"/>
        <pt x="17" y="720" on="1"/>
        <pt x="144" y="720" on="1"/>
        <pt x="403" y="392" on="1"/>
      </contour>
      <contour>
        <pt x="329" y="820" on="1"/>
        <pt x="369" y="982" on="1"/>
        <pt x="477" y="982" on="1"/>
        <pt x="437" y="820" on="1"/>
      </contour>
    </TTGlyph>
    <TTGlyph name="Ydieresis" xMin="17" yMin="0" xMax="789" yMax="928">
      <contour>
        <pt x="661" y="720" on="1"/>
        <pt x="789" y="720" on="1"/>
        <pt x="457" y="270" on="1"/>
        <pt x="457" y="0" on="1"/>
        <pt x="349" y="0" on="1"/>
        <pt x="349" y="270" on="1"/>
        <pt x="17" y="720" on="1"/>
        <pt x="144" y="720" on="1"/>
        <pt x="403" y="392" on="1"/>
      </contour>
      <contour>
        <pt x="542" y="928" on="1"/>
        <pt x="542" y="820" on="1"/>
        <pt x="434" y="820" on="1"/>
        <pt x="434" y="928" on="1"/>
      </contour>
      <contour>
        <pt x="372" y="928" on="1"/>
        <pt x="372" y="820" on="1"/>
        <pt x="264" y="820" on="1"/>
        <pt x="264" y="928" on="1"/>
      </contour>
    </TTGlyph>
    <TTGlyph name="Z" xMin="51" yMin="0" xMax="771" yMax="720">
      <contour>
        <pt x="51" y="612" on="1"/>
        <pt x="51" y="720" on="1"/>
        <pt x="771" y="720" on="1"/>
        <pt x="771" y="592" on="1"/>
        <pt x="195" y="108" on="1"/>
        <pt x="771" y="108" on="1"/>
        <pt x="771" y="0" on="1"/>
        <pt x="51" y="0" on="1"/>
        <pt x="51" y="128" on="1"/>
        <pt x="627" y="612" on="1"/>
      </contour>
    </TTGlyph>
    <TTGlyph name="Z.alt" xMin="49" yMin="0" xMax="769" yMax="720">
      <contour>
        <pt x="179" y="414" on="1"/>
        <pt x="299" y="414" on="1"/>
        <pt x="639" y="414" on="1"/>
        <pt x="648" y="414" on="0"/>
        <pt x="661" y="427" on="0"/>
        <pt x="661" y="436" on="1"/>
        <pt x="661" y="590" on="1"/>
        <pt x="661" y="599" on="0"/>
        <pt x="648" y="612" on="0"/>
        <pt x="639" y="612" on="1"/>
        <pt x="49" y="612" on="1"/>
        <pt x="49" y="720" on="1"/>
        <pt x="639" y="720" on="1"/>
        <pt x="693" y="720" on="0"/>
        <pt x="769" y="644" on="0"/>
        <pt x="769" y="590" on="1"/>
        <pt x="769" y="436" on="1"/>
        <pt x="769" y="382" on="0"/>
        <pt x="693" y="306" on="0"/>
        <pt x="639" y="306" on="1"/>
        <pt x="179" y="306" on="1"/>
        <pt x="170" y="306" on="0"/>
        <pt x="157" y="293" on="0"/>
        <pt x="157" y="284" on="1"/>
        <pt x="157" y="130" on="1"/>
        <pt x="157" y="121" on="0"/>
        <pt x="170" y="108" on="0"/>
        <pt x="179" y="108" on="1"/>
        <pt x="769" y="108" on="1"/>
        <pt x="769" y="0" on="1"/>
        <pt x="179" y="0" on="1"/>
        <pt x="125" y="0" on="0"/>
        <pt x="49" y="76" on="0"/>
        <pt x="49" y="130" on="1"/>
        <pt x="49" y="284" on="1"/>
        <pt x="49" y="338" on="0"/>
        <pt x="125" y="414" on="0"/>
      </contour>
    </TTGlyph>
    <TTGlyph name="Zcaron" xMin="51" yMin="0" xMax="771" yMax="960">
      <contour>
        <pt x="51" y="612" on="1"/>
        <pt x="51" y="720" on="1"/>
        <pt x="771" y="720" on="1"/>
        <pt x="771" y="592" on="1"/>
        <pt x="195" y="108" on="1"/>
        <pt x="771" y="108" on="1"/>
        <pt x="771" y="0" on="1"/>
        <pt x="51" y="0" on="1"/>
        <pt x="51" y="128" on="1"/>
        <pt x="627" y="612" on="1"/>
      </contour>
      <contour>
        <pt x="288" y="960" on="1"/>
        <pt x="362" y="960" on="1"/>
        <pt x="410" y="884" on="1"/>
        <pt x="457" y="960" on="1"/>
        <pt x="532" y="960" on="1"/>
        <pt x="447" y="819" on="1"/>
        <pt x="373" y="819" on="1"/>
      </contour>
    </TTGlyph>
    <TTGlyph name="a" xMin="52" yMin="0" xMax="642" yMax="580">
      <contour>
        <pt x="512" y="580" on="1"/>
        <pt x="566" y="580" on="0"/>
        <pt x="642" y="504" on="0"/>
        <pt x="642" y="450" on="1"/>
        <pt x="642" y="0" on="1"/>
        <pt x="182" y="0" on="1"/>
        <pt x="128" y="0" on="0"/>
        <pt x="52" y="76" on="0"/>
        <pt x="52" y="130" on="1"/>
        <pt x="52" y="344" on="1"/>
        <pt x="534" y="344" on="1"/>
        <pt x="534" y="450" on="1"/>
        <pt x="534" y="459" on="0"/>
        <pt x="521" y="472" on="0"/>
        <pt x="512" y="472" on="1"/>
        <pt x="52" y="472" on="1"/>
        <pt x="52" y="580" on="1"/>
      </contour>
      <contour>
        <pt x="534" y="108" on="1"/>
        <pt x="534" y="236" on="1"/>
        <pt x="160" y="236" on="1"/>
        <pt x="160" y="130" on="1"/>
        <pt x="160" y="121" on="0"/>
        <pt x="173" y="108" on="0"/>
        <pt x="182" y="108" on="1"/>
      </contour>
    </TTGlyph>
    <TTGlyph name="a.alt" xMin="51" yMin="0" xMax="641" yMax="580">
      <contour>
        <pt x="511" y="580" on="1"/>
        <pt x="565" y="580" on="0"/>
        <pt x="641" y="504" on="0"/>
        <pt x="641" y="450" on="1"/>
        <pt x="641" y="0" on="1"/>
        <pt x="181" y="0" on="1"/>
        <pt x="127" y="0" on="0"/>
        <pt x="51" y="76" on="0"/>
        <pt x="51" y="130" on="1"/>
        <pt x="51" y="450" on="1"/>
        <pt x="51" y="504" on="0"/>
        <pt x="127" y="580" on="0"/>
        <pt x="181" y="580" on="1"/>
      </contour>
      <contour>
        <pt x="181" y="108" on="1"/>
        <pt x="533" y="108" on="1"/>
        <pt x="533" y="450" on="1"/>
        <pt x="533" y="459" on="0"/>
        <pt x="520" y="472" on="0"/>
        <pt x="511" y="472" on="1"/>
        <pt x="181" y="472" on="1"/>
        <pt x="172" y="472" on="0"/>
        <pt x="159" y="459" on="0"/>
        <pt x="159" y="450" on="1"/>
        <pt x="159" y="130" on="1"/>
        <pt x="159" y="121" on="0"/>
        <pt x="172" y="108" on="0"/>
      </contour>
    </TTGlyph>
    <TTGlyph name="a.sc" xMin="53" yMin="0" xMax="673" yMax="580">
      <contour>
        <pt x="183" y="580" on="1"/>
        <pt x="543" y="580" on="1"/>
        <pt x="597" y="580" on="0"/>
        <pt x="673" y="504" on="0"/>
        <pt x="673" y="450" on="1"/>
        <pt x="673" y="0" on="1"/>
        <pt x="565" y="0" on="1"/>
        <pt x="565" y="152" on="1"/>
        <pt x="161" y="152" on="1"/>
        <pt x="161" y="0" on="1"/>
        <pt x="53" y="0" on="1"/>
        <pt x="53" y="450" on="1"/>
        <pt x="53" y="504" on="0"/>
        <pt x="129" y="580" on="0"/>
      </contour>
      <contour>
        <pt x="161" y="260" on="1"/>
        <pt x="565" y="260" on="1"/>
        <pt x="565" y="450" on="1"/>
        <pt x="565" y="459" on="0"/>
        <pt x="552" y="472" on="0"/>
        <pt x="543" y="472" on="1"/>
        <pt x="183" y="472" on="1"/>
        <pt x="174" y="472" on="0"/>
        <pt x="161" y="459" on="0"/>
        <pt x="161" y="450" on="1"/>
      </contour>
    </TTGlyph>
    <TTGlyph name="aacute" xMin="52" yMin="0" xMax="642" yMax="880">
      <contour>
        <pt x="512" y="580" on="1"/>
        <pt x="566" y="580" on="0"/>
        <pt x="642" y="504" on="0"/>
        <pt x="642" y="450" on="1"/>
        <pt x="642" y="0" on="1"/>
        <pt x="182" y="0" on="1"/>
        <pt x="128" y="0" on="0"/>
        <pt x="52" y="76" on="0"/>
        <pt x="52" y="130" on="1"/>
        <pt x="52" y="344" on="1"/>
        <pt x="534" y="344" on="1"/>
        <pt x="534" y="450" on="1"/>
        <pt x="534" y="459" on="0"/>
        <pt x="521" y="472" on="0"/>
        <pt x="512" y="472" on="1"/>
        <pt x="52" y="472" on="1"/>
        <pt x="52" y="580" on="1"/>
      </contour>
      <contour>
        <pt x="534" y="108" on="1"/>
        <pt x="534" y="236" on="1"/>
        <pt x="160" y="236" on="1"/>
        <pt x="160" y="130" on="1"/>
        <pt x="160" y="121" on="0"/>
        <pt x="173" y="108" on="0"/>
        <pt x="182" y="108" on="1"/>
      </contour>
      <contour>
        <pt x="288" y="718" on="1"/>
        <pt x="328" y="880" on="1"/>
        <pt x="436" y="880" on="1"/>
        <pt x="396" y="718" on="1"/>
      </contour>
    </TTGlyph>
    <TTGlyph name="acircumflex" xMin="52" yMin="0" xMax="642" yMax="859">
      <contour>
        <pt x="512" y="580" on="1"/>
        <pt x="566" y="580" on="0"/>
        <pt x="642" y="504" on="0"/>
        <pt x="642" y="450" on="1"/>
        <pt x="642" y="0" on="1"/>
        <pt x="182" y="0" on="1"/>
        <pt x="128" y="0" on="0"/>
        <pt x="52" y="76" on="0"/>
        <pt x="52" y="130" on="1"/>
        <pt x="52" y="344" on="1"/>
        <pt x="534" y="344" on="1"/>
        <pt x="534" y="450" on="1"/>
        <pt x="534" y="459" on="0"/>
        <pt x="521" y="472" on="0"/>
        <pt x="512" y="472" on="1"/>
        <pt x="52" y="472" on="1"/>
        <pt x="52" y="580" on="1"/>
      </contour>
      <contour>
        <pt x="534" y="108" on="1"/>
        <pt x="534" y="236" on="1"/>
        <pt x="160" y="236" on="1"/>
        <pt x="160" y="130" on="1"/>
        <pt x="160" y="121" on="0"/>
        <pt x="173" y="108" on="0"/>
        <pt x="182" y="108" on="1"/>
      </contour>
      <contour>
        <pt x="314" y="718" on="1"/>
        <pt x="240" y="718" on="1"/>
        <pt x="325" y="859" on="1"/>
        <pt x="399" y="859" on="1"/>
        <pt x="484" y="718" on="1"/>
        <pt x="409" y="718" on="1"/>
        <pt x="362" y="794" on="1"/>
      </contour>
    </TTGlyph>
    <TTGlyph name="acute" xMin="33" yMin="827" xMax="181" yMax="989">
      <contour>
        <pt x="33" y="827" on="1"/>
        <pt x="73" y="989" on="1"/>
        <pt x="181" y="989" on="1"/>
        <pt x="141" y="827" on="1"/>
      </contour>
    </TTGlyph>
    <TTGlyph name="adieresis" xMin="52" yMin="0" xMax="642" yMax="826">
      <contour>
        <pt x="512" y="580" on="1"/>
        <pt x="566" y="580" on="0"/>
        <pt x="642" y="504" on="0"/>
        <pt x="642" y="450" on="1"/>
        <pt x="642" y="0" on="1"/>
        <pt x="182" y="0" on="1"/>
        <pt x="128" y="0" on="0"/>
        <pt x="52" y="76" on="0"/>
        <pt x="52" y="130" on="1"/>
        <pt x="52" y="344" on="1"/>
        <pt x="534" y="344" on="1"/>
        <pt x="534" y="450" on="1"/>
        <pt x="534" y="459" on="0"/>
        <pt x="521" y="472" on="0"/>
        <pt x="512" y="472" on="1"/>
        <pt x="52" y="472" on="1"/>
        <pt x="52" y="580" on="1"/>
      </contour>
      <contour>
        <pt x="534" y="108" on="1"/>
        <pt x="534" y="236" on="1"/>
        <pt x="160" y="236" on="1"/>
        <pt x="160" y="130" on="1"/>
        <pt x="160" y="121" on="0"/>
        <pt x="173" y="108" on="0"/>
        <pt x="182" y="108" on="1"/>
      </contour>
      <contour>
        <pt x="501" y="826" on="1"/>
        <pt x="501" y="718" on="1"/>
        <pt x="393" y="718" on="1"/>
        <pt x="393" y="826" on="1"/>
      </contour>
      <contour>
        <pt x="331" y="826" on="1"/>
        <pt x="331" y="718" on="1"/>
        <pt x="223" y="718" on="1"/>
        <pt x="223" y="826" on="1"/>
      </contour>
    </TTGlyph>
    <TTGlyph name="ae" xMin="53" yMin="0" xMax="1125" yMax="580">
      <contour>
        <pt x="995" y="580" on="1"/>
        <pt x="1049" y="580" on="0"/>
        <pt x="1125" y="504" on="0"/>
        <pt x="1125" y="450" on="1"/>
        <pt x="1125" y="236" on="1"/>
        <pt x="643" y="236" on="1"/>
        <pt x="643" y="127" on="1"/>
        <pt x="645" y="108" on="0"/>
        <pt x="665" y="108" on="1"/>
        <pt x="1125" y="108" on="1"/>
        <pt x="1125" y="0" on="1"/>
        <pt x="183" y="0" on="1"/>
        <pt x="129" y="0" on="0"/>
        <pt x="53" y="76" on="0"/>
        <pt x="53" y="130" on="1"/>
        <pt x="53" y="344" on="1"/>
        <pt x="535" y="344" on="1"/>
        <pt x="535" y="450" on="1"/>
        <pt x="535" y="459" on="0"/>
        <pt x="522" y="472" on="0"/>
        <pt x="513" y="472" on="1"/>
        <pt x="53" y="472" on="1"/>
        <pt x="53" y="580" on="1"/>
      </contour>
      <contour>
        <pt x="535" y="108" on="1"/>
        <pt x="535" y="236" on="1"/>
        <pt x="161" y="236" on="1"/>
        <pt x="161" y="130" on="1"/>
        <pt x="161" y="121" on="0"/>
        <pt x="174" y="108" on="0"/>
        <pt x="183" y="108" on="1"/>
      </contour>
      <contour>
        <pt x="643" y="344" on="1"/>
        <pt x="1017" y="344" on="1"/>
        <pt x="1017" y="450" on="1"/>
        <pt x="1017" y="459" on="0"/>
        <pt x="1004" y="472" on="0"/>
        <pt x="995" y="472" on="1"/>
        <pt x="665" y="472" on="1"/>
        <pt x="656" y="472" on="0"/>
        <pt x="643" y="459" on="0"/>
        <pt x="643" y="450" on="1"/>
      </contour>
    </TTGlyph>
    <TTGlyph name="agrave" xMin="52" yMin="0" xMax="642" yMax="880">
      <contour>
        <pt x="512" y="580" on="1"/>
        <pt x="566" y="580" on="0"/>
        <pt x="642" y="504" on="0"/>
        <pt x="642" y="450" on="1"/>
        <pt x="642" y="0" on="1"/>
        <pt x="182" y="0" on="1"/>
        <pt x="128" y="0" on="0"/>
        <pt x="52" y="76" on="0"/>
        <pt x="52" y="130" on="1"/>
        <pt x="52" y="344" on="1"/>
        <pt x="534" y="344" on="1"/>
        <pt x="534" y="450" on="1"/>
        <pt x="534" y="459" on="0"/>
        <pt x="521" y="472" on="0"/>
        <pt x="512" y="472" on="1"/>
        <pt x="52" y="472" on="1"/>
        <pt x="52" y="580" on="1"/>
      </contour>
      <contour>
        <pt x="534" y="108" on="1"/>
        <pt x="534" y="236" on="1"/>
        <pt x="160" y="236" on="1"/>
        <pt x="160" y="130" on="1"/>
        <pt x="160" y="121" on="0"/>
        <pt x="173" y="108" on="0"/>
        <pt x="182" y="108" on="1"/>
      </contour>
      <contour>
        <pt x="396" y="880" on="1"/>
        <pt x="436" y="718" on="1"/>
        <pt x="328" y="718" on="1"/>
        <pt x="288" y="880" on="1"/>
      </contour>
    </TTGlyph>
    <TTGlyph name="ampersand" xMin="53" yMin="0" xMax="900" yMax="720">
      <contour>
        <pt x="773" y="181" on="1"/>
        <pt x="900" y="107" on="1"/>
        <pt x="900" y="3" on="1"/>
        <pt x="763" y="81" on="1"/>
        <pt x="749" y="45" on="0"/>
        <pt x="684" y="0" on="0"/>
        <pt x="643" y="0" on="1"/>
        <pt x="183" y="0" on="1"/>
        <pt x="129" y="0" on="0"/>
        <pt x="53" y="76" on="0"/>
        <pt x="53" y="130" on="1"/>
        <pt x="53" y="334" on="1"/>
        <pt x="53" y="359" on="0"/>
        <pt x="89" y="410" on="0"/>
        <pt x="118" y="410" on="1"/>
        <pt x="93" y="429" on="0"/>
        <pt x="93" y="486" on="1"/>
        <pt x="93" y="590" on="1"/>
        <pt x="93" y="644" on="0"/>
        <pt x="169" y="720" on="0"/>
        <pt x="223" y="720" on="1"/>
        <pt x="613" y="720" on="1"/>
        <pt x="661" y="720" on="0"/>
        <pt x="735" y="658" on="0"/>
        <pt x="743" y="612" on="1"/>
        <pt x="743" y="541" on="1"/>
        <pt x="635" y="541" on="1"/>
        <pt x="635" y="589" on="1"/>
        <pt x="635" y="598" on="0"/>
        <pt x="622" y="611" on="0"/>
        <pt x="613" y="611" on="1"/>
        <pt x="223" y="611" on="1"/>
        <pt x="214" y="611" on="0"/>
        <pt x="201" y="598" on="0"/>
        <pt x="201" y="589" on="1"/>
        <pt x="201" y="457" on="1"/>
        <pt x="665" y="223" on="1"/>
        <pt x="665" y="346" on="1"/>
        <pt x="773" y="346" on="1"/>
      </contour>
      <contour>
        <pt x="183" y="108" on="1"/>
        <pt x="643" y="108" on="1"/>
        <pt x="657" y="108" on="0"/>
        <pt x="662" y="120" on="1"/>
        <pt x="194" y="356" on="1"/>
        <pt x="183" y="356" on="1"/>
        <pt x="174" y="356" on="0"/>
        <pt x="161" y="343" on="0"/>
        <pt x="161" y="334" on="1"/>
        <pt x="161" y="130" on="1"/>
        <pt x="161" y="121" on="0"/>
        <pt x="174" y="108" on="0"/>
      </contour>
    </TTGlyph>
    <TTGlyph name="aring" xMin="52" yMin="0" xMax="642" yMax="878">
      <contour>
        <pt x="512" y="580" on="1"/>
        <pt x="566" y="580" on="0"/>
        <pt x="642" y="504" on="0"/>
        <pt x="642" y="450" on="1"/>
        <pt x="642" y="0" on="1"/>
        <pt x="182" y="0" on="1"/>
        <pt x="128" y="0" on="0"/>
        <pt x="52" y="76" on="0"/>
        <pt x="52" y="130" on="1"/>
        <pt x="52" y="344" on="1"/>
        <pt x="534" y="344" on="1"/>
        <pt x="534" y="450" on="1"/>
        <pt x="534" y="459" on="0"/>
        <pt x="521" y="472" on="0"/>
        <pt x="512" y="472" on="1"/>
        <pt x="52" y="472" on="1"/>
        <pt x="52" y="580" on="1"/>
      </contour>
      <contour>
        <pt x="534" y="108" on="1"/>
        <pt x="534" y="236" on="1"/>
        <pt x="160" y="236" on="1"/>
        <pt x="160" y="130" on="1"/>
        <pt x="160" y="121" on="0"/>
        <pt x="173" y="108" on="0"/>
        <pt x="182" y="108" on="1"/>
      </contour>
      <contour>
        <pt x="334" y="878" on="1"/>
        <pt x="390" y="878" on="1"/>
        <pt x="412" y="878" on="0"/>
        <pt x="444" y="847" on="0"/>
        <pt x="444" y="825" on="1"/>
        <pt x="444" y="771" on="1"/>
        <pt x="444" y="749" on="0"/>
        <pt x="412" y="718" on="0"/>
        <pt x="390" y="718" on="1"/>
        <pt x="334" y="718" on="1"/>
        <pt x="312" y="718" on="0"/>
        <pt x="280" y="749" on="0"/>
        <pt x="280" y="771" on="1"/>
        <pt x="280" y="825" on="1"/>
        <pt x="280" y="847" on="0"/>
        <pt x="312" y="878" on="0"/>
      </contour>
      <contour>
        <pt x="329" y="758" on="1"/>
        <pt x="395" y="758" on="1"/>
        <pt x="404" y="758" on="0"/>
        <pt x="404" y="768" on="1"/>
        <pt x="404" y="828" on="1"/>
        <pt x="404" y="838" on="0"/>
        <pt x="395" y="838" on="1"/>
        <pt x="329" y="838" on="1"/>
        <pt x="320" y="838" on="0"/>
        <pt x="320" y="828" on="1"/>
        <pt x="320" y="768" on="1"/>
        <pt x="320" y="758" on="0"/>
      </contour>
    </TTGlyph>
    <TTGlyph name="asciitilde" xMin="24" yMin="232" xMax="376" yMax="366">
      <contour>
        <pt x="298" y="298" on="1"/>
        <pt x="337" y="298" on="0"/>
        <pt x="376" y="324" on="1"/>
        <pt x="376" y="250" on="1"/>
        <pt x="334" y="232" on="0"/>
        <pt x="298" y="232" on="1"/>
        <pt x="263" y="232" on="0"/>
        <pt x="137" y="300" on="0"/>
        <pt x="98" y="300" on="1"/>
        <pt x="38" y="300" on="0"/>
        <pt x="24" y="277" on="1"/>
        <pt x="24" y="352" on="1"/>
        <pt x="57" y="366" on="0"/>
        <pt x="98" y="366" on="1"/>
        <pt x="137" y="366" on="0"/>
        <pt x="264" y="302" on="0"/>
      </contour>
    </TTGlyph>
    <TTGlyph name="asterisk" xMin="25" yMin="300" xMax="466" yMax="719">
      <contour>
        <pt x="432" y="623" on="1"/>
        <pt x="466" y="520" on="1"/>
        <pt x="333" y="477" on="1"/>
        <pt x="415" y="363" on="1"/>
        <pt x="328" y="300" on="1"/>
        <pt x="245" y="413" on="1"/>
        <pt x="163" y="300" on="1"/>
        <pt x="76" y="363" on="1"/>
        <pt x="158" y="477" on="1"/>
        <pt x="25" y="520" on="1"/>
        <pt x="58" y="623" on="1"/>
        <pt x="191" y="579" on="1"/>
        <pt x="191" y="719" on="1"/>
        <pt x="299" y="719" on="1"/>
        <pt x="299" y="579" on="1"/>
      </contour>
    </TTGlyph>
    <TTGlyph name="at" xMin="57" yMin="0" xMax="777" yMax="720">
      <contour>
        <pt x="372" y="530" on="1"/>
        <pt x="462" y="530" on="1"/>
        <pt x="516" y="530" on="0"/>
        <pt x="592" y="454" on="0"/>
        <pt x="592" y="400" on="1"/>
        <pt x="592" y="278" on="1"/>
        <pt x="669" y="278" on="1"/>
        <pt x="669" y="590" on="1"/>
        <pt x="669" y="599" on="0"/>
        <pt x="656" y="612" on="0"/>
        <pt x="647" y="612" on="1"/>
        <pt x="187" y="612" on="1"/>
        <pt x="178" y="612" on="0"/>
        <pt x="165" y="599" on="0"/>
        <pt x="165" y="590" on="1"/>
        <pt x="165" y="130" on="1"/>
        <pt x="165" y="121" on="0"/>
        <pt x="178" y="108" on="0"/>
        <pt x="187" y="108" on="1"/>
        <pt x="777" y="108" on="1"/>
        <pt x="777" y="0" on="1"/>
        <pt x="187" y="0" on="1"/>
        <pt x="133" y="0" on="0"/>
        <pt x="57" y="76" on="0"/>
        <pt x="57" y="130" on="1"/>
        <pt x="57" y="590" on="1"/>
        <pt x="57" y="644" on="0"/>
        <pt x="133" y="720" on="0"/>
        <pt x="187" y="720" on="1"/>
        <pt x="647" y="720" on="1"/>
        <pt x="701" y="720" on="0"/>
        <pt x="777" y="644" on="0"/>
        <pt x="777" y="590" on="1"/>
        <pt x="777" y="190" on="1"/>
        <pt x="372" y="190" on="1"/>
        <pt x="318" y="190" on="0"/>
        <pt x="242" y="266" on="0"/>
        <pt x="242" y="320" on="1"/>
        <pt x="242" y="400" on="1"/>
        <pt x="242" y="454" on="0"/>
        <pt x="318" y="530" on="0"/>
      </contour>
      <contour>
        <pt x="352" y="278" on="1"/>
        <pt x="504" y="278" on="1"/>
        <pt x="504" y="420" on="1"/>
        <pt x="504" y="429" on="0"/>
        <pt x="491" y="442" on="0"/>
        <pt x="482" y="442" on="1"/>
        <pt x="352" y="442" on="1"/>
        <pt x="343" y="442" on="0"/>
        <pt x="330" y="429" on="0"/>
        <pt x="330" y="420" on="1"/>
        <pt x="330" y="300" on="1"/>
        <pt x="330" y="291" on="0"/>
        <pt x="343" y="278" on="0"/>
      </contour>
    </TTGlyph>
    <TTGlyph name="atilde" xMin="52" yMin="0" xMax="642" yMax="855">
      <contour>
        <pt x="512" y="580" on="1"/>
        <pt x="566" y="580" on="0"/>
        <pt x="642" y="504" on="0"/>
        <pt x="642" y="450" on="1"/>
        <pt x="642" y="0" on="1"/>
        <pt x="182" y="0" on="1"/>
        <pt x="128" y="0" on="0"/>
        <pt x="52" y="76" on="0"/>
        <pt x="52" y="130" on="1"/>
        <pt x="52" y="344" on="1"/>
        <pt x="534" y="344" on="1"/>
        <pt x="534" y="450" on="1"/>
        <pt x="534" y="459" on="0"/>
        <pt x="521" y="472" on="0"/>
        <pt x="512" y="472" on="1"/>
        <pt x="52" y="472" on="1"/>
        <pt x="52" y="580" on="1"/>
      </contour>
      <contour>
        <pt x="534" y="108" on="1"/>
        <pt x="534" y="236" on="1"/>
        <pt x="160" y="236" on="1"/>
        <pt x="160" y="130" on="1"/>
        <pt x="160" y="121" on="0"/>
        <pt x="173" y="108" on="0"/>
        <pt x="182" y="108" on="1"/>
      </contour>
      <contour>
        <pt x="460" y="787" on="1"/>
        <pt x="499" y="787" on="0"/>
        <pt x="538" y="813" on="1"/>
        <pt x="538" y="739" on="1"/>
        <pt x="496" y="721" on="0"/>
        <pt x="460" y="721" on="1"/>
        <pt x="425" y="721" on="0"/>
        <pt x="299" y="789" on="0"/>
        <pt x="260" y="789" on="1"/>
        <pt x="200" y="789" on="0"/>
        <pt x="186" y="766" on="1"/>
        <pt x="186" y="841" on="1"/>
        <pt x="219" y="855" on="0"/>
        <pt x="260" y="855" on="1"/>
        <pt x="299" y="855" on="0"/>
        <pt x="426" y="791" on="0"/>
      </contour>
    </TTGlyph>
    <TTGlyph name="b" xMin="54" yMin="0" xMax="644" yMax="770">
      <contour>
        <pt x="514" y="580" on="1"/>
        <pt x="568" y="580" on="0"/>
        <pt x="644" y="504" on="0"/>
        <pt x="644" y="450" on="1"/>
        <pt x="644" y="130" on="1"/>
        <pt x="644" y="76" on="0"/>
        <pt x="568" y="0" on="0"/>
        <pt x="514" y="0" on="1"/>
        <pt x="54" y="0" on="1"/>
        <pt x="54" y="770" on="1"/>
        <pt x="162" y="770" on="1"/>
        <pt x="162" y="580" on="1"/>
      </contour>
      <contour>
        <pt x="536" y="130" on="1"/>
        <pt x="536" y="450" on="1"/>
        <pt x="536" y="459" on="0"/>
        <pt x="523" y="472" on="0"/>
        <pt x="514" y="472" on="1"/>
        <pt x="184" y="472" on="1"/>
        <pt x="175" y="472" on="0"/>
        <pt x="162" y="459" on="0"/>
        <pt x="162" y="450" on="1"/>
        <pt x="162" y="130" on="1"/>
        <pt x="162" y="121" on="0"/>
        <pt x="175" y="108" on="0"/>
        <pt x="184" y="108" on="1"/>
        <pt x="514" y="108" on="1"/>
        <pt x="523" y="108" on="0"/>
        <pt x="536" y="121" on="0"/>
      </contour>
    </TTGlyph>
    <TTGlyph name="b.sc" xMin="54" yMin="0" xMax="654" yMax="581">
      <contour>
        <pt x="611" y="307" on="1"/>
        <pt x="654" y="269" on="0"/>
        <pt x="654" y="211" on="1"/>
        <pt x="654" y="130" on="1"/>
        <pt x="654" y="76" on="0"/>
        <pt x="578" y="0" on="0"/>
        <pt x="524" y="0" on="1"/>
        <pt x="54" y="0" on="1"/>
        <pt x="54" y="581" on="1"/>
        <pt x="494" y="581" on="1"/>
        <pt x="548" y="581" on="0"/>
        <pt x="624" y="505" on="0"/>
        <pt x="624" y="451" on="1"/>
        <pt x="624" y="363" on="1"/>
        <pt x="624" y="335" on="0"/>
      </contour>
      <contour>
        <pt x="494" y="473" on="1"/>
        <pt x="184" y="473" on="1"/>
        <pt x="175" y="473" on="0"/>
        <pt x="162" y="460" on="0"/>
        <pt x="162" y="451" on="1"/>
        <pt x="162" y="363" on="1"/>
        <pt x="162" y="354" on="0"/>
        <pt x="175" y="341" on="0"/>
        <pt x="184" y="341" on="1"/>
        <pt x="494" y="341" on="1"/>
        <pt x="503" y="341" on="0"/>
        <pt x="516" y="354" on="0"/>
        <pt x="516" y="363" on="1"/>
        <pt x="516" y="451" on="1"/>
        <pt x="516" y="460" on="0"/>
        <pt x="503" y="473" on="0"/>
      </contour>
      <contour>
        <pt x="546" y="130" on="1"/>
        <pt x="546" y="211" on="1"/>
        <pt x="546" y="220" on="0"/>
        <pt x="533" y="233" on="0"/>
        <pt x="524" y="233" on="1"/>
        <pt x="184" y="233" on="1"/>
        <pt x="175" y="233" on="0"/>
        <pt x="162" y="220" on="0"/>
        <pt x="162" y="211" on="1"/>
        <pt x="162" y="130" on="1"/>
        <pt x="162" y="121" on="0"/>
        <pt x="175" y="108" on="0"/>
        <pt x="184" y="108" on="1"/>
        <pt x="524" y="108" on="1"/>
        <pt x="533" y="108" on="0"/>
        <pt x="546" y="121" on="0"/>
      </contour>
    </TTGlyph>
    <TTGlyph name="backslash" xMin="5" yMin="0" xMax="515" yMax="720">
      <contour>
        <pt x="5" y="720" on="1"/>
        <pt x="20" y="720" on="1"/>
        <pt x="515" y="128" on="1"/>
        <pt x="515" y="0" on="1"/>
        <pt x="500" y="0" on="1"/>
        <pt x="5" y="592" on="1"/>
      </contour>
    </TTGlyph>
    <TTGlyph name="bar" xMin="54" yMin="-109" xMax="162" yMax="828">
      <contour>
        <pt x="54" y="-109" on="1"/>
        <pt x="54" y="828" on="1"/>
        <pt x="162" y="828" on="1"/>
        <pt x="162" y="-109" on="1"/>
      </contour>
    </TTGlyph>
    <TTGlyph name="braceleft" xMin="23" yMin="0" xMax="239" yMax="720">
      <contour>
        <pt x="175" y="308" on="1"/>
        <pt x="175" y="130" on="1"/>
        <pt x="175" y="121" on="0"/>
        <pt x="188" y="108" on="0"/>
        <pt x="197" y="108" on="1"/>
        <pt x="239" y="108" on="1"/>
        <pt x="239" y="0" on="1"/>
        <pt x="197" y="0" on="1"/>
        <pt x="143" y="0" on="0"/>
        <pt x="67" y="76" on="0"/>
        <pt x="67" y="130" on="1"/>
        <pt x="67" y="286" on="1"/>
        <pt x="23" y="312" on="1"/>
        <pt x="23" y="420" on="1"/>
        <pt x="67" y="445" on="1"/>
        <pt x="67" y="590" on="1"/>
        <pt x="67" y="644" on="0"/>
        <pt x="143" y="720" on="0"/>
        <pt x="197" y="720" on="1"/>
        <pt x="239" y="720" on="1"/>
        <pt x="239" y="612" on="1"/>
        <pt x="197" y="612" on="1"/>
        <pt x="188" y="612" on="0"/>
        <pt x="175" y="599" on="0"/>
        <pt x="175" y="590" on="1"/>
        <pt x="175" y="421" on="1"/>
        <pt x="105" y="366" on="1"/>
      </contour>
    </TTGlyph>
    <TTGlyph name="braceright" xMin="51" yMin="0" xMax="267" yMax="720">
      <contour>
        <pt x="115" y="130" on="1"/>
        <pt x="115" y="308" on="1"/>
        <pt x="185" y="366" on="1"/>
        <pt x="115" y="421" on="1"/>
        <pt x="115" y="590" on="1"/>
        <pt x="115" y="599" on="0"/>
        <pt x="102" y="612" on="0"/>
        <pt x="93" y="612" on="1"/>
        <pt x="51" y="612" on="1"/>
        <pt x="51" y="720" on="1"/>
        <pt x="93" y="720" on="1"/>
        <pt x="147" y="720" on="0"/>
        <pt x="223" y="644" on="0"/>
        <pt x="223" y="590" on="1"/>
        <pt x="223" y="445" on="1"/>
        <pt x="267" y="420" on="1"/>
        <pt x="267" y="312" on="1"/>
        <pt x="223" y="286" on="1"/>
        <pt x="223" y="130" on="1"/>
        <pt x="223" y="76" on="0"/>
        <pt x="147" y="0" on="0"/>
        <pt x="93" y="0" on="1"/>
        <pt x="51" y="0" on="1"/>
        <pt x="51" y="108" on="1"/>
        <pt x="93" y="108" on="1"/>
        <pt x="102" y="108" on="0"/>
        <pt x="115" y="121" on="0"/>
      </contour>
    </TTGlyph>
    <TTGlyph name="bracketleft" xMin="54" yMin="0" xMax="226" yMax="720">
      <contour>
        <pt x="54" y="0" on="1"/>
        <pt x="54" y="720" on="1"/>
        <pt x="226" y="720" on="1"/>
        <pt x="226" y="612" on="1"/>
        <pt x="162" y="612" on="1"/>
        <pt x="162" y="108" on="1"/>
        <pt x="226" y="108" on="1"/>
        <pt x="226" y="0" on="1"/>
      </contour>
    </TTGlyph>
    <TTGlyph name="bracketright" xMin="51" yMin="0" xMax="223" yMax="720">
      <contour>
        <pt x="51" y="612" on="1"/>
        <pt x="51" y="720" on="1"/>
        <pt x="223" y="720" on="1"/>
        <pt x="223" y="0" on="1"/>
        <pt x="51" y="0" on="1"/>
        <pt x="51" y="108" on="1"/>
        <pt x="115" y="108" on="1"/>
        <pt x="115" y="612" on="1"/>
      </contour>
    </TTGlyph>
    <TTGlyph name="breve" xMin="40" yMin="827" xMax="246" yMax="911">
      <contour>
        <pt x="195" y="911" on="1"/>
        <pt x="246" y="911" on="1"/>
        <pt x="246" y="904" on="1"/>
        <pt x="246" y="872" on="0"/>
        <pt x="202" y="827" on="0"/>
        <pt x="169" y="827" on="1"/>
        <pt x="117" y="827" on="1"/>
        <pt x="84" y="827" on="0"/>
        <pt x="40" y="872" on="0"/>
        <pt x="40" y="904" on="1"/>
        <pt x="40" y="911" on="1"/>
        <pt x="91" y="911" on="1"/>
        <pt x="91" y="893" on="1"/>
        <pt x="91" y="879" on="0"/>
        <pt x="105" y="879" on="1"/>
        <pt x="181" y="879" on="1"/>
        <pt x="195" y="879" on="0"/>
        <pt x="195" y="893" on="1"/>
      </contour>
    </TTGlyph>
    <TTGlyph name="bullet" xMin="131" yMin="308" xMax="239" yMax="412">
      <contour>
        <pt x="173" y="412" on="1"/>
        <pt x="196" y="412" on="1"/>
        <pt x="239" y="412" on="0"/>
        <pt x="239" y="370" on="1"/>
        <pt x="239" y="350" on="1"/>
        <pt x="239" y="308" on="0"/>
        <pt x="196" y="308" on="1"/>
        <pt x="173" y="308" on="1"/>
        <pt x="131" y="308" on="0"/>
        <pt x="131" y="350" on="1"/>
        <pt x="131" y="370" on="1"/>
        <pt x="131" y="412" on="0"/>
      </contour>
    </TTGlyph>
    <TTGlyph name="c" xMin="51" yMin="0" xMax="641" yMax="580">
      <contour>
        <pt x="181" y="108" on="1"/>
        <pt x="641" y="108" on="1"/>
        <pt x="641" y="0" on="1"/>
        <pt x="181" y="0" on="1"/>
        <pt x="127" y="0" on="0"/>
        <pt x="51" y="76" on="0"/>
        <pt x="51" y="130" on="1"/>
        <pt x="51" y="450" on="1"/>
        <pt x="51" y="504" on="0"/>
        <pt x="127" y="580" on="0"/>
        <pt x="181" y="580" on="1"/>
        <pt x="639" y="580" on="1"/>
        <pt x="639" y="472" on="1"/>
        <pt x="181" y="472" on="1"/>
        <pt x="172" y="472" on="0"/>
        <pt x="159" y="459" on="0"/>
        <pt x="159" y="450" on="1"/>
        <pt x="159" y="130" on="1"/>
        <pt x="159" y="121" on="0"/>
        <pt x="172" y="108" on="0"/>
      </contour>
    </TTGlyph>
    <TTGlyph name="c.sc" xMin="51" yMin="0" xMax="639" yMax="581">
      <contour>
        <pt x="639" y="473" on="1"/>
        <pt x="181" y="473" on="1"/>
        <pt x="172" y="473" on="0"/>
        <pt x="159" y="460" on="0"/>
        <pt x="159" y="451" on="1"/>
        <pt x="159" y="130" on="1"/>
        <pt x="159" y="121" on="0"/>
        <pt x="172" y="108" on="0"/>
        <pt x="181" y="108" on="1"/>
        <pt x="639" y="108" on="1"/>
        <pt x="639" y="0" on="1"/>
        <pt x="181" y="0" on="1"/>
        <pt x="127" y="0" on="0"/>
        <pt x="51" y="76" on="0"/>
        <pt x="51" y="130" on="1"/>
        <pt x="51" y="451" on="1"/>
        <pt x="51" y="505" on="0"/>
        <pt x="127" y="581" on="0"/>
        <pt x="181" y="581" on="1"/>
        <pt x="639" y="581" on="1"/>
      </contour>
    </TTGlyph>
    <TTGlyph name="caron" xMin="27" yMin="826" xMax="271" yMax="967">
      <contour>
        <pt x="27" y="967" on="1"/>
        <pt x="101" y="967" on="1"/>
        <pt x="149" y="891" on="1"/>
        <pt x="196" y="967" on="1"/>
        <pt x="271" y="967" on="1"/>
        <pt x="186" y="826" on="1"/>
        <pt x="112" y="826" on="1"/>
      </contour>
    </TTGlyph>
    <TTGlyph name="ccedilla" xMin="51" yMin="-162" xMax="641" yMax="580">
      <contour>
        <pt x="181" y="108" on="1"/>
        <pt x="641" y="108" on="1"/>
        <pt x="641" y="0" on="1"/>
        <pt x="181" y="0" on="1"/>
        <pt x="127" y="0" on="0"/>
        <pt x="51" y="76" on="0"/>
        <pt x="51" y="130" on="1"/>
        <pt x="51" y="450" on="1"/>
        <pt x="51" y="504" on="0"/>
        <pt x="127" y="580" on="0"/>
        <pt x="181" y="580" on="1"/>
        <pt x="639" y="580" on="1"/>
        <pt x="639" y="472" on="1"/>
        <pt x="181" y="472" on="1"/>
        <pt x="172" y="472" on="0"/>
        <pt x="159" y="459" on="0"/>
        <pt x="159" y="450" on="1"/>
        <pt x="159" y="130" on="1"/>
        <pt x="159" y="121" on="0"/>
        <pt x="172" y="108" on="0"/>
      </contour>
      <contour>
        <pt x="272" y="-162" on="1"/>
        <pt x="312" y="0" on="1"/>
        <pt x="420" y="0" on="1"/>
        <pt x="380" y="-162" on="1"/>
      </contour>
    </TTGlyph>
    <TTGlyph name="cedilla" xMin="33" yMin="-162" xMax="181" yMax="0">
      <contour>
        <pt x="33" y="-162" on="1"/>
        <pt x="73" y="0" on="1"/>
        <pt x="181" y="0" on="1"/>
        <pt x="141" y="-162" on="1"/>
      </contour>
    </TTGlyph>
    <TTGlyph name="cent" xMin="33" yMin="-109" xMax="621" yMax="718">
      <contour>
        <pt x="621" y="482" on="1"/>
        <pt x="382" y="482" on="1"/>
        <pt x="382" y="108" on="1"/>
        <pt x="621" y="108" on="1"/>
        <pt x="621" y="0" on="1"/>
        <pt x="382" y="0" on="1"/>
        <pt x="382" y="-109" on="1"/>
        <pt x="274" y="-109" on="1"/>
        <pt x="274" y="0" on="1"/>
        <pt x="163" y="0" on="1"/>
        <pt x="109" y="0" on="0"/>
        <pt x="33" y="76" on="0"/>
        <pt x="33" y="130" on="1"/>
        <pt x="33" y="460" on="1"/>
        <pt x="33" y="514" on="0"/>
        <pt x="109" y="590" on="0"/>
        <pt x="163" y="590" on="1"/>
        <pt x="274" y="590" on="1"/>
        <pt x="274" y="718" on="1"/>
        <pt x="382" y="718" on="1"/>
        <pt x="382" y="590" on="1"/>
        <pt x="621" y="590" on="1"/>
      </contour>
      <contour>
        <pt x="274" y="108" on="1"/>
        <pt x="274" y="482" on="1"/>
        <pt x="163" y="482" on="1"/>
        <pt x="154" y="482" on="0"/>
        <pt x="141" y="469" on="0"/>
        <pt x="141" y="460" on="1"/>
        <pt x="141" y="130" on="1"/>
        <pt x="141" y="121" on="0"/>
        <pt x="154" y="108" on="0"/>
        <pt x="163" y="108" on="1"/>
      </contour>
    </TTGlyph>
    <TTGlyph name="circumflex" xMin="28" yMin="826" xMax="272" yMax="967">
      <contour>
        <pt x="102" y="826" on="1"/>
        <pt x="28" y="826" on="1"/>
        <pt x="113" y="967" on="1"/>
        <pt x="187" y="967" on="1"/>
        <pt x="272" y="826" on="1"/>
        <pt x="197" y="826" on="1"/>
        <pt x="150" y="902" on="1"/>
      </contour>
    </TTGlyph>
    <TTGlyph name="colon" xMin="54" yMin="0" xMax="162" yMax="588">
      <contour>
        <pt x="54" y="108" on="1"/>
        <pt x="162" y="108" on="1"/>
        <pt x="162" y="0" on="1"/>
        <pt x="54" y="0" on="1"/>
      </contour>
      <contour>
        <pt x="162" y="588" on="1"/>
        <pt x="162" y="480" on="1"/>
        <pt x="54" y="480" on="1"/>
        <pt x="54" y="588" on="1"/>
      </contour>
    </TTGlyph>
    <TTGlyph name="comma" xMin="54" yMin="-128" xMax="162" yMax="108">
      <contour>
        <pt x="54" y="108" on="1"/>
        <pt x="162" y="108" on="1"/>
        <pt x="162" y="0" on="1"/>
        <pt x="162" y="-48" on="0"/>
        <pt x="100" y="-120" on="0"/>
        <pt x="54" y="-128" on="1"/>
      </contour>
    </TTGlyph>
    <TTGlyph name="d" xMin="23" yMin="0" xMax="613" yMax="770">
      <contour>
        <pt x="505" y="770" on="1"/>
        <pt x="613" y="770" on="1"/>
        <pt x="613" y="0" on="1"/>
        <pt x="153" y="0" on="1"/>
        <pt x="99" y="0" on="0"/>
        <pt x="23" y="76" on="0"/>
        <pt x="23" y="130" on="1"/>
        <pt x="23" y="450" on="1"/>
        <pt x="23" y="504" on="0"/>
        <pt x="99" y="580" on="0"/>
        <pt x="153" y="580" on="1"/>
        <pt x="505" y="580" on="1"/>
      </contour>
      <contour>
        <pt x="153" y="108" on="1"/>
        <pt x="483" y="108" on="1"/>
        <pt x="492" y="108" on="0"/>
        <pt x="505" y="121" on="0"/>
        <pt x="505" y="130" on="1"/>
        <pt x="505" y="450" on="1"/>
        <pt x="505" y="459" on="0"/>
        <pt x="492" y="472" on="0"/>
        <pt x="483" y="472" on="1"/>
        <pt x="153" y="472" on="1"/>
        <pt x="144" y="472" on="0"/>
        <pt x="131" y="459" on="0"/>
        <pt x="131" y="450" on="1"/>
        <pt x="131" y="130" on="1"/>
        <pt x="131" y="121" on="0"/>
        <pt x="144" y="108" on="0"/>
      </contour>
    </TTGlyph>
    <TTGlyph name="d.sc" xMin="54" yMin="0" xMax="654" yMax="581">
      <contour>
        <pt x="54" y="581" on="1"/>
        <pt x="524" y="581" on="1"/>
        <pt x="578" y="581" on="0"/>
        <pt x="654" y="505" on="0"/>
        <pt x="654" y="451" on="1"/>
        <pt x="654" y="130" on="1"/>
        <pt x="654" y="76" on="0"/>
        <pt x="578" y="0" on="0"/>
        <pt x="524" y="0" on="1"/>
        <pt x="54" y="0" on="1"/>
      </contour>
      <contour>
        <pt x="546" y="130" on="1"/>
        <pt x="546" y="451" on="1"/>
        <pt x="546" y="460" on="0"/>
        <pt x="533" y="473" on="0"/>
        <pt x="524" y="473" on="1"/>
        <pt x="184" y="473" on="1"/>
        <pt x="175" y="473" on="0"/>
        <pt x="162" y="460" on="0"/>
        <pt x="162" y="451" on="1"/>
        <pt x="162" y="130" on="1"/>
        <pt x="162" y="121" on="0"/>
        <pt x="175" y="108" on="0"/>
        <pt x="184" y="108" on="1"/>
        <pt x="524" y="108" on="1"/>
        <pt x="533" y="108" on="0"/>
        <pt x="546" y="121" on="0"/>
      </contour>
    </TTGlyph>
    <TTGlyph name="degree" xMin="45" yMin="380" xMax="395" yMax="720">
      <contour>
        <pt x="175" y="720" on="1"/>
        <pt x="265" y="720" on="1"/>
        <pt x="319" y="720" on="0"/>
        <pt x="395" y="644" on="0"/>
        <pt x="395" y="590" on="1"/>
        <pt x="395" y="510" on="1"/>
        <pt x="395" y="456" on="0"/>
        <pt x="319" y="380" on="0"/>
        <pt x="265" y="380" on="1"/>
        <pt x="175" y="380" on="1"/>
        <pt x="121" y="380" on="0"/>
        <pt x="45" y="456" on="0"/>
        <pt x="45" y="510" on="1"/>
        <pt x="45" y="590" on="1"/>
        <pt x="45" y="644" on="0"/>
        <pt x="121" y="720" on="0"/>
      </contour>
      <contour>
        <pt x="155" y="468" on="1"/>
        <pt x="285" y="468" on="1"/>
        <pt x="294" y="468" on="0"/>
        <pt x="307" y="481" on="0"/>
        <pt x="307" y="490" on="1"/>
        <pt x="307" y="610" on="1"/>
        <pt x="307" y="619" on="0"/>
        <pt x="294" y="632" on="0"/>
        <pt x="285" y="632" on="1"/>
        <pt x="155" y="632" on="1"/>
        <pt x="146" y="632" on="0"/>
        <pt x="133" y="619" on="0"/>
        <pt x="133" y="610" on="1"/>
        <pt x="133" y="490" on="1"/>
        <pt x="133" y="481" on="0"/>
        <pt x="146" y="468" on="0"/>
      </contour>
    </TTGlyph>
    <TTGlyph name="dieresis" xMin="54" yMin="827" xMax="332" yMax="935">
      <contour>
        <pt x="332" y="935" on="1"/>
        <pt x="332" y="827" on="1"/>
        <pt x="224" y="827" on="1"/>
        <pt x="224" y="935" on="1"/>
      </contour>
      <contour>
        <pt x="162" y="935" on="1"/>
        <pt x="162" y="827" on="1"/>
        <pt x="54" y="827" on="1"/>
        <pt x="54" y="935" on="1"/>
      </contour>
    </TTGlyph>
    <TTGlyph name="divide" xMin="18" yMin="0" xMax="498" yMax="588">
      <contour>
        <pt x="498" y="350" on="1"/>
        <pt x="498" y="242" on="1"/>
        <pt x="18" y="242" on="1"/>
        <pt x="18" y="350" on="1"/>
      </contour>
      <contour>
        <pt x="201" y="108" on="1"/>
        <pt x="309" y="108" on="1"/>
        <pt x="309" y="0" on="1"/>
        <pt x="201" y="0" on="1"/>
      </contour>
      <contour>
        <pt x="309" y="588" on="1"/>
        <pt x="309" y="480" on="1"/>
        <pt x="201" y="480" on="1"/>
        <pt x="201" y="588" on="1"/>
      </contour>
    </TTGlyph>
    <TTGlyph name="dollar" xMin="34" yMin="-108" xMax="754" yMax="828">
      <contour>
        <pt x="754" y="590" on="1"/>
        <pt x="754" y="548" on="1"/>
        <pt x="646" y="548" on="1"/>
        <pt x="646" y="590" on="1"/>
        <pt x="646" y="599" on="0"/>
        <pt x="633" y="612" on="0"/>
        <pt x="624" y="612" on="1"/>
        <pt x="448" y="612" on="1"/>
        <pt x="448" y="414" on="1"/>
        <pt x="624" y="414" on="1"/>
        <pt x="678" y="414" on="0"/>
        <pt x="754" y="338" on="0"/>
        <pt x="754" y="284" on="1"/>
        <pt x="754" y="130" on="1"/>
        <pt x="754" y="76" on="0"/>
        <pt x="678" y="0" on="0"/>
        <pt x="624" y="0" on="1"/>
        <pt x="448" y="0" on="1"/>
        <pt x="448" y="-108" on="1"/>
        <pt x="340" y="-108" on="1"/>
        <pt x="340" y="0" on="1"/>
        <pt x="164" y="0" on="1"/>
        <pt x="110" y="0" on="0"/>
        <pt x="34" y="76" on="0"/>
        <pt x="34" y="130" on="1"/>
        <pt x="34" y="172" on="1"/>
        <pt x="142" y="172" on="1"/>
        <pt x="142" y="130" on="1"/>
        <pt x="142" y="121" on="0"/>
        <pt x="155" y="108" on="0"/>
        <pt x="164" y="108" on="1"/>
        <pt x="340" y="108" on="1"/>
        <pt x="340" y="306" on="1"/>
        <pt x="164" y="306" on="1"/>
        <pt x="110" y="306" on="0"/>
        <pt x="34" y="382" on="0"/>
        <pt x="34" y="436" on="1"/>
        <pt x="34" y="590" on="1"/>
        <pt x="34" y="644" on="0"/>
        <pt x="110" y="720" on="0"/>
        <pt x="164" y="720" on="1"/>
        <pt x="340" y="720" on="1"/>
        <pt x="340" y="828" on="1"/>
        <pt x="448" y="828" on="1"/>
        <pt x="448" y="720" on="1"/>
        <pt x="624" y="720" on="1"/>
        <pt x="678" y="720" on="0"/>
        <pt x="754" y="644" on="0"/>
      </contour>
      <contour>
        <pt x="624" y="306" on="1"/>
        <pt x="448" y="306" on="1"/>
        <pt x="448" y="108" on="1"/>
        <pt x="624" y="108" on="1"/>
        <pt x="633" y="108" on="0"/>
        <pt x="646" y="121" on="0"/>
        <pt x="646" y="130" on="1"/>
        <pt x="646" y="284" on="1"/>
        <pt x="646" y="293" on="0"/>
        <pt x="633" y="306" on="0"/>
      </contour>
      <contour>
        <pt x="261" y="414" on="1"/>
        <pt x="340" y="414" on="1"/>
        <pt x="340" y="612" on="1"/>
        <pt x="164" y="612" on="1"/>
        <pt x="155" y="612" on="0"/>
        <pt x="142" y="599" on="0"/>
        <pt x="142" y="590" on="1"/>
        <pt x="142" y="436" on="1"/>
        <pt x="142" y="427" on="0"/>
        <pt x="155" y="414" on="0"/>
        <pt x="164" y="414" on="1"/>
      </contour>
    </TTGlyph>
    <TTGlyph name="dotaccent" xMin="45" yMin="828" xMax="189" yMax="968">
      <contour>
        <pt x="99" y="968" on="1"/>
        <pt x="135" y="968" on="1"/>
        <pt x="157" y="968" on="0"/>
        <pt x="189" y="937" on="0"/>
        <pt x="189" y="915" on="1"/>
        <pt x="189" y="881" on="1"/>
        <pt x="189" y="859" on="0"/>
        <pt x="157" y="828" on="0"/>
        <pt x="135" y="828" on="1"/>
        <pt x="99" y="828" on="1"/>
        <pt x="77" y="828" on="0"/>
        <pt x="45" y="859" on="0"/>
        <pt x="45" y="881" on="1"/>
        <pt x="45" y="915" on="1"/>
        <pt x="45" y="937" on="0"/>
        <pt x="77" y="968" on="0"/>
      </contour>
    </TTGlyph>
    <TTGlyph name="dotlessi" xMin="52" yMin="0" xMax="160" yMax="580">
      <contour>
        <pt x="52" y="0" on="1"/>
        <pt x="52" y="580" on="1"/>
        <pt x="160" y="580" on="1"/>
        <pt x="160" y="0" on="1"/>
      </contour>
    </TTGlyph>
    <TTGlyph name="e" xMin="51" yMin="0" xMax="641" yMax="580">
      <contour>
        <pt x="511" y="580" on="1"/>
        <pt x="565" y="580" on="0"/>
        <pt x="641" y="504" on="0"/>
        <pt x="641" y="450" on="1"/>
        <pt x="641" y="236" on="1"/>
        <pt x="159" y="236" on="1"/>
        <pt x="159" y="130" on="1"/>
        <pt x="159" y="121" on="0"/>
        <pt x="172" y="108" on="0"/>
        <pt x="181" y="108" on="1"/>
        <pt x="641" y="108" on="1"/>
        <pt x="641" y="0" on="1"/>
        <pt x="181" y="0" on="1"/>
        <pt x="127" y="0" on="0"/>
        <pt x="51" y="76" on="0"/>
        <pt x="51" y="130" on="1"/>
        <pt x="51" y="450" on="1"/>
        <pt x="51" y="504" on="0"/>
        <pt x="127" y="580" on="0"/>
        <pt x="181" y="580" on="1"/>
      </contour>
      <contour>
        <pt x="159" y="344" on="1"/>
        <pt x="533" y="344" on="1"/>
        <pt x="533" y="450" on="1"/>
        <pt x="533" y="459" on="0"/>
        <pt x="520" y="472" on="0"/>
        <pt x="511" y="472" on="1"/>
        <pt x="181" y="472" on="1"/>
        <pt x="172" y="472" on="0"/>
        <pt x="159" y="459" on="0"/>
        <pt x="159" y="450" on="1"/>
      </contour>
    </TTGlyph>
    <TTGlyph name="e.sc" xMin="54" yMin="0" xMax="584" yMax="581">
      <contour>
        <pt x="584" y="581" on="1"/>
        <pt x="584" y="473" on="1"/>
        <pt x="162" y="473" on="1"/>
        <pt x="162" y="344" on="1"/>
        <pt x="476" y="344" on="1"/>
        <pt x="476" y="236" on="1"/>
        <pt x="162" y="236" on="1"/>
        <pt x="162" y="108" on="1"/>
        <pt x="584" y="108" on="1"/>
        <pt x="584" y="0" on="1"/>
        <pt x="54" y="0" on="1"/>
        <pt x="54" y="581" on="1"/>
      </contour>
    </TTGlyph>
    <TTGlyph name="eacute" xMin="51" yMin="0" xMax="641" yMax="881">
      <contour>
        <pt x="511" y="580" on="1"/>
        <pt x="565" y="580" on="0"/>
        <pt x="641" y="504" on="0"/>
        <pt x="641" y="450" on="1"/>
        <pt x="641" y="236" on="1"/>
        <pt x="159" y="236" on="1"/>
        <pt x="159" y="130" on="1"/>
        <pt x="159" y="121" on="0"/>
        <pt x="172" y="108" on="0"/>
        <pt x="181" y="108" on="1"/>
        <pt x="641" y="108" on="1"/>
        <pt x="641" y="0" on="1"/>
        <pt x="181" y="0" on="1"/>
        <pt x="127" y="0" on="0"/>
        <pt x="51" y="76" on="0"/>
        <pt x="51" y="130" on="1"/>
        <pt x="51" y="450" on="1"/>
        <pt x="51" y="504" on="0"/>
        <pt x="127" y="580" on="0"/>
        <pt x="181" y="580" on="1"/>
      </contour>
      <contour>
        <pt x="159" y="344" on="1"/>
        <pt x="533" y="344" on="1"/>
        <pt x="533" y="450" on="1"/>
        <pt x="533" y="459" on="0"/>
        <pt x="520" y="472" on="0"/>
        <pt x="511" y="472" on="1"/>
        <pt x="181" y="472" on="1"/>
        <pt x="172" y="472" on="0"/>
        <pt x="159" y="459" on="0"/>
        <pt x="159" y="450" on="1"/>
      </contour>
      <contour>
        <pt x="245" y="719" on="1"/>
        <pt x="285" y="881" on="1"/>
        <pt x="393" y="881" on="1"/>
        <pt x="353" y="719" on="1"/>
      </contour>
    </TTGlyph>
    <TTGlyph name="ecircumflex" xMin="51" yMin="0" xMax="641" yMax="859">
      <contour>
        <pt x="511" y="580" on="1"/>
        <pt x="565" y="580" on="0"/>
        <pt x="641" y="504" on="0"/>
        <pt x="641" y="450" on="1"/>
        <pt x="641" y="236" on="1"/>
        <pt x="159" y="236" on="1"/>
        <pt x="159" y="130" on="1"/>
        <pt x="159" y="121" on="0"/>
        <pt x="172" y="108" on="0"/>
        <pt x="181" y="108" on="1"/>
        <pt x="641" y="108" on="1"/>
        <pt x="641" y="0" on="1"/>
        <pt x="181" y="0" on="1"/>
        <pt x="127" y="0" on="0"/>
        <pt x="51" y="76" on="0"/>
        <pt x="51" y="130" on="1"/>
        <pt x="51" y="450" on="1"/>
        <pt x="51" y="504" on="0"/>
        <pt x="127" y="580" on="0"/>
        <pt x="181" y="580" on="1"/>
      </contour>
      <contour>
        <pt x="159" y="344" on="1"/>
        <pt x="533" y="344" on="1"/>
        <pt x="533" y="450" on="1"/>
        <pt x="533" y="459" on="0"/>
        <pt x="520" y="472" on="0"/>
        <pt x="511" y="472" on="1"/>
        <pt x="181" y="472" on="1"/>
        <pt x="172" y="472" on="0"/>
        <pt x="159" y="459" on="0"/>
        <pt x="159" y="450" on="1"/>
      </contour>
      <contour>
        <pt x="271" y="718" on="1"/>
        <pt x="197" y="718" on="1"/>
        <pt x="282" y="859" on="1"/>
        <pt x="356" y="859" on="1"/>
        <pt x="441" y="718" on="1"/>
        <pt x="366" y="718" on="1"/>
        <pt x="319" y="794" on="1"/>
      </contour>
    </TTGlyph>
    <TTGlyph name="edieresis" xMin="51" yMin="0" xMax="641" yMax="826">
      <contour>
        <pt x="511" y="580" on="1"/>
        <pt x="565" y="580" on="0"/>
        <pt x="641" y="504" on="0"/>
        <pt x="641" y="450" on="1"/>
        <pt x="641" y="236" on="1"/>
        <pt x="159" y="236" on="1"/>
        <pt x="159" y="130" on="1"/>
        <pt x="159" y="121" on="0"/>
        <pt x="172" y="108" on="0"/>
        <pt x="181" y="108" on="1"/>
        <pt x="641" y="108" on="1"/>
        <pt x="641" y="0" on="1"/>
        <pt x="181" y="0" on="1"/>
        <pt x="127" y="0" on="0"/>
        <pt x="51" y="76" on="0"/>
        <pt x="51" y="130" on="1"/>
        <pt x="51" y="450" on="1"/>
        <pt x="51" y="504" on="0"/>
        <pt x="127" y="580" on="0"/>
        <pt x="181" y="580" on="1"/>
      </contour>
      <contour>
        <pt x="159" y="344" on="1"/>
        <pt x="533" y="344" on="1"/>
        <pt x="533" y="450" on="1"/>
        <pt x="533" y="459" on="0"/>
        <pt x="520" y="472" on="0"/>
        <pt x="511" y="472" on="1"/>
        <pt x="181" y="472" on="1"/>
        <pt x="172" y="472" on="0"/>
        <pt x="159" y="459" on="0"/>
        <pt x="159" y="450" on="1"/>
      </contour>
      <contour>
        <pt x="458" y="826" on="1"/>
        <pt x="458" y="718" on="1"/>
        <pt x="350" y="718" on="1"/>
        <pt x="350" y="826" on="1"/>
      </contour>
      <contour>
        <pt x="288" y="826" on="1"/>
        <pt x="288" y="718" on="1"/>
        <pt x="180" y="718" on="1"/>
        <pt x="180" y="826" on="1"/>
      </contour>
    </TTGlyph>
    <TTGlyph name="egrave" xMin="51" yMin="0" xMax="641" yMax="880">
      <contour>
        <pt x="511" y="580" on="1"/>
        <pt x="565" y="580" on="0"/>
        <pt x="641" y="504" on="0"/>
        <pt x="641" y="450" on="1"/>
        <pt x="641" y="236" on="1"/>
        <pt x="159" y="236" on="1"/>
        <pt x="159" y="130" on="1"/>
        <pt x="159" y="121" on="0"/>
        <pt x="172" y="108" on="0"/>
        <pt x="181" y="108" on="1"/>
        <pt x="641" y="108" on="1"/>
        <pt x="641" y="0" on="1"/>
        <pt x="181" y="0" on="1"/>
        <pt x="127" y="0" on="0"/>
        <pt x="51" y="76" on="0"/>
        <pt x="51" y="130" on="1"/>
        <pt x="51" y="450" on="1"/>
        <pt x="51" y="504" on="0"/>
        <pt x="127" y="580" on="0"/>
        <pt x="181" y="580" on="1"/>
      </contour>
      <contour>
        <pt x="159" y="344" on="1"/>
        <pt x="533" y="344" on="1"/>
        <pt x="533" y="450" on="1"/>
        <pt x="533" y="459" on="0"/>
        <pt x="520" y="472" on="0"/>
        <pt x="511" y="472" on="1"/>
        <pt x="181" y="472" on="1"/>
        <pt x="172" y="472" on="0"/>
        <pt x="159" y="459" on="0"/>
        <pt x="159" y="450" on="1"/>
      </contour>
      <contour>
        <pt x="353" y="880" on="1"/>
        <pt x="393" y="718" on="1"/>
        <pt x="285" y="718" on="1"/>
        <pt x="245" y="880" on="1"/>
      </contour>
    </TTGlyph>
    <TTGlyph name="eight" xMin="57" yMin="0" xMax="777" yMax="720">
      <contour>
        <pt x="777" y="612" on="1"/>
        <pt x="777" y="446" on="1"/>
        <pt x="777" y="403" on="0"/>
        <pt x="752" y="370" on="1"/>
        <pt x="777" y="337" on="0"/>
        <pt x="777" y="294" on="1"/>
        <pt x="777" y="130" on="1"/>
        <pt x="777" y="76" on="0"/>
        <pt x="701" y="0" on="0"/>
        <pt x="647" y="0" on="1"/>
        <pt x="187" y="0" on="1"/>
        <pt x="133" y="0" on="0"/>
        <pt x="57" y="76" on="0"/>
        <pt x="57" y="130" on="1"/>
        <pt x="57" y="294" on="1"/>
        <pt x="57" y="337" on="0"/>
        <pt x="82" y="370" on="1"/>
        <pt x="57" y="403" on="0"/>
        <pt x="57" y="446" on="1"/>
        <pt x="57" y="590" on="1"/>
        <pt x="57" y="644" on="0"/>
        <pt x="133" y="720" on="0"/>
        <pt x="187" y="720" on="1"/>
        <pt x="647" y="720" on="1"/>
        <pt x="695" y="720" on="0"/>
        <pt x="769" y="658" on="0"/>
      </contour>
      <contour>
        <pt x="669" y="130" on="1"/>
        <pt x="669" y="294" on="1"/>
        <pt x="669" y="303" on="0"/>
        <pt x="656" y="316" on="0"/>
        <pt x="647" y="316" on="1"/>
        <pt x="187" y="316" on="1"/>
        <pt x="178" y="316" on="0"/>
        <pt x="165" y="303" on="0"/>
        <pt x="165" y="294" on="1"/>
        <pt x="165" y="130" on="1"/>
        <pt x="165" y="121" on="0"/>
        <pt x="178" y="108" on="0"/>
        <pt x="187" y="108" on="1"/>
        <pt x="647" y="108" on="1"/>
        <pt x="656" y="108" on="0"/>
        <pt x="669" y="121" on="0"/>
      </contour>
      <contour>
        <pt x="669" y="435" on="1"/>
        <pt x="669" y="589" on="1"/>
        <pt x="669" y="598" on="0"/>
        <pt x="656" y="611" on="0"/>
        <pt x="647" y="611" on="1"/>
        <pt x="187" y="611" on="1"/>
        <pt x="178" y="611" on="0"/>
        <pt x="165" y="598" on="0"/>
        <pt x="165" y="589" on="1"/>
        <pt x="165" y="435" on="1"/>
        <pt x="165" y="426" on="0"/>
        <pt x="178" y="413" on="0"/>
        <pt x="187" y="413" on="1"/>
        <pt x="647" y="413" on="1"/>
        <pt x="656" y="413" on="0"/>
        <pt x="669" y="426" on="0"/>
      </contour>
    </TTGlyph>
    <TTGlyph name="ellipsis" xMin="54" yMin="0" xMax="520" yMax="108">
      <contour>
        <pt x="162" y="108" on="1"/>
        <pt x="162" y="0" on="1"/>
        <pt x="54" y="0" on="1"/>
        <pt x="54" y="108" on="1"/>
      </contour>
      <contour>
        <pt x="520" y="108" on="1"/>
        <pt x="520" y="0" on="1"/>
        <pt x="412" y="0" on="1"/>
        <pt x="412" y="108" on="1"/>
      </contour>
      <contour>
        <pt x="341" y="108" on="1"/>
        <pt x="341" y="0" on="1"/>
        <pt x="233" y="0" on="1"/>
        <pt x="233" y="108" on="1"/>
      </contour>
    </TTGlyph>
    <TTGlyph name="emdash" xMin="54" yMin="241" xMax="768" yMax="349">
      <contour>
        <pt x="768" y="349" on="1"/>
        <pt x="768" y="241" on="1"/>
        <pt x="54" y="241" on="1"/>
        <pt x="54" y="349" on="1"/>
      </contour>
    </TTGlyph>
    <TTGlyph name="endash" xMin="54" yMin="241" xMax="654" yMax="349">
      <contour>
        <pt x="654" y="349" on="1"/>
        <pt x="654" y="241" on="1"/>
        <pt x="54" y="241" on="1"/>
        <pt x="54" y="349" on="1"/>
      </contour>
    </TTGlyph>
    <TTGlyph name="equal" xMin="59" yMin="143" xMax="579" yMax="441">
      <contour>
        <pt x="579" y="251" on="1"/>
        <pt x="579" y="143" on="1"/>
        <pt x="59" y="143" on="1"/>
        <pt x="59" y="251" on="1"/>
      </contour>
      <contour>
        <pt x="579" y="441" on="1"/>
        <pt x="579" y="333" on="1"/>
        <pt x="59" y="333" on="1"/>
        <pt x="59" y="441" on="1"/>
      </contour>
    </TTGlyph>
    <TTGlyph name="exclam" xMin="58" yMin="0" xMax="166" yMax="720">
      <contour>
        <pt x="166" y="0" on="1"/>
        <pt x="58" y="0" on="1"/>
        <pt x="58" y="108" on="1"/>
        <pt x="166" y="108" on="1"/>
      </contour>
      <contour>
        <pt x="58" y="200" on="1"/>
        <pt x="58" y="720" on="1"/>
        <pt x="166" y="720" on="1"/>
        <pt x="166" y="200" on="1"/>
      </contour>
    </TTGlyph>
    <TTGlyph name="exclamdown" xMin="53" yMin="0" xMax="161" yMax="720">
      <contour>
        <pt x="161" y="720" on="1"/>
        <pt x="161" y="612" on="1"/>
        <pt x="53" y="612" on="1"/>
        <pt x="53" y="720" on="1"/>
      </contour>
      <contour>
        <pt x="161" y="0" on="1"/>
        <pt x="53" y="0" on="1"/>
        <pt x="53" y="520" on="1"/>
        <pt x="161" y="520" on="1"/>
      </contour>
    </TTGlyph>
    <TTGlyph name="f" xMin="53" yMin="0" xMax="399" yMax="770">
      <contour>
        <pt x="183" y="662" on="1"/>
        <pt x="174" y="662" on="0"/>
        <pt x="161" y="649" on="0"/>
        <pt x="161" y="640" on="1"/>
        <pt x="161" y="580" on="1"/>
        <pt x="399" y="580" on="1"/>
        <pt x="399" y="472" on="1"/>
        <pt x="161" y="472" on="1"/>
        <pt x="161" y="0" on="1"/>
        <pt x="53" y="0" on="1"/>
        <pt x="53" y="320" on="1"/>
        <pt x="53" y="640" on="1"/>
        <pt x="53" y="694" on="0"/>
        <pt x="129" y="770" on="0"/>
        <pt x="183" y="770" on="1"/>
        <pt x="399" y="770" on="1"/>
        <pt x="399" y="662" on="1"/>
      </contour>
    </TTGlyph>
    <TTGlyph name="f.sc" xMin="54" yMin="0" xMax="584" yMax="581">
      <contour>
        <pt x="54" y="581" on="1"/>
        <pt x="584" y="581" on="1"/>
        <pt x="584" y="473" on="1"/>
        <pt x="162" y="473" on="1"/>
        <pt x="162" y="344" on="1"/>
        <pt x="476" y="344" on="1"/>
        <pt x="476" y="236" on="1"/>
        <pt x="162" y="236" on="1"/>
        <pt x="162" y="0" on="1"/>
        <pt x="54" y="0" on="1"/>
      </contour>
    </TTGlyph>
    <TTGlyph name="five" xMin="57" yMin="0" xMax="777" yMax="720">
      <contour>
        <pt x="165" y="590" on="1"/>
        <pt x="165" y="446" on="1"/>
        <pt x="165" y="437" on="0"/>
        <pt x="178" y="424" on="0"/>
        <pt x="187" y="424" on="1"/>
        <pt x="647" y="424" on="1"/>
        <pt x="701" y="424" on="0"/>
        <pt x="777" y="348" on="0"/>
        <pt x="777" y="294" on="1"/>
        <pt x="777" y="130" on="1"/>
        <pt x="777" y="76" on="0"/>
        <pt x="701" y="0" on="0"/>
        <pt x="647" y="0" on="1"/>
        <pt x="187" y="0" on="1"/>
        <pt x="133" y="0" on="0"/>
        <pt x="57" y="76" on="0"/>
        <pt x="57" y="130" on="1"/>
        <pt x="57" y="172" on="1"/>
        <pt x="165" y="172" on="1"/>
        <pt x="165" y="130" on="1"/>
        <pt x="165" y="121" on="0"/>
        <pt x="178" y="108" on="0"/>
        <pt x="187" y="108" on="1"/>
        <pt x="647" y="108" on="1"/>
        <pt x="656" y="108" on="0"/>
        <pt x="669" y="121" on="0"/>
        <pt x="669" y="130" on="1"/>
        <pt x="669" y="294" on="1"/>
        <pt x="669" y="303" on="0"/>
        <pt x="656" y="316" on="0"/>
        <pt x="647" y="316" on="1"/>
        <pt x="57" y="316" on="1"/>
        <pt x="57" y="424" on="1"/>
        <pt x="59" y="424" on="1"/>
        <pt x="57" y="438" on="0"/>
        <pt x="57" y="446" on="1"/>
        <pt x="57" y="720" on="1"/>
        <pt x="777" y="720" on="1"/>
        <pt x="777" y="612" on="1"/>
        <pt x="187" y="612" on="1"/>
        <pt x="178" y="612" on="0"/>
        <pt x="165" y="599" on="0"/>
      </contour>
    </TTGlyph>
    <TTGlyph name="four" xMin="6" yMin="0" xMax="696" yMax="720">
      <contour>
        <pt x="590" y="291" on="1"/>
        <pt x="696" y="291" on="1"/>
        <pt x="696" y="183" on="1"/>
        <pt x="590" y="183" on="1"/>
        <pt x="590" y="0" on="1"/>
        <pt x="482" y="0" on="1"/>
        <pt x="482" y="183" on="1"/>
        <pt x="6" y="183" on="1"/>
        <pt x="6" y="291" on="1"/>
        <pt x="482" y="720" on="1"/>
        <pt x="590" y="720" on="1"/>
      </contour>
      <contour>
        <pt x="482" y="550" on="1"/>
        <pt x="163" y="291" on="1"/>
        <pt x="482" y="291" on="1"/>
      </contour>
    </TTGlyph>
    <TTGlyph name="four.alt" xMin="9" yMin="0" xMax="699" yMax="720">
      <contour>
        <pt x="593" y="291" on="1"/>
        <pt x="699" y="291" on="1"/>
        <pt x="699" y="183" on="1"/>
        <pt x="593" y="183" on="1"/>
        <pt x="593" y="0" on="1"/>
        <pt x="485" y="0" on="1"/>
        <pt x="485" y="183" on="1"/>
        <pt x="9" y="183" on="1"/>
        <pt x="9" y="291" on="1"/>
        <pt x="375" y="720" on="1"/>
        <pt x="483" y="720" on="1"/>
        <pt x="483" y="670" on="1"/>
        <pt x="140" y="291" on="1"/>
        <pt x="485" y="291" on="1"/>
        <pt x="485" y="440" on="1"/>
        <pt x="593" y="440" on="1"/>
      </contour>
    </TTGlyph>
    <TTGlyph name="g" xMin="41" yMin="-230" xMax="631" yMax="580">
      <contour>
        <pt x="631" y="221" on="1"/>
        <pt x="631" y="220" on="1"/>
        <pt x="631" y="-100" on="1"/>
        <pt x="631" y="-154" on="0"/>
        <pt x="555" y="-230" on="0"/>
        <pt x="501" y="-230" on="1"/>
        <pt x="143" y="-230" on="1"/>
        <pt x="143" y="-122" on="1"/>
        <pt x="501" y="-122" on="1"/>
        <pt x="510" y="-122" on="0"/>
        <pt x="523" y="-109" on="0"/>
        <pt x="523" y="-100" on="1"/>
        <pt x="523" y="0" on="1"/>
        <pt x="171" y="0" on="1"/>
        <pt x="117" y="0" on="0"/>
        <pt x="41" y="76" on="0"/>
        <pt x="41" y="130" on="1"/>
        <pt x="41" y="450" on="1"/>
        <pt x="41" y="504" on="0"/>
        <pt x="117" y="580" on="0"/>
        <pt x="171" y="580" on="1"/>
        <pt x="501" y="580" on="1"/>
        <pt x="555" y="580" on="0"/>
        <pt x="631" y="504" on="0"/>
        <pt x="631" y="450" on="1"/>
      </contour>
      <contour>
        <pt x="171" y="108" on="1"/>
        <pt x="501" y="108" on="1"/>
        <pt x="510" y="108" on="0"/>
        <pt x="523" y="121" on="0"/>
        <pt x="523" y="130" on="1"/>
        <pt x="523" y="450" on="1"/>
        <pt x="523" y="459" on="0"/>
        <pt x="510" y="472" on="0"/>
        <pt x="501" y="472" on="1"/>
        <pt x="171" y="472" on="1"/>
        <pt x="162" y="472" on="0"/>
        <pt x="149" y="459" on="0"/>
        <pt x="149" y="450" on="1"/>
        <pt x="149" y="130" on="1"/>
        <pt x="149" y="121" on="0"/>
        <pt x="162" y="108" on="0"/>
      </contour>
    </TTGlyph>
    <TTGlyph name="g.sc" xMin="51" yMin="0" xMax="641" yMax="581">
      <contour>
        <pt x="641" y="451" on="1"/>
        <pt x="641" y="423" on="1"/>
        <pt x="533" y="423" on="1"/>
        <pt x="533" y="451" on="1"/>
        <pt x="533" y="460" on="0"/>
        <pt x="520" y="473" on="0"/>
        <pt x="511" y="473" on="1"/>
        <pt x="181" y="473" on="1"/>
        <pt x="172" y="473" on="0"/>
        <pt x="159" y="460" on="0"/>
        <pt x="159" y="451" on="1"/>
        <pt x="159" y="130" on="1"/>
        <pt x="159" y="121" on="0"/>
        <pt x="172" y="108" on="0"/>
        <pt x="181" y="108" on="1"/>
        <pt x="511" y="108" on="1"/>
        <pt x="520" y="108" on="0"/>
        <pt x="533" y="121" on="0"/>
        <pt x="533" y="130" on="1"/>
        <pt x="533" y="206" on="1"/>
        <pt x="363" y="206" on="1"/>
        <pt x="363" y="314" on="1"/>
        <pt x="641" y="314" on="1"/>
        <pt x="641" y="130" on="1"/>
        <pt x="641" y="76" on="0"/>
        <pt x="565" y="0" on="0"/>
        <pt x="511" y="0" on="1"/>
        <pt x="181" y="0" on="1"/>
        <pt x="127" y="0" on="0"/>
        <pt x="51" y="76" on="0"/>
        <pt x="51" y="130" on="1"/>
        <pt x="51" y="451" on="1"/>
        <pt x="51" y="505" on="0"/>
        <pt x="127" y="581" on="0"/>
        <pt x="181" y="581" on="1"/>
        <pt x="511" y="581" on="1"/>
        <pt x="565" y="581" on="0"/>
        <pt x="641" y="505" on="0"/>
      </contour>
    </TTGlyph>
    <TTGlyph name="germandbls" xMin="57" yMin="0" xMax="777" yMax="720">
      <contour>
        <pt x="777" y="612" on="1"/>
        <pt x="777" y="446" on="1"/>
        <pt x="777" y="403" on="0"/>
        <pt x="752" y="370" on="1"/>
        <pt x="777" y="337" on="0"/>
        <pt x="777" y="294" on="1"/>
        <pt x="777" y="130" on="1"/>
        <pt x="777" y="76" on="0"/>
        <pt x="701" y="0" on="0"/>
        <pt x="647" y="0" on="1"/>
        <pt x="273" y="0" on="1"/>
        <pt x="273" y="108" on="1"/>
        <pt x="647" y="108" on="1"/>
        <pt x="656" y="108" on="0"/>
        <pt x="669" y="121" on="0"/>
        <pt x="669" y="130" on="1"/>
        <pt x="669" y="294" on="1"/>
        <pt x="669" y="303" on="0"/>
        <pt x="656" y="316" on="0"/>
        <pt x="647" y="316" on="1"/>
        <pt x="273" y="316" on="1"/>
        <pt x="273" y="413" on="1"/>
        <pt x="647" y="413" on="1"/>
        <pt x="656" y="413" on="0"/>
        <pt x="669" y="426" on="0"/>
        <pt x="669" y="435" on="1"/>
        <pt x="669" y="589" on="1"/>
        <pt x="669" y="598" on="0"/>
        <pt x="656" y="611" on="0"/>
        <pt x="647" y="611" on="1"/>
        <pt x="187" y="611" on="1"/>
        <pt x="178" y="611" on="0"/>
        <pt x="165" y="598" on="0"/>
        <pt x="165" y="589" on="1"/>
        <pt x="165" y="0" on="1"/>
        <pt x="57" y="0" on="1"/>
        <pt x="57" y="590" on="1"/>
        <pt x="57" y="644" on="0"/>
        <pt x="133" y="720" on="0"/>
        <pt x="187" y="720" on="1"/>
        <pt x="647" y="720" on="1"/>
        <pt x="695" y="720" on="0"/>
        <pt x="769" y="658" on="0"/>
      </contour>
    </TTGlyph>
    <TTGlyph name="grave" xMin="32" yMin="827" xMax="180" yMax="989">
      <contour>
        <pt x="140" y="989" on="1"/>
        <pt x="180" y="827" on="1"/>
        <pt x="72" y="827" on="1"/>
        <pt x="32" y="989" on="1"/>
      </contour>
    </TTGlyph>
    <TTGlyph name="greater" xMin="59" yMin="2" xMax="470" yMax="585">
      <contour>
        <pt x="59" y="2" on="1"/>
        <pt x="59" y="127" on="1"/>
        <pt x="348" y="294" on="1"/>
        <pt x="59" y="460" on="1"/>
        <pt x="59" y="585" on="1"/>
        <pt x="470" y="348" on="1"/>
        <pt x="470" y="240" on="1"/>
      </contour>
    </TTGlyph>
    <TTGlyph name="h" xMin="54" yMin="0" xMax="644" yMax="770">
      <contour>
        <pt x="514" y="580" on="1"/>
        <pt x="567" y="580" on="0"/>
        <pt x="644" y="504" on="0"/>
        <pt x="644" y="450" on="1"/>
        <pt x="644" y="0" on="1"/>
        <pt x="536" y="0" on="1"/>
        <pt x="536" y="450" on="1"/>
        <pt x="536" y="459" on="0"/>
        <pt x="523" y="472" on="0"/>
        <pt x="514" y="472" on="1"/>
        <pt x="184" y="472" on="1"/>
        <pt x="175" y="472" on="0"/>
        <pt x="162" y="459" on="0"/>
        <pt x="162" y="450" on="1"/>
        <pt x="162" y="0" on="1"/>
        <pt x="54" y="0" on="1"/>
        <pt x="54" y="770" on="1"/>
        <pt x="162" y="770" on="1"/>
        <pt x="162" y="580" on="1"/>
      </contour>
    </TTGlyph>
    <TTGlyph name="h.sc" xMin="54" yMin="0" xMax="661" yMax="580">
      <contour>
        <pt x="553" y="580" on="1"/>
        <pt x="661" y="580" on="1"/>
        <pt x="661" y="0" on="1"/>
        <pt x="553" y="0" on="1"/>
        <pt x="553" y="236" on="1"/>
        <pt x="162" y="236" on="1"/>
        <pt x="162" y="0" on="1"/>
        <pt x="54" y="0" on="1"/>
        <pt x="54" y="580" on="1"/>
        <pt x="162" y="580" on="1"/>
        <pt x="162" y="344" on="1"/>
        <pt x="553" y="344" on="1"/>
      </contour>
    </TTGlyph>
    <TTGlyph name="hyphen" xMin="59" yMin="242" xMax="459" yMax="350">
      <contour>
        <pt x="459" y="350" on="1"/>
        <pt x="459" y="242" on="1"/>
        <pt x="59" y="242" on="1"/>
        <pt x="59" y="350" on="1"/>
      </contour>
    </TTGlyph>
    <TTGlyph name="i" xMin="52" yMin="0" xMax="160" yMax="770">
      <contour>
        <pt x="52" y="0" on="1"/>
        <pt x="52" y="580" on="1"/>
        <pt x="160" y="580" on="1"/>
        <pt x="160" y="0" on="1"/>
      </contour>
      <contour>
        <pt x="52" y="770" on="1"/>
        <pt x="160" y="770" on="1"/>
        <pt x="160" y="662" on="1"/>
        <pt x="52" y="662" on="1"/>
      </contour>
    </TTGlyph>
    <TTGlyph name="i.sc" xMin="54" yMin="0" xMax="162" yMax="580">
      <contour>
        <pt x="54" y="0" on="1"/>
        <pt x="54" y="580" on="1"/>
        <pt x="162" y="580" on="1"/>
        <pt x="162" y="0" on="1"/>
      </contour>
    </TTGlyph>
    <TTGlyph name="iacute" xMin="49" yMin="0" xMax="197" yMax="880">
      <contour>
        <pt x="51" y="0" on="1"/>
        <pt x="51" y="580" on="1"/>
        <pt x="159" y="580" on="1"/>
        <pt x="159" y="0" on="1"/>
      </contour>
      <contour>
        <pt x="49" y="718" on="1"/>
        <pt x="89" y="880" on="1"/>
        <pt x="197" y="880" on="1"/>
        <pt x="157" y="718" on="1"/>
      </contour>
    </TTGlyph>
    <TTGlyph name="icircumflex" xMin="-15" yMin="0" xMax="229" yMax="859">
      <contour>
        <pt x="51" y="0" on="1"/>
        <pt x="51" y="580" on="1"/>
        <pt x="159" y="580" on="1"/>
        <pt x="159" y="0" on="1"/>
      </contour>
      <contour>
        <pt x="59" y="718" on="1"/>
        <pt x="-15" y="718" on="1"/>
        <pt x="70" y="859" on="1"/>
        <pt x="144" y="859" on="1"/>
        <pt x="229" y="718" on="1"/>
        <pt x="154" y="718" on="1"/>
        <pt x="107" y="794" on="1"/>
      </contour>
    </TTGlyph>
    <TTGlyph name="idieresis" xMin="-32" yMin="0" xMax="246" yMax="828">
      <contour>
        <pt x="55" y="0" on="1"/>
        <pt x="55" y="580" on="1"/>
        <pt x="163" y="580" on="1"/>
        <pt x="163" y="0" on="1"/>
      </contour>
      <contour>
        <pt x="246" y="828" on="1"/>
        <pt x="246" y="720" on="1"/>
        <pt x="138" y="720" on="1"/>
        <pt x="138" y="828" on="1"/>
      </contour>
      <contour>
        <pt x="76" y="828" on="1"/>
        <pt x="76" y="720" on="1"/>
        <pt x="-32" y="720" on="1"/>
        <pt x="-32" y="828" on="1"/>
      </contour>
    </TTGlyph>
    <TTGlyph name="igrave" xMin="16" yMin="0" xMax="164" yMax="881">
      <contour>
        <pt x="56" y="0" on="1"/>
        <pt x="56" y="580" on="1"/>
        <pt x="164" y="580" on="1"/>
        <pt x="164" y="0" on="1"/>
      </contour>
      <contour>
        <pt x="124" y="881" on="1"/>
        <pt x="164" y="719" on="1"/>
        <pt x="56" y="719" on="1"/>
        <pt x="16" y="881" on="1"/>
      </contour>
    </TTGlyph>
    <TTGlyph name="j" xMin="-187" yMin="-230" xMax="191" yMax="770">
      <contour>
        <pt x="83" y="770" on="1"/>
        <pt x="191" y="770" on="1"/>
        <pt x="191" y="662" on="1"/>
        <pt x="83" y="662" on="1"/>
      </contour>
      <contour>
        <pt x="191" y="578" on="1"/>
        <pt x="191" y="220" on="1"/>
        <pt x="191" y="-100" on="1"/>
        <pt x="191" y="-154" on="0"/>
        <pt x="115" y="-230" on="0"/>
        <pt x="61" y="-230" on="1"/>
        <pt x="-187" y="-230" on="1"/>
        <pt x="-187" y="-122" on="1"/>
        <pt x="61" y="-122" on="1"/>
        <pt x="70" y="-122" on="0"/>
        <pt x="83" y="-109" on="0"/>
        <pt x="83" y="-100" on="1"/>
        <pt x="83" y="578" on="1"/>
      </contour>
    </TTGlyph>
    <TTGlyph name="j.sc" xMin="5" yMin="0" xMax="605" yMax="580">
      <contour>
        <pt x="497" y="130" on="1"/>
        <pt x="497" y="580" on="1"/>
        <pt x="605" y="580" on="1"/>
        <pt x="605" y="130" on="1"/>
        <pt x="605" y="76" on="0"/>
        <pt x="529" y="0" on="0"/>
        <pt x="475" y="0" on="1"/>
        <pt x="135" y="0" on="1"/>
        <pt x="81" y="0" on="0"/>
        <pt x="5" y="76" on="0"/>
        <pt x="5" y="130" on="1"/>
        <pt x="5" y="190" on="1"/>
        <pt x="113" y="190" on="1"/>
        <pt x="113" y="130" on="1"/>
        <pt x="113" y="121" on="0"/>
        <pt x="126" y="108" on="0"/>
        <pt x="135" y="108" on="1"/>
        <pt x="475" y="108" on="1"/>
        <pt x="484" y="108" on="0"/>
        <pt x="497" y="121" on="0"/>
      </contour>
    </TTGlyph>
    <TTGlyph name="k" xMin="54" yMin="0" xMax="637" yMax="770">
      <contour>
        <pt x="509" y="580" on="1"/>
        <pt x="637" y="580" on="1"/>
        <pt x="637" y="565" on="1"/>
        <pt x="388" y="290" on="1"/>
        <pt x="637" y="15" on="1"/>
        <pt x="637" y="0" on="1"/>
        <pt x="509" y="0" on="1"/>
        <pt x="292" y="236" on="1"/>
        <pt x="162" y="236" on="1"/>
        <pt x="162" y="0" on="1"/>
        <pt x="54" y="0" on="1"/>
        <pt x="54" y="770" on="1"/>
        <pt x="162" y="770" on="1"/>
        <pt x="162" y="344" on="1"/>
        <pt x="292" y="344" on="1"/>
      </contour>
    </TTGlyph>
    <TTGlyph name="k.alt" xMin="54" yMin="0" xMax="644" yMax="770">
      <contour>
        <pt x="644" y="580" on="1"/>
        <pt x="644" y="366" on="1"/>
        <pt x="644" y="324" on="0"/>
        <pt x="620" y="290" on="1"/>
        <pt x="644" y="256" on="0"/>
        <pt x="644" y="214" on="1"/>
        <pt x="644" y="0" on="1"/>
        <pt x="536" y="0" on="1"/>
        <pt x="536" y="214" on="1"/>
        <pt x="536" y="223" on="0"/>
        <pt x="523" y="236" on="0"/>
        <pt x="514" y="236" on="1"/>
        <pt x="162" y="236" on="1"/>
        <pt x="162" y="0" on="1"/>
        <pt x="54" y="0" on="1"/>
        <pt x="54" y="770" on="1"/>
        <pt x="162" y="770" on="1"/>
        <pt x="162" y="344" on="1"/>
        <pt x="514" y="344" on="1"/>
        <pt x="523" y="344" on="0"/>
        <pt x="536" y="357" on="0"/>
        <pt x="536" y="366" on="1"/>
        <pt x="536" y="580" on="1"/>
      </contour>
    </TTGlyph>
    <TTGlyph name="k.sc" xMin="54" yMin="0" xMax="637" yMax="580">
      <contour>
        <pt x="509" y="580" on="1"/>
        <pt x="637" y="580" on="1"/>
        <pt x="637" y="565" on="1"/>
        <pt x="388" y="290" on="1"/>
        <pt x="637" y="15" on="1"/>
        <pt x="637" y="0" on="1"/>
        <pt x="509" y="0" on="1"/>
        <pt x="292" y="236" on="1"/>
        <pt x="162" y="236" on="1"/>
        <pt x="162" y="0" on="1"/>
        <pt x="54" y="0" on="1"/>
        <pt x="54" y="580" on="1"/>
        <pt x="162" y="580" on="1"/>
        <pt x="162" y="344" on="1"/>
        <pt x="292" y="344" on="1"/>
      </contour>
    </TTGlyph>
    <TTGlyph name="l" xMin="52" yMin="0" xMax="290" yMax="770">
      <contour>
        <pt x="52" y="450" on="1"/>
        <pt x="52" y="770" on="1"/>
        <pt x="160" y="770" on="1"/>
        <pt x="160" y="130" on="1"/>
        <pt x="160" y="121" on="0"/>
        <pt x="173" y="108" on="0"/>
        <pt x="182" y="108" on="1"/>
        <pt x="290" y="108" on="1"/>
        <pt x="290" y="0" on="1"/>
        <pt x="182" y="0" on="1"/>
        <pt x="128" y="0" on="0"/>
        <pt x="52" y="76" on="0"/>
        <pt x="52" y="130" on="1"/>
      </contour>
    </TTGlyph>
    <TTGlyph name="l.sc" xMin="54" yMin="0" xMax="654" yMax="580">
      <contour>
        <pt x="54" y="0" on="1"/>
        <pt x="54" y="580" on="1"/>
        <pt x="162" y="580" on="1"/>
        <pt x="162" y="108" on="1"/>
        <pt x="654" y="108" on="1"/>
        <pt x="654" y="0" on="1"/>
      </contour>
    </TTGlyph>
    <TTGlyph name="less" xMin="5" yMin="4" xMax="416" yMax="587">
      <contour>
        <pt x="127" y="296" on="1"/>
        <pt x="416" y="129" on="1"/>
        <pt x="416" y="4" on="1"/>
        <pt x="5" y="242" on="1"/>
        <pt x="5" y="350" on="1"/>
        <pt x="416" y="587" on="1"/>
        <pt x="416" y="462" on="1"/>
      </contour>
    </TTGlyph>
    <TTGlyph name="m" xMin="54" yMin="0" xMax="925" yMax="580">
      <contour>
        <pt x="795" y="580" on="1"/>
        <pt x="849" y="580" on="0"/>
        <pt x="925" y="504" on="0"/>
        <pt x="925" y="450" on="1"/>
        <pt x="925" y="0" on="1"/>
        <pt x="818" y="0" on="1"/>
        <pt x="818" y="450" on="1"/>
        <pt x="818" y="459" on="0"/>
        <pt x="805" y="472" on="0"/>
        <pt x="795" y="472" on="1"/>
        <pt x="566" y="472" on="1"/>
        <pt x="557" y="472" on="0"/>
        <pt x="544" y="459" on="0"/>
        <pt x="544" y="450" on="1"/>
        <pt x="544" y="0" on="1"/>
        <pt x="436" y="0" on="1"/>
        <pt x="436" y="450" on="1"/>
        <pt x="436" y="459" on="0"/>
        <pt x="423" y="472" on="0"/>
        <pt x="414" y="472" on="1"/>
        <pt x="184" y="472" on="1"/>
        <pt x="175" y="472" on="0"/>
        <pt x="162" y="459" on="0"/>
        <pt x="162" y="450" on="1"/>
        <pt x="162" y="0" on="1"/>
        <pt x="54" y="0" on="1"/>
        <pt x="54" y="580" on="1"/>
      </contour>
    </TTGlyph>
    <TTGlyph name="m.sc" xMin="54" yMin="0" xMax="770" yMax="581">
      <contour>
        <pt x="412" y="252" on="1"/>
        <pt x="641" y="581" on="1"/>
        <pt x="770" y="581" on="1"/>
        <pt x="770" y="0" on="1"/>
        <pt x="662" y="0" on="1"/>
        <pt x="662" y="446" on="1"/>
        <pt x="412" y="89" on="1"/>
        <pt x="162" y="446" on="1"/>
        <pt x="162" y="0" on="1"/>
        <pt x="54" y="0" on="1"/>
        <pt x="54" y="581" on="1"/>
        <pt x="182" y="581" on="1"/>
      </contour>
    </TTGlyph>
    <TTGlyph name="minus" xMin="59" yMin="242" xMax="459" yMax="350">
      <contour>
        <pt x="459" y="350" on="1"/>
        <pt x="459" y="242" on="1"/>
        <pt x="59" y="242" on="1"/>
        <pt x="59" y="350" on="1"/>
      </contour>
    </TTGlyph>
    <TTGlyph name="multiply" xMin="53" yMin="90" xMax="493" yMax="510">
      <contour>
        <pt x="493" y="510" on="1"/>
        <pt x="493" y="495" on="1"/>
        <pt x="343" y="300" on="1"/>
        <pt x="493" y="105" on="1"/>
        <pt x="493" y="90" on="1"/>
        <pt x="365" y="90" on="1"/>
        <pt x="273" y="216" on="1"/>
        <pt x="181" y="90" on="1"/>
        <pt x="53" y="90" on="1"/>
        <pt x="53" y="105" on="1"/>
        <pt x="202" y="300" on="1"/>
        <pt x="53" y="495" on="1"/>
        <pt x="53" y="510" on="1"/>
        <pt x="181" y="510" on="1"/>
        <pt x="273" y="384" on="1"/>
        <pt x="365" y="510" on="1"/>
      </contour>
    </TTGlyph>
    <TTGlyph name="n" xMin="54" yMin="0" xMax="644" yMax="580">
      <contour>
        <pt x="514" y="580" on="1"/>
        <pt x="568" y="580" on="0"/>
        <pt x="644" y="504" on="0"/>
        <pt x="644" y="450" on="1"/>
        <pt x="644" y="0" on="1"/>
        <pt x="536" y="0" on="1"/>
        <pt x="536" y="450" on="1"/>
        <pt x="536" y="459" on="0"/>
        <pt x="523" y="472" on="0"/>
        <pt x="514" y="472" on="1"/>
        <pt x="184" y="472" on="1"/>
        <pt x="175" y="472" on="0"/>
        <pt x="162" y="459" on="0"/>
        <pt x="162" y="450" on="1"/>
        <pt x="162" y="0" on="1"/>
        <pt x="54" y="0" on="1"/>
        <pt x="54" y="580" on="1"/>
      </contour>
    </TTGlyph>
    <TTGlyph name="n.sc" xMin="54" yMin="0" xMax="654" yMax="580">
      <contour>
        <pt x="546" y="144" on="1"/>
        <pt x="546" y="580" on="1"/>
        <pt x="654" y="580" on="1"/>
        <pt x="654" y="0" on="1"/>
        <pt x="526" y="0" on="1"/>
        <pt x="162" y="437" on="1"/>
        <pt x="162" y="0" on="1"/>
        <pt x="54" y="0" on="1"/>
        <pt x="54" y="580" on="1"/>
        <pt x="182" y="580" on="1"/>
      </contour>
    </TTGlyph>
    <TTGlyph name="nine" xMin="51" yMin="0" xMax="771" yMax="720">
      <contour>
        <pt x="301" y="296" on="1"/>
        <pt x="181" y="296" on="1"/>
        <pt x="127" y="296" on="0"/>
        <pt x="51" y="372" on="0"/>
        <pt x="51" y="426" on="1"/>
        <pt x="51" y="590" on="1"/>
        <pt x="51" y="644" on="0"/>
        <pt x="127" y="720" on="0"/>
        <pt x="181" y="720" on="1"/>
        <pt x="641" y="720" on="1"/>
        <pt x="695" y="720" on="0"/>
        <pt x="771" y="644" on="0"/>
        <pt x="771" y="590" on="1"/>
        <pt x="771" y="130" on="1"/>
        <pt x="771" y="76" on="0"/>
        <pt x="695" y="0" on="0"/>
        <pt x="641" y="0" on="1"/>
        <pt x="181" y="0" on="1"/>
        <pt x="133" y="0" on="0"/>
        <pt x="61" y="62" on="0"/>
        <pt x="53" y="108" on="1"/>
        <pt x="641" y="108" on="1"/>
        <pt x="650" y="108" on="0"/>
        <pt x="663" y="121" on="0"/>
        <pt x="663" y="130" on="1"/>
        <pt x="663" y="274" on="1"/>
        <pt x="663" y="283" on="0"/>
        <pt x="650" y="296" on="0"/>
        <pt x="641" y="296" on="1"/>
      </contour>
      <contour>
        <pt x="159" y="590" on="1"/>
        <pt x="159" y="426" on="1"/>
        <pt x="159" y="417" on="0"/>
        <pt x="172" y="404" on="0"/>
        <pt x="181" y="404" on="1"/>
        <pt x="663" y="404" on="1"/>
        <pt x="663" y="590" on="1"/>
        <pt x="663" y="599" on="0"/>
        <pt x="650" y="612" on="0"/>
        <pt x="641" y="612" on="1"/>
        <pt x="181" y="612" on="1"/>
        <pt x="172" y="612" on="0"/>
        <pt x="159" y="599" on="0"/>
      </contour>
    </TTGlyph>
    <TTGlyph name="nine.alt" xMin="12" yMin="0" xMax="732" yMax="718">
      <contour>
        <pt x="142" y="718" on="1"/>
        <pt x="602" y="718" on="1"/>
        <pt x="656" y="718" on="0"/>
        <pt x="732" y="642" on="0"/>
        <pt x="732" y="588" on="1"/>
        <pt x="732" y="0" on="1"/>
        <pt x="624" y="0" on="1"/>
        <pt x="624" y="272" on="1"/>
        <pt x="624" y="281" on="0"/>
        <pt x="611" y="294" on="0"/>
        <pt x="602" y="294" on="1"/>
        <pt x="142" y="294" on="1"/>
        <pt x="88" y="294" on="0"/>
        <pt x="12" y="370" on="0"/>
        <pt x="12" y="424" on="1"/>
        <pt x="12" y="588" on="1"/>
        <pt x="12" y="642" on="0"/>
        <pt x="88" y="718" on="0"/>
      </contour>
      <contour>
        <pt x="437" y="402" on="1"/>
        <pt x="624" y="402" on="1"/>
        <pt x="624" y="588" on="1"/>
        <pt x="624" y="597" on="0"/>
        <pt x="611" y="610" on="0"/>
        <pt x="602" y="610" on="1"/>
        <pt x="142" y="610" on="1"/>
        <pt x="133" y="610" on="0"/>
        <pt x="120" y="597" on="0"/>
        <pt x="120" y="588" on="1"/>
        <pt x="120" y="424" on="1"/>
        <pt x="120" y="415" on="0"/>
        <pt x="133" y="402" on="0"/>
        <pt x="142" y="402" on="1"/>
      </contour>
    </TTGlyph>
    <TTGlyph name="ntilde" xMin="54" yMin="0" xMax="644" yMax="854">
      <contour>
        <pt x="514" y="580" on="1"/>
        <pt x="568" y="580" on="0"/>
        <pt x="644" y="504" on="0"/>
        <pt x="644" y="450" on="1"/>
        <pt x="644" y="0" on="1"/>
        <pt x="536" y="0" on="1"/>
        <pt x="536" y="450" on="1"/>
        <pt x="536" y="459" on="0"/>
        <pt x="523" y="472" on="0"/>
        <pt x="514" y="472" on="1"/>
        <pt x="184" y="472" on="1"/>
        <pt x="175" y="472" on="0"/>
        <pt x="162" y="459" on="0"/>
        <pt x="162" y="450" on="1"/>
        <pt x="162" y="0" on="1"/>
        <pt x="54" y="0" on="1"/>
        <pt x="54" y="580" on="1"/>
      </contour>
      <contour>
        <pt x="452" y="786" on="1"/>
        <pt x="491" y="786" on="0"/>
        <pt x="530" y="812" on="1"/>
        <pt x="530" y="738" on="1"/>
        <pt x="488" y="720" on="0"/>
        <pt x="452" y="720" on="1"/>
        <pt x="417" y="720" on="0"/>
        <pt x="291" y="788" on="0"/>
        <pt x="252" y="788" on="1"/>
        <pt x="192" y="788" on="0"/>
        <pt x="178" y="765" on="1"/>
        <pt x="178" y="840" on="1"/>
        <pt x="211" y="854" on="0"/>
        <pt x="252" y="854" on="1"/>
        <pt x="291" y="854" on="0"/>
        <pt x="418" y="790" on="0"/>
      </contour>
    </TTGlyph>
    <TTGlyph name="numbersign" xMin="32" yMin="0" xMax="765" yMax="717">
      <contour>
        <pt x="765" y="558" on="1"/>
        <pt x="765" y="450" on="1"/>
        <pt x="646" y="450" on="1"/>
        <pt x="588" y="272" on="1"/>
        <pt x="734" y="272" on="1"/>
        <pt x="734" y="164" on="1"/>
        <pt x="554" y="164" on="1"/>
        <pt x="504" y="0" on="1"/>
        <pt x="396" y="0" on="1"/>
        <pt x="446" y="164" on="1"/>
        <pt x="231" y="164" on="1"/>
        <pt x="181" y="0" on="1"/>
        <pt x="73" y="0" on="1"/>
        <pt x="123" y="164" on="1"/>
        <pt x="32" y="164" on="1"/>
        <pt x="32" y="272" on="1"/>
        <pt x="157" y="272" on="1"/>
        <pt x="215" y="450" on="1"/>
        <pt x="63" y="450" on="1"/>
        <pt x="63" y="558" on="1"/>
        <pt x="249" y="558" on="1"/>
        <pt x="303" y="717" on="1"/>
        <pt x="411" y="717" on="1"/>
        <pt x="357" y="558" on="1"/>
        <pt x="572" y="558" on="1"/>
        <pt x="626" y="717" on="1"/>
        <pt x="734" y="717" on="1"/>
        <pt x="680" y="558" on="1"/>
      </contour>
      <contour>
        <pt x="265" y="272" on="1"/>
        <pt x="480" y="272" on="1"/>
        <pt x="538" y="450" on="1"/>
        <pt x="323" y="450" on="1"/>
      </contour>
    </TTGlyph>
    <TTGlyph name="o" xMin="51" yMin="0" xMax="641" yMax="580">
      <contour>
        <pt x="181" y="580" on="1"/>
        <pt x="511" y="580" on="1"/>
        <pt x="565" y="580" on="0"/>
        <pt x="641" y="504" on="0"/>
        <pt x="641" y="450" on="1"/>
        <pt x="641" y="130" on="1"/>
        <pt x="641" y="76" on="0"/>
        <pt x="565" y="0" on="0"/>
        <pt x="511" y="0" on="1"/>
        <pt x="181" y="0" on="1"/>
        <pt x="127" y="0" on="0"/>
        <pt x="51" y="76" on="0"/>
        <pt x="51" y="130" on="1"/>
        <pt x="51" y="450" on="1"/>
        <pt x="51" y="504" on="0"/>
        <pt x="127" y="580" on="0"/>
      </contour>
      <contour>
        <pt x="511" y="472" on="1"/>
        <pt x="181" y="472" on="1"/>
        <pt x="172" y="472" on="0"/>
        <pt x="159" y="459" on="0"/>
        <pt x="159" y="450" on="1"/>
        <pt x="159" y="130" on="1"/>
        <pt x="159" y="121" on="0"/>
        <pt x="172" y="108" on="0"/>
        <pt x="181" y="108" on="1"/>
        <pt x="511" y="108" on="1"/>
        <pt x="520" y="108" on="0"/>
        <pt x="533" y="121" on="0"/>
        <pt x="533" y="130" on="1"/>
        <pt x="533" y="450" on="1"/>
        <pt x="533" y="459" on="0"/>
        <pt x="520" y="472" on="0"/>
      </contour>
    </TTGlyph>
    <TTGlyph name="o.sc" xMin="51" yMin="0" xMax="641" yMax="580">
      <contour>
        <pt x="181" y="580" on="1"/>
        <pt x="511" y="580" on="1"/>
        <pt x="565" y="580" on="0"/>
        <pt x="641" y="504" on="0"/>
        <pt x="641" y="450" on="1"/>
        <pt x="641" y="130" on="1"/>
        <pt x="641" y="76" on="0"/>
        <pt x="565" y="0" on="0"/>
        <pt x="511" y="0" on="1"/>
        <pt x="181" y="0" on="1"/>
        <pt x="127" y="0" on="0"/>
        <pt x="51" y="76" on="0"/>
        <pt x="51" y="130" on="1"/>
        <pt x="51" y="450" on="1"/>
        <pt x="51" y="504" on="0"/>
        <pt x="127" y="580" on="0"/>
      </contour>
      <contour>
        <pt x="181" y="108" on="1"/>
        <pt x="511" y="108" on="1"/>
        <pt x="520" y="108" on="0"/>
        <pt x="533" y="121" on="0"/>
        <pt x="533" y="130" on="1"/>
        <pt x="533" y="450" on="1"/>
        <pt x="533" y="459" on="0"/>
        <pt x="520" y="472" on="0"/>
        <pt x="511" y="472" on="1"/>
        <pt x="181" y="472" on="1"/>
        <pt x="172" y="472" on="0"/>
        <pt x="159" y="459" on="0"/>
        <pt x="159" y="450" on="1"/>
        <pt x="159" y="130" on="1"/>
        <pt x="159" y="121" on="0"/>
        <pt x="172" y="108" on="0"/>
      </contour>
    </TTGlyph>
    <TTGlyph name="oacute" xMin="51" yMin="0" xMax="641" yMax="881">
      <contour>
        <pt x="181" y="580" on="1"/>
        <pt x="511" y="580" on="1"/>
        <pt x="565" y="580" on="0"/>
        <pt x="641" y="504" on="0"/>
        <pt x="641" y="450" on="1"/>
        <pt x="641" y="130" on="1"/>
        <pt x="641" y="76" on="0"/>
        <pt x="565" y="0" on="0"/>
        <pt x="511" y="0" on="1"/>
        <pt x="181" y="0" on="1"/>
        <pt x="127" y="0" on="0"/>
        <pt x="51" y="76" on="0"/>
        <pt x="51" y="130" on="1"/>
        <pt x="51" y="450" on="1"/>
        <pt x="51" y="504" on="0"/>
        <pt x="127" y="580" on="0"/>
      </contour>
      <contour>
        <pt x="511" y="472" on="1"/>
        <pt x="181" y="472" on="1"/>
        <pt x="172" y="472" on="0"/>
        <pt x="159" y="459" on="0"/>
        <pt x="159" y="450" on="1"/>
        <pt x="159" y="130" on="1"/>
        <pt x="159" y="121" on="0"/>
        <pt x="172" y="108" on="0"/>
        <pt x="181" y="108" on="1"/>
        <pt x="511" y="108" on="1"/>
        <pt x="520" y="108" on="0"/>
        <pt x="533" y="121" on="0"/>
        <pt x="533" y="130" on="1"/>
        <pt x="533" y="450" on="1"/>
        <pt x="533" y="459" on="0"/>
        <pt x="520" y="472" on="0"/>
      </contour>
      <contour>
        <pt x="272" y="719" on="1"/>
        <pt x="312" y="881" on="1"/>
        <pt x="420" y="881" on="1"/>
        <pt x="380" y="719" on="1"/>
      </contour>
    </TTGlyph>
    <TTGlyph name="ocircumflex" xMin="51" yMin="0" xMax="641" yMax="859">
      <contour>
        <pt x="181" y="580" on="1"/>
        <pt x="511" y="580" on="1"/>
        <pt x="565" y="580" on="0"/>
        <pt x="641" y="504" on="0"/>
        <pt x="641" y="450" on="1"/>
        <pt x="641" y="130" on="1"/>
        <pt x="641" y="76" on="0"/>
        <pt x="565" y="0" on="0"/>
        <pt x="511" y="0" on="1"/>
        <pt x="181" y="0" on="1"/>
        <pt x="127" y="0" on="0"/>
        <pt x="51" y="76" on="0"/>
        <pt x="51" y="130" on="1"/>
        <pt x="51" y="450" on="1"/>
        <pt x="51" y="504" on="0"/>
        <pt x="127" y="580" on="0"/>
      </contour>
      <contour>
        <pt x="511" y="472" on="1"/>
        <pt x="181" y="472" on="1"/>
        <pt x="172" y="472" on="0"/>
        <pt x="159" y="459" on="0"/>
        <pt x="159" y="450" on="1"/>
        <pt x="159" y="130" on="1"/>
        <pt x="159" y="121" on="0"/>
        <pt x="172" y="108" on="0"/>
        <pt x="181" y="108" on="1"/>
        <pt x="511" y="108" on="1"/>
        <pt x="520" y="108" on="0"/>
        <pt x="533" y="121" on="0"/>
        <pt x="533" y="130" on="1"/>
        <pt x="533" y="450" on="1"/>
        <pt x="533" y="459" on="0"/>
        <pt x="520" y="472" on="0"/>
      </contour>
      <contour>
        <pt x="298" y="718" on="1"/>
        <pt x="224" y="718" on="1"/>
        <pt x="309" y="859" on="1"/>
        <pt x="383" y="859" on="1"/>
        <pt x="468" y="718" on="1"/>
        <pt x="393" y="718" on="1"/>
        <pt x="346" y="794" on="1"/>
      </contour>
    </TTGlyph>
    <TTGlyph name="odieresis" xMin="51" yMin="0" xMax="641" yMax="828">
      <contour>
        <pt x="181" y="580" on="1"/>
        <pt x="511" y="580" on="1"/>
        <pt x="565" y="580" on="0"/>
        <pt x="641" y="504" on="0"/>
        <pt x="641" y="450" on="1"/>
        <pt x="641" y="130" on="1"/>
        <pt x="641" y="76" on="0"/>
        <pt x="565" y="0" on="0"/>
        <pt x="511" y="0" on="1"/>
        <pt x="181" y="0" on="1"/>
        <pt x="127" y="0" on="0"/>
        <pt x="51" y="76" on="0"/>
        <pt x="51" y="130" on="1"/>
        <pt x="51" y="450" on="1"/>
        <pt x="51" y="504" on="0"/>
        <pt x="127" y="580" on="0"/>
      </contour>
      <contour>
        <pt x="511" y="472" on="1"/>
        <pt x="181" y="472" on="1"/>
        <pt x="172" y="472" on="0"/>
        <pt x="159" y="459" on="0"/>
        <pt x="159" y="450" on="1"/>
        <pt x="159" y="130" on="1"/>
        <pt x="159" y="121" on="0"/>
        <pt x="172" y="108" on="0"/>
        <pt x="181" y="108" on="1"/>
        <pt x="511" y="108" on="1"/>
        <pt x="520" y="108" on="0"/>
        <pt x="533" y="121" on="0"/>
        <pt x="533" y="130" on="1"/>
        <pt x="533" y="450" on="1"/>
        <pt x="533" y="459" on="0"/>
        <pt x="520" y="472" on="0"/>
      </contour>
      <contour>
        <pt x="485" y="828" on="1"/>
        <pt x="485" y="720" on="1"/>
        <pt x="377" y="720" on="1"/>
        <pt x="377" y="828" on="1"/>
      </contour>
      <contour>
        <pt x="315" y="828" on="1"/>
        <pt x="315" y="720" on="1"/>
        <pt x="207" y="720" on="1"/>
        <pt x="207" y="828" on="1"/>
      </contour>
    </TTGlyph>
    <TTGlyph name="oe" xMin="52" yMin="0" xMax="1124" yMax="580">
      <contour>
        <pt x="1124" y="236" on="1"/>
        <pt x="642" y="236" on="1"/>
        <pt x="642" y="130" on="1"/>
        <pt x="642" y="121" on="0"/>
        <pt x="655" y="108" on="0"/>
        <pt x="664" y="108" on="1"/>
        <pt x="1124" y="108" on="1"/>
        <pt x="1124" y="0" on="1"/>
        <pt x="182" y="0" on="1"/>
        <pt x="128" y="0" on="0"/>
        <pt x="52" y="76" on="0"/>
        <pt x="52" y="130" on="1"/>
        <pt x="52" y="450" on="1"/>
        <pt x="52" y="504" on="0"/>
        <pt x="128" y="580" on="0"/>
        <pt x="182" y="580" on="1"/>
        <pt x="994" y="580" on="1"/>
        <pt x="1048" y="580" on="0"/>
        <pt x="1124" y="504" on="0"/>
        <pt x="1124" y="450" on="1"/>
      </contour>
      <contour>
        <pt x="664" y="472" on="1"/>
        <pt x="655" y="472" on="0"/>
        <pt x="642" y="459" on="0"/>
        <pt x="642" y="450" on="1"/>
        <pt x="642" y="344" on="1"/>
        <pt x="1016" y="344" on="1"/>
        <pt x="1016" y="450" on="1"/>
        <pt x="1016" y="459" on="0"/>
        <pt x="1003" y="472" on="0"/>
        <pt x="994" y="472" on="1"/>
      </contour>
      <contour>
        <pt x="512" y="108" on="1"/>
        <pt x="521" y="108" on="0"/>
        <pt x="534" y="121" on="0"/>
        <pt x="534" y="130" on="1"/>
        <pt x="534" y="450" on="1"/>
        <pt x="534" y="459" on="0"/>
        <pt x="521" y="472" on="0"/>
        <pt x="512" y="472" on="1"/>
        <pt x="182" y="472" on="1"/>
        <pt x="173" y="472" on="0"/>
        <pt x="160" y="459" on="0"/>
        <pt x="160" y="450" on="1"/>
        <pt x="160" y="130" on="1"/>
        <pt x="160" y="121" on="0"/>
        <pt x="173" y="108" on="0"/>
        <pt x="182" y="108" on="1"/>
      </contour>
    </TTGlyph>
    <TTGlyph name="ograve" xMin="51" yMin="0" xMax="641" yMax="881">
      <contour>
        <pt x="181" y="580" on="1"/>
        <pt x="511" y="580" on="1"/>
        <pt x="565" y="580" on="0"/>
        <pt x="641" y="504" on="0"/>
        <pt x="641" y="450" on="1"/>
        <pt x="641" y="130" on="1"/>
        <pt x="641" y="76" on="0"/>
        <pt x="565" y="0" on="0"/>
        <pt x="511" y="0" on="1"/>
        <pt x="181" y="0" on="1"/>
        <pt x="127" y="0" on="0"/>
        <pt x="51" y="76" on="0"/>
        <pt x="51" y="130" on="1"/>
        <pt x="51" y="450" on="1"/>
        <pt x="51" y="504" on="0"/>
        <pt x="127" y="580" on="0"/>
      </contour>
      <contour>
        <pt x="511" y="472" on="1"/>
        <pt x="181" y="472" on="1"/>
        <pt x="172" y="472" on="0"/>
        <pt x="159" y="459" on="0"/>
        <pt x="159" y="450" on="1"/>
        <pt x="159" y="130" on="1"/>
        <pt x="159" y="121" on="0"/>
        <pt x="172" y="108" on="0"/>
        <pt x="181" y="108" on="1"/>
        <pt x="511" y="108" on="1"/>
        <pt x="520" y="108" on="0"/>
        <pt x="533" y="121" on="0"/>
        <pt x="533" y="130" on="1"/>
        <pt x="533" y="450" on="1"/>
        <pt x="533" y="459" on="0"/>
        <pt x="520" y="472" on="0"/>
      </contour>
      <contour>
        <pt x="380" y="881" on="1"/>
        <pt x="420" y="719" on="1"/>
        <pt x="312" y="719" on="1"/>
        <pt x="272" y="881" on="1"/>
      </contour>
    </TTGlyph>
    <TTGlyph name="one" xMin="1" yMin="0" xMax="333" yMax="720">
      <contour>
        <pt x="1" y="477" on="1"/>
        <pt x="204" y="720" on="1"/>
        <pt x="333" y="720" on="1"/>
        <pt x="333" y="0" on="1"/>
        <pt x="225" y="0" on="1"/>
        <pt x="225" y="576" on="1"/>
        <pt x="142" y="477" on="1"/>
      </contour>
    </TTGlyph>
    <TTGlyph name="otilde" xMin="51" yMin="0" xMax="641" yMax="854">
      <contour>
        <pt x="181" y="580" on="1"/>
        <pt x="511" y="580" on="1"/>
        <pt x="565" y="580" on="0"/>
        <pt x="641" y="504" on="0"/>
        <pt x="641" y="450" on="1"/>
        <pt x="641" y="130" on="1"/>
        <pt x="641" y="76" on="0"/>
        <pt x="565" y="0" on="0"/>
        <pt x="511" y="0" on="1"/>
        <pt x="181" y="0" on="1"/>
        <pt x="127" y="0" on="0"/>
        <pt x="51" y="76" on="0"/>
        <pt x="51" y="130" on="1"/>
        <pt x="51" y="450" on="1"/>
        <pt x="51" y="504" on="0"/>
        <pt x="127" y="580" on="0"/>
      </contour>
      <contour>
        <pt x="511" y="472" on="1"/>
        <pt x="181" y="472" on="1"/>
        <pt x="172" y="472" on="0"/>
        <pt x="159" y="459" on="0"/>
        <pt x="159" y="450" on="1"/>
        <pt x="159" y="130" on="1"/>
        <pt x="159" y="121" on="0"/>
        <pt x="172" y="108" on="0"/>
        <pt x="181" y="108" on="1"/>
        <pt x="511" y="108" on="1"/>
        <pt x="520" y="108" on="0"/>
        <pt x="533" y="121" on="0"/>
        <pt x="533" y="130" on="1"/>
        <pt x="533" y="450" on="1"/>
        <pt x="533" y="459" on="0"/>
        <pt x="520" y="472" on="0"/>
      </contour>
      <contour>
        <pt x="444" y="786" on="1"/>
        <pt x="483" y="786" on="0"/>
        <pt x="522" y="812" on="1"/>
        <pt x="522" y="738" on="1"/>
        <pt x="480" y="720" on="0"/>
        <pt x="444" y="720" on="1"/>
        <pt x="409" y="720" on="0"/>
        <pt x="283" y="788" on="0"/>
        <pt x="244" y="788" on="1"/>
        <pt x="184" y="788" on="0"/>
        <pt x="170" y="765" on="1"/>
        <pt x="170" y="840" on="1"/>
        <pt x="203" y="854" on="0"/>
        <pt x="244" y="854" on="1"/>
        <pt x="283" y="854" on="0"/>
        <pt x="410" y="790" on="0"/>
      </contour>
    </TTGlyph>
    <TTGlyph name="p" xMin="54" yMin="-230" xMax="644" yMax="580">
      <contour>
        <pt x="514" y="580" on="1"/>
        <pt x="568" y="580" on="0"/>
        <pt x="644" y="504" on="0"/>
        <pt x="644" y="450" on="1"/>
        <pt x="644" y="130" on="1"/>
        <pt x="644" y="76" on="0"/>
        <pt x="568" y="0" on="0"/>
        <pt x="514" y="0" on="1"/>
        <pt x="162" y="0" on="1"/>
        <pt x="162" y="-230" on="1"/>
        <pt x="54" y="-230" on="1"/>
        <pt x="54" y="580" on="1"/>
      </contour>
      <contour>
        <pt x="536" y="130" on="1"/>
        <pt x="536" y="450" on="1"/>
        <pt x="536" y="459" on="0"/>
        <pt x="523" y="472" on="0"/>
        <pt x="514" y="472" on="1"/>
        <pt x="184" y="472" on="1"/>
        <pt x="175" y="472" on="0"/>
        <pt x="162" y="459" on="0"/>
        <pt x="162" y="450" on="1"/>
        <pt x="162" y="130" on="1"/>
        <pt x="162" y="121" on="0"/>
        <pt x="175" y="108" on="0"/>
        <pt x="184" y="108" on="1"/>
        <pt x="514" y="108" on="1"/>
        <pt x="523" y="108" on="0"/>
        <pt x="536" y="121" on="0"/>
      </contour>
    </TTGlyph>
    <TTGlyph name="p.sc" xMin="54" yMin="0" xMax="644" yMax="580">
      <contour>
        <pt x="54" y="580" on="1"/>
        <pt x="514" y="580" on="1"/>
        <pt x="568" y="580" on="0"/>
        <pt x="644" y="503" on="0"/>
        <pt x="644" y="450" on="1"/>
        <pt x="644" y="327" on="1"/>
        <pt x="644" y="274" on="0"/>
        <pt x="568" y="197" on="0"/>
        <pt x="514" y="197" on="1"/>
        <pt x="184" y="197" on="1"/>
        <pt x="176" y="197" on="0"/>
        <pt x="162" y="199" on="1"/>
        <pt x="162" y="0" on="1"/>
        <pt x="54" y="0" on="1"/>
      </contour>
      <contour>
        <pt x="536" y="327" on="1"/>
        <pt x="536" y="450" on="1"/>
        <pt x="536" y="459" on="0"/>
        <pt x="523" y="472" on="0"/>
        <pt x="514" y="472" on="1"/>
        <pt x="184" y="472" on="1"/>
        <pt x="175" y="472" on="0"/>
        <pt x="162" y="459" on="0"/>
        <pt x="162" y="450" on="1"/>
        <pt x="162" y="327" on="1"/>
        <pt x="162" y="318" on="0"/>
        <pt x="175" y="305" on="0"/>
        <pt x="184" y="305" on="1"/>
        <pt x="514" y="305" on="1"/>
        <pt x="523" y="305" on="0"/>
        <pt x="536" y="318" on="0"/>
      </contour>
    </TTGlyph>
    <TTGlyph name="paragraph" xMin="56" yMin="0" xMax="776" yMax="719">
      <contour>
        <pt x="56" y="589" on="1"/>
        <pt x="56" y="642" on="0"/>
        <pt x="132" y="719" on="0"/>
        <pt x="186" y="719" on="1"/>
        <pt x="776" y="719" on="1"/>
        <pt x="776" y="0" on="1"/>
        <pt x="668" y="0" on="1"/>
        <pt x="668" y="257" on="1"/>
        <pt x="567" y="257" on="1"/>
        <pt x="567" y="0" on="1"/>
        <pt x="459" y="0" on="1"/>
        <pt x="459" y="257" on="1"/>
        <pt x="186" y="257" on="1"/>
        <pt x="132" y="257" on="0"/>
        <pt x="56" y="334" on="0"/>
        <pt x="56" y="387" on="1"/>
      </contour>
      <contour>
        <pt x="567" y="611" on="1"/>
        <pt x="567" y="365" on="1"/>
        <pt x="668" y="365" on="1"/>
        <pt x="668" y="611" on="1"/>
      </contour>
      <contour>
        <pt x="164" y="589" on="1"/>
        <pt x="164" y="387" on="1"/>
        <pt x="164" y="378" on="0"/>
        <pt x="177" y="365" on="0"/>
        <pt x="186" y="365" on="1"/>
        <pt x="459" y="365" on="1"/>
        <pt x="459" y="611" on="1"/>
        <pt x="186" y="611" on="1"/>
        <pt x="177" y="611" on="0"/>
        <pt x="164" y="598" on="0"/>
      </contour>
    </TTGlyph>
    <TTGlyph name="parenleft" xMin="52" yMin="0" xMax="224" yMax="720">
      <contour>
        <pt x="182" y="108" on="1"/>
        <pt x="224" y="108" on="1"/>
        <pt x="224" y="0" on="1"/>
        <pt x="182" y="0" on="1"/>
        <pt x="128" y="0" on="0"/>
        <pt x="52" y="76" on="0"/>
        <pt x="52" y="130" on="1"/>
        <pt x="52" y="590" on="1"/>
        <pt x="52" y="644" on="0"/>
        <pt x="128" y="720" on="0"/>
        <pt x="182" y="720" on="1"/>
        <pt x="224" y="720" on="1"/>
        <pt x="224" y="612" on="1"/>
        <pt x="182" y="612" on="1"/>
        <pt x="173" y="612" on="0"/>
        <pt x="160" y="599" on="0"/>
        <pt x="160" y="590" on="1"/>
        <pt x="160" y="130" on="1"/>
        <pt x="160" y="121" on="0"/>
        <pt x="173" y="108" on="0"/>
      </contour>
    </TTGlyph>
    <TTGlyph name="parenright" xMin="56" yMin="0" xMax="228" yMax="720">
      <contour>
        <pt x="56" y="0" on="1"/>
        <pt x="56" y="108" on="1"/>
        <pt x="98" y="108" on="1"/>
        <pt x="107" y="108" on="0"/>
        <pt x="120" y="121" on="0"/>
        <pt x="120" y="130" on="1"/>
        <pt x="120" y="590" on="1"/>
        <pt x="120" y="599" on="0"/>
        <pt x="107" y="612" on="0"/>
        <pt x="98" y="612" on="1"/>
        <pt x="56" y="612" on="1"/>
        <pt x="56" y="720" on="1"/>
        <pt x="98" y="720" on="1"/>
        <pt x="151" y="720" on="0"/>
        <pt x="228" y="644" on="0"/>
        <pt x="228" y="590" on="1"/>
        <pt x="228" y="130" on="1"/>
        <pt x="228" y="76" on="0"/>
        <pt x="151" y="0" on="0"/>
        <pt x="98" y="0" on="1"/>
      </contour>
    </TTGlyph>
    <TTGlyph name="percent" xMin="48" yMin="-1" xMax="916" yMax="720">
      <contour>
        <pt x="837" y="720" on="1"/>
        <pt x="852" y="720" on="1"/>
        <pt x="852" y="592" on="1"/>
        <pt x="147" y="0" on="1"/>
        <pt x="132" y="0" on="1"/>
        <pt x="132" y="128" on="1"/>
      </contour>
      <contour>
        <pt x="178" y="720" on="1"/>
        <pt x="268" y="720" on="1"/>
        <pt x="322" y="720" on="0"/>
        <pt x="398" y="644" on="0"/>
        <pt x="398" y="590" on="1"/>
        <pt x="398" y="510" on="1"/>
        <pt x="398" y="456" on="0"/>
        <pt x="322" y="380" on="0"/>
        <pt x="268" y="380" on="1"/>
        <pt x="178" y="380" on="1"/>
        <pt x="124" y="380" on="0"/>
        <pt x="48" y="456" on="0"/>
        <pt x="48" y="510" on="1"/>
        <pt x="48" y="590" on="1"/>
        <pt x="48" y="644" on="0"/>
        <pt x="124" y="720" on="0"/>
      </contour>
      <contour>
        <pt x="158" y="468" on="1"/>
        <pt x="288" y="468" on="1"/>
        <pt x="297" y="468" on="0"/>
        <pt x="310" y="481" on="0"/>
        <pt x="310" y="490" on="1"/>
        <pt x="310" y="610" on="1"/>
        <pt x="310" y="619" on="0"/>
        <pt x="297" y="632" on="0"/>
        <pt x="288" y="632" on="1"/>
        <pt x="158" y="632" on="1"/>
        <pt x="149" y="632" on="0"/>
        <pt x="136" y="619" on="0"/>
        <pt x="136" y="610" on="1"/>
        <pt x="136" y="490" on="1"/>
        <pt x="136" y="481" on="0"/>
        <pt x="149" y="468" on="0"/>
      </contour>
      <contour>
        <pt x="696" y="339" on="1"/>
        <pt x="786" y="339" on="1"/>
        <pt x="840" y="339" on="0"/>
        <pt x="916" y="263" on="0"/>
        <pt x="916" y="209" on="1"/>
        <pt x="916" y="129" on="1"/>
        <pt x="916" y="75" on="0"/>
        <pt x="840" y="-1" on="0"/>
        <pt x="786" y="-1" on="1"/>
        <pt x="696" y="-1" on="1"/>
        <pt x="642" y="-1" on="0"/>
        <pt x="566" y="75" on="0"/>
        <pt x="566" y="129" on="1"/>
        <pt x="566" y="209" on="1"/>
        <pt x="566" y="263" on="0"/>
        <pt x="642" y="339" on="0"/>
      </contour>
      <contour>
        <pt x="676" y="87" on="1"/>
        <pt x="806" y="87" on="1"/>
        <pt x="815" y="87" on="0"/>
        <pt x="828" y="100" on="0"/>
        <pt x="828" y="109" on="1"/>
        <pt x="828" y="229" on="1"/>
        <pt x="828" y="238" on="0"/>
        <pt x="815" y="251" on="0"/>
        <pt x="806" y="251" on="1"/>
        <pt x="676" y="251" on="1"/>
        <pt x="667" y="251" on="0"/>
        <pt x="654" y="238" on="0"/>
        <pt x="654" y="229" on="1"/>
        <pt x="654" y="109" on="1"/>
        <pt x="654" y="100" on="0"/>
        <pt x="667" y="87" on="0"/>
      </contour>
    </TTGlyph>
    <TTGlyph name="period" xMin="54" yMin="0" xMax="162" yMax="108">
      <contour>
        <pt x="162" y="108" on="1"/>
        <pt x="162" y="0" on="1"/>
        <pt x="54" y="0" on="1"/>
        <pt x="54" y="108" on="1"/>
      </contour>
    </TTGlyph>
    <TTGlyph name="plus" xMin="17" yMin="95" xMax="417" yMax="495">
      <contour>
        <pt x="161" y="495" on="1"/>
        <pt x="269" y="495" on="1"/>
        <pt x="269" y="350" on="1"/>
        <pt x="417" y="350" on="1"/>
        <pt x="417" y="242" on="1"/>
        <pt x="269" y="242" on="1"/>
        <pt x="269" y="95" on="1"/>
        <pt x="161" y="95" on="1"/>
        <pt x="161" y="242" on="1"/>
        <pt x="17" y="242" on="1"/>
        <pt x="17" y="350" on="1"/>
        <pt x="161" y="350" on="1"/>
      </contour>
    </TTGlyph>
    <TTGlyph name="q" xMin="20" yMin="-230" xMax="610" yMax="580">
      <contour>
        <pt x="20" y="450" on="1"/>
        <pt x="20" y="504" on="0"/>
        <pt x="96" y="580" on="0"/>
        <pt x="150" y="580" on="1"/>
        <pt x="610" y="580" on="1"/>
        <pt x="610" y="-230" on="1"/>
        <pt x="502" y="-230" on="1"/>
        <pt x="502" y="0" on="1"/>
        <pt x="150" y="0" on="1"/>
        <pt x="96" y="0" on="0"/>
        <pt x="20" y="76" on="0"/>
        <pt x="20" y="130" on="1"/>
      </contour>
      <contour>
        <pt x="128" y="450" on="1"/>
        <pt x="128" y="130" on="1"/>
        <pt x="128" y="121" on="0"/>
        <pt x="141" y="108" on="0"/>
        <pt x="150" y="108" on="1"/>
        <pt x="480" y="108" on="1"/>
        <pt x="489" y="108" on="0"/>
        <pt x="502" y="121" on="0"/>
        <pt x="502" y="130" on="1"/>
        <pt x="502" y="450" on="1"/>
        <pt x="502" y="459" on="0"/>
        <pt x="489" y="472" on="0"/>
        <pt x="480" y="472" on="1"/>
        <pt x="150" y="472" on="1"/>
        <pt x="141" y="472" on="0"/>
        <pt x="128" y="459" on="0"/>
      </contour>
    </TTGlyph>
    <TTGlyph name="q.sc" xMin="52" yMin="0" xMax="732" yMax="580">
      <contour>
        <pt x="640" y="108" on="1"/>
        <pt x="732" y="108" on="1"/>
        <pt x="732" y="0" on="1"/>
        <pt x="182" y="0" on="1"/>
        <pt x="128" y="0" on="0"/>
        <pt x="52" y="76" on="0"/>
        <pt x="52" y="130" on="1"/>
        <pt x="52" y="450" on="1"/>
        <pt x="52" y="504" on="0"/>
        <pt x="128" y="580" on="0"/>
        <pt x="182" y="580" on="1"/>
        <pt x="512" y="580" on="1"/>
        <pt x="566" y="580" on="0"/>
        <pt x="642" y="504" on="0"/>
        <pt x="642" y="450" on="1"/>
        <pt x="642" y="130" on="1"/>
        <pt x="642" y="122" on="0"/>
      </contour>
      <contour>
        <pt x="182" y="108" on="1"/>
        <pt x="512" y="108" on="1"/>
        <pt x="521" y="108" on="0"/>
        <pt x="534" y="121" on="0"/>
        <pt x="534" y="130" on="1"/>
        <pt x="534" y="450" on="1"/>
        <pt x="534" y="459" on="0"/>
        <pt x="521" y="472" on="0"/>
        <pt x="512" y="472" on="1"/>
        <pt x="182" y="472" on="1"/>
        <pt x="173" y="472" on="0"/>
        <pt x="160" y="459" on="0"/>
        <pt x="160" y="450" on="1"/>
        <pt x="160" y="130" on="1"/>
        <pt x="160" y="121" on="0"/>
        <pt x="173" y="108" on="0"/>
      </contour>
    </TTGlyph>
    <TTGlyph name="question" xMin="31" yMin="0" xMax="658" yMax="720">
      <contour>
        <pt x="31" y="720" on="1"/>
        <pt x="528" y="720" on="1"/>
        <pt x="582" y="720" on="0"/>
        <pt x="658" y="644" on="0"/>
        <pt x="658" y="590" on="1"/>
        <pt x="658" y="406" on="1"/>
        <pt x="658" y="352" on="0"/>
        <pt x="582" y="276" on="0"/>
        <pt x="528" y="276" on="1"/>
        <pt x="269" y="276" on="1"/>
        <pt x="260" y="276" on="0"/>
        <pt x="247" y="263" on="0"/>
        <pt x="247" y="254" on="1"/>
        <pt x="247" y="199" on="1"/>
        <pt x="139" y="199" on="1"/>
        <pt x="139" y="254" on="1"/>
        <pt x="139" y="308" on="0"/>
        <pt x="215" y="384" on="0"/>
        <pt x="269" y="384" on="1"/>
        <pt x="528" y="384" on="1"/>
        <pt x="537" y="384" on="0"/>
        <pt x="550" y="397" on="0"/>
        <pt x="550" y="406" on="1"/>
        <pt x="550" y="590" on="1"/>
        <pt x="550" y="599" on="0"/>
        <pt x="537" y="612" on="0"/>
        <pt x="528" y="612" on="1"/>
        <pt x="31" y="612" on="1"/>
      </contour>
      <contour>
        <pt x="247" y="0" on="1"/>
        <pt x="139" y="0" on="1"/>
        <pt x="139" y="108" on="1"/>
        <pt x="247" y="108" on="1"/>
      </contour>
    </TTGlyph>
    <TTGlyph name="question.alt" xMin="27" yMin="0" xMax="645" yMax="720">
      <contour>
        <pt x="435" y="384" on="1"/>
        <pt x="428" y="384" on="1"/>
      </contour>
      <contour>
        <pt x="155" y="720" on="1"/>
        <pt x="515" y="720" on="1"/>
        <pt x="569" y="720" on="0"/>
        <pt x="645" y="644" on="0"/>
        <pt x="645" y="590" on="1"/>
        <pt x="645" y="406" on="1"/>
        <pt x="645" y="352" on="0"/>
        <pt x="569" y="276" on="0"/>
        <pt x="515" y="276" on="1"/>
        <pt x="325" y="276" on="1"/>
        <pt x="316" y="276" on="0"/>
        <pt x="303" y="263" on="0"/>
        <pt x="303" y="254" on="1"/>
        <pt x="303" y="151" on="1"/>
        <pt x="195" y="151" on="1"/>
        <pt x="195" y="254" on="1"/>
        <pt x="195" y="308" on="0"/>
        <pt x="271" y="384" on="0"/>
        <pt x="325" y="384" on="1"/>
        <pt x="515" y="384" on="1"/>
        <pt x="524" y="384" on="0"/>
        <pt x="537" y="397" on="0"/>
        <pt x="537" y="406" on="1"/>
        <pt x="537" y="590" on="1"/>
        <pt x="537" y="599" on="0"/>
        <pt x="524" y="612" on="0"/>
        <pt x="515" y="612" on="1"/>
        <pt x="135" y="612" on="1"/>
        <pt x="135" y="504" on="1"/>
        <pt x="27" y="504" on="1"/>
        <pt x="27" y="612" on="1"/>
        <pt x="35" y="658" on="0"/>
        <pt x="107" y="720" on="0"/>
      </contour>
      <contour>
        <pt x="303" y="0" on="1"/>
        <pt x="195" y="0" on="1"/>
        <pt x="195" y="108" on="1"/>
        <pt x="303" y="108" on="1"/>
      </contour>
    </TTGlyph>
    <TTGlyph name="questiondown" xMin="19" yMin="0" xMax="646" yMax="720">
      <contour>
        <pt x="646" y="0" on="1"/>
        <pt x="149" y="0" on="1"/>
        <pt x="95" y="0" on="0"/>
        <pt x="19" y="76" on="0"/>
        <pt x="19" y="130" on="1"/>
        <pt x="19" y="314" on="1"/>
        <pt x="19" y="368" on="0"/>
        <pt x="95" y="444" on="0"/>
        <pt x="149" y="444" on="1"/>
        <pt x="408" y="444" on="1"/>
        <pt x="417" y="444" on="0"/>
        <pt x="430" y="457" on="0"/>
        <pt x="430" y="466" on="1"/>
        <pt x="430" y="527" on="1"/>
        <pt x="538" y="527" on="1"/>
        <pt x="538" y="466" on="1"/>
        <pt x="538" y="412" on="0"/>
        <pt x="462" y="336" on="0"/>
        <pt x="408" y="336" on="1"/>
        <pt x="149" y="336" on="1"/>
        <pt x="140" y="336" on="0"/>
        <pt x="127" y="323" on="0"/>
        <pt x="127" y="314" on="1"/>
        <pt x="127" y="130" on="1"/>
        <pt x="127" y="121" on="0"/>
        <pt x="140" y="108" on="0"/>
        <pt x="149" y="108" on="1"/>
        <pt x="646" y="108" on="1"/>
      </contour>
      <contour>
        <pt x="538" y="720" on="1"/>
        <pt x="538" y="612" on="1"/>
        <pt x="430" y="612" on="1"/>
        <pt x="430" y="720" on="1"/>
      </contour>
    </TTGlyph>
    <TTGlyph name="quotedbl" xMin="59" yMin="557" xMax="314" yMax="719">
      <contour>
        <pt x="167" y="719" on="1"/>
        <pt x="167" y="557" on="1"/>
        <pt x="59" y="557" on="1"/>
        <pt x="59" y="719" on="1"/>
      </contour>
      <contour>
        <pt x="314" y="719" on="1"/>
        <pt x="314" y="557" on="1"/>
        <pt x="206" y="557" on="1"/>
        <pt x="206" y="719" on="1"/>
      </contour>
    </TTGlyph>
    <TTGlyph name="quotedblleft" xMin="46" yMin="484" xMax="325" yMax="720">
      <contour>
        <pt x="154" y="484" on="1"/>
        <pt x="46" y="484" on="1"/>
        <pt x="46" y="592" on="1"/>
        <pt x="46" y="640" on="0"/>
        <pt x="108" y="712" on="0"/>
        <pt x="154" y="720" on="1"/>
      </contour>
      <contour>
        <pt x="325" y="484" on="1"/>
        <pt x="217" y="484" on="1"/>
        <pt x="217" y="592" on="1"/>
        <pt x="217" y="640" on="0"/>
        <pt x="279" y="712" on="0"/>
        <pt x="325" y="720" on="1"/>
      </contour>
    </TTGlyph>
    <TTGlyph name="quotedblright" xMin="54" yMin="484" xMax="333" yMax="720">
      <contour>
        <pt x="225" y="720" on="1"/>
        <pt x="333" y="720" on="1"/>
        <pt x="333" y="612" on="1"/>
        <pt x="333" y="564" on="0"/>
        <pt x="271" y="492" on="0"/>
        <pt x="225" y="484" on="1"/>
      </contour>
      <contour>
        <pt x="54" y="720" on="1"/>
        <pt x="162" y="720" on="1"/>
        <pt x="162" y="612" on="1"/>
        <pt x="162" y="564" on="0"/>
        <pt x="100" y="492" on="0"/>
        <pt x="54" y="484" on="1"/>
      </contour>
    </TTGlyph>
    <TTGlyph name="quoteleft" xMin="34" yMin="484" xMax="142" yMax="720">
      <contour>
        <pt x="142" y="484" on="1"/>
        <pt x="34" y="484" on="1"/>
        <pt x="34" y="592" on="1"/>
        <pt x="34" y="640" on="0"/>
        <pt x="96" y="712" on="0"/>
        <pt x="142" y="720" on="1"/>
      </contour>
    </TTGlyph>
    <TTGlyph name="quoteright" xMin="54" yMin="484" xMax="162" yMax="720">
      <contour>
        <pt x="54" y="720" on="1"/>
        <pt x="162" y="720" on="1"/>
        <pt x="162" y="612" on="1"/>
        <pt x="162" y="564" on="0"/>
        <pt x="100" y="492" on="0"/>
        <pt x="54" y="484" on="1"/>
      </contour>
    </TTGlyph>
    <TTGlyph name="quotesingle" xMin="59" yMin="557" xMax="167" yMax="719">
      <contour>
        <pt x="167" y="719" on="1"/>
        <pt x="167" y="557" on="1"/>
        <pt x="59" y="557" on="1"/>
        <pt x="59" y="719" on="1"/>
      </contour>
    </TTGlyph>
    <TTGlyph name="r" xMin="52" yMin="0" xMax="506" yMax="580">
      <contour>
        <pt x="182" y="580" on="1"/>
        <pt x="506" y="580" on="1"/>
        <pt x="506" y="472" on="1"/>
        <pt x="182" y="472" on="1"/>
        <pt x="173" y="472" on="0"/>
        <pt x="160" y="459" on="0"/>
        <pt x="160" y="450" on="1"/>
        <pt x="160" y="0" on="1"/>
        <pt x="52" y="0" on="1"/>
        <pt x="52" y="130" on="1"/>
        <pt x="52" y="450" on="1"/>
        <pt x="52" y="504" on="0"/>
        <pt x="128" y="580" on="0"/>
      </contour>
    </TTGlyph>
    <TTGlyph name="r.sc" xMin="54" yMin="0" xMax="654" yMax="580">
      <contour>
        <pt x="644" y="450" on="1"/>
        <pt x="644" y="327" on="1"/>
        <pt x="644" y="274" on="0"/>
        <pt x="568" y="197" on="0"/>
        <pt x="514" y="197" on="1"/>
        <pt x="451" y="197" on="1"/>
        <pt x="654" y="15" on="1"/>
        <pt x="654" y="0" on="1"/>
        <pt x="526" y="0" on="1"/>
        <pt x="310" y="197" on="1"/>
        <pt x="162" y="197" on="1"/>
        <pt x="162" y="0" on="1"/>
        <pt x="54" y="0" on="1"/>
        <pt x="54" y="580" on="1"/>
        <pt x="514" y="580" on="1"/>
        <pt x="568" y="580" on="0"/>
        <pt x="644" y="503" on="0"/>
      </contour>
      <contour>
        <pt x="184" y="305" on="1"/>
        <pt x="514" y="305" on="1"/>
        <pt x="523" y="305" on="0"/>
        <pt x="536" y="318" on="0"/>
        <pt x="536" y="327" on="1"/>
        <pt x="536" y="450" on="1"/>
        <pt x="536" y="459" on="0"/>
        <pt x="523" y="472" on="0"/>
        <pt x="514" y="472" on="1"/>
        <pt x="184" y="472" on="1"/>
        <pt x="175" y="472" on="0"/>
        <pt x="162" y="459" on="0"/>
        <pt x="162" y="450" on="1"/>
        <pt x="162" y="327" on="1"/>
        <pt x="162" y="318" on="0"/>
        <pt x="175" y="305" on="0"/>
      </contour>
    </TTGlyph>
    <TTGlyph name="ring" xMin="35" yMin="828" xMax="199" yMax="988">
      <contour>
        <pt x="89" y="988" on="1"/>
        <pt x="145" y="988" on="1"/>
        <pt x="167" y="988" on="0"/>
        <pt x="199" y="957" on="0"/>
        <pt x="199" y="935" on="1"/>
        <pt x="199" y="881" on="1"/>
        <pt x="199" y="859" on="0"/>
        <pt x="167" y="828" on="0"/>
        <pt x="145" y="828" on="1"/>
        <pt x="89" y="828" on="1"/>
        <pt x="67" y="828" on="0"/>
        <pt x="35" y="859" on="0"/>
        <pt x="35" y="881" on="1"/>
        <pt x="35" y="935" on="1"/>
        <pt x="35" y="957" on="0"/>
        <pt x="67" y="988" on="0"/>
      </contour>
      <contour>
        <pt x="84" y="868" on="1"/>
        <pt x="150" y="868" on="1"/>
        <pt x="159" y="868" on="0"/>
        <pt x="159" y="878" on="1"/>
        <pt x="159" y="938" on="1"/>
        <pt x="159" y="948" on="0"/>
        <pt x="150" y="948" on="1"/>
        <pt x="84" y="948" on="1"/>
        <pt x="75" y="948" on="0"/>
        <pt x="75" y="938" on="1"/>
        <pt x="75" y="878" on="1"/>
        <pt x="75" y="868" on="0"/>
      </contour>
    </TTGlyph>
</ttFont>
